solid CATIA STL
  facet normal  0.000000e+000 -1.000000e+000  0.000000e+000
    outer loop
      vertex  1.000000e+000  0.000000e+000  1.500000e+000
      vertex  4.163526e-001  0.000000e+000  8.926585e-001
      vertex  4.913526e-001  0.000000e+000  8.381678e-001
    endloop
  endfacet
  facet normal  0.000000e+000 -1.000000e+000  0.000000e+000
    outer loop
      vertex  0.000000e+000  0.000000e+000  1.500000e+000
      vertex  2.200000e-001  0.000000e+000  7.500000e-001
      vertex  2.486475e-001  0.000000e+000  8.381678e-001
    endloop
  endfacet
  facet normal  0.000000e+000 -9.999999e-001  0.000000e+000
    outer loop
      vertex  0.000000e+000  0.000000e+000  1.500000e+000
      vertex  2.486475e-001  0.000000e+000  8.381678e-001
      vertex  3.236475e-001  0.000000e+000  8.926585e-001
    endloop
  endfacet
  facet normal  0.000000e+000 -1.000000e+000  0.000000e+000
    outer loop
      vertex  0.000000e+000  0.000000e+000  1.500000e+000
      vertex  3.236475e-001  0.000000e+000  8.926585e-001
      vertex  4.163526e-001  0.000000e+000  8.926585e-001
    endloop
  endfacet
  facet normal  0.000000e+000 -1.000000e+000  0.000000e+000
    outer loop
      vertex  0.000000e+000  0.000000e+000  1.500000e+000
      vertex  4.163526e-001  0.000000e+000  8.926585e-001
      vertex  1.000000e+000  0.000000e+000  1.500000e+000
    endloop
  endfacet
  facet normal  0.000000e+000 -1.000000e+000  -0.000000e+000
    outer loop
      vertex  1.000000e+000  0.000000e+000  0.000000e+000
      vertex  1.000000e+000  0.000000e+000  1.500000e+000
      vertex  4.913526e-001  0.000000e+000  8.381678e-001
    endloop
  endfacet
  facet normal  0.000000e+000 -1.000000e+000  0.000000e+000
    outer loop
      vertex  1.000000e+000  0.000000e+000  0.000000e+000
      vertex  4.913526e-001  0.000000e+000  8.381678e-001
      vertex  5.200000e-001  0.000000e+000  7.500000e-001
    endloop
  endfacet
  facet normal  0.000000e+000 -1.000000e+000  -0.000000e+000
    outer loop
      vertex  1.000000e+000  0.000000e+000  0.000000e+000
      vertex  5.200000e-001  0.000000e+000  7.500000e-001
      vertex  4.913526e-001  0.000000e+000  6.618322e-001
    endloop
  endfacet
  facet normal  0.000000e+000 -1.000000e+000  -0.000000e+000
    outer loop
      vertex  1.000000e+000  0.000000e+000  0.000000e+000
      vertex  4.913526e-001  0.000000e+000  6.618322e-001
      vertex  4.163526e-001  0.000000e+000  6.073415e-001
    endloop
  endfacet
  facet normal  -0.000000e+000 -1.000000e+000  -0.000000e+000
    outer loop
      vertex  1.000000e+000  0.000000e+000  0.000000e+000
      vertex  4.163526e-001  0.000000e+000  6.073415e-001
      vertex  3.236475e-001  0.000000e+000  6.073415e-001
    endloop
  endfacet
  facet normal  0.000000e+000 -1.000000e+000  -0.000000e+000
    outer loop
      vertex  1.000000e+000  0.000000e+000  0.000000e+000
      vertex  3.236475e-001  0.000000e+000  6.073415e-001
      vertex  0.000000e+000  0.000000e+000  0.000000e+000
    endloop
  endfacet
  facet normal  -0.000000e+000 -1.000000e+000  0.000000e+000
    outer loop
      vertex  0.000000e+000  0.000000e+000  0.000000e+000
      vertex  3.236475e-001  0.000000e+000  6.073415e-001
      vertex  2.486475e-001  0.000000e+000  6.618322e-001
    endloop
  endfacet
  facet normal  -0.000000e+000 -1.000000e+000  0.000000e+000
    outer loop
      vertex  0.000000e+000  0.000000e+000  0.000000e+000
      vertex  2.486475e-001  0.000000e+000  6.618322e-001
      vertex  2.200000e-001  0.000000e+000  7.500000e-001
    endloop
  endfacet
  facet normal  -0.000000e+000 -1.000000e+000  0.000000e+000
    outer loop
      vertex  0.000000e+000  0.000000e+000  0.000000e+000
      vertex  2.200000e-001  0.000000e+000  7.500000e-001
      vertex  0.000000e+000  0.000000e+000  1.500000e+000
    endloop
  endfacet
  facet normal  4.788663e-017 -1.000000e+000  1.555920e-017
    outer loop
      vertex  4.687616e+000  2.220446e-017  1.500000e+000
      vertex  4.438969e+000  0.000000e+000  8.381678e-001
      vertex  4.467616e+000  0.000000e+000  7.500000e-001
    endloop
  endfacet
  facet normal  1.009293e-016 -1.000000e+000  0.000000e+000
    outer loop
      vertex  4.687616e+000  2.220446e-017  0.000000e+000
      vertex  4.687616e+000  2.220446e-017  1.500000e+000
      vertex  4.467616e+000  0.000000e+000  7.500000e-001
    endloop
  endfacet
  facet normal  4.788665e-017 -1.000000e+000 -1.555919e-017
    outer loop
      vertex  4.687616e+000  2.220446e-017  0.000000e+000
      vertex  4.467616e+000  0.000000e+000  7.500000e-001
      vertex  4.438969e+000  0.000000e+000  6.618322e-001
    endloop
  endfacet
  facet normal  5.806466e-015 -1.000000e+000  2.147913e-015
    outer loop
      vertex  4.687616e+000  2.220446e-017  0.000000e+000
      vertex  4.438969e+000  0.000000e+000  6.618322e-001
      vertex  3.687616e+000 -5.784262e-015  0.000000e+000
    endloop
  endfacet
  facet normal -3.624642e-014 -1.000000e+000  4.988894e-014
    outer loop
      vertex  3.687616e+000 -5.784262e-015  0.000000e+000
      vertex  4.438969e+000  0.000000e+000  6.618322e-001
      vertex  4.363969e+000  0.000000e+000  6.073415e-001
    endloop
  endfacet
  facet normal  0.000000e+000 -1.000000e+000  9.523904e-015
    outer loop
      vertex  3.687616e+000 -5.784262e-015  0.000000e+000
      vertex  4.363969e+000  0.000000e+000  6.073415e-001
      vertex  4.271264e+000  0.000000e+000  6.073415e-001
    endloop
  endfacet
  facet normal  4.074624e-015 -1.000000e+000  5.608242e-015
    outer loop
      vertex  3.687616e+000 -5.784262e-015  0.000000e+000
      vertex  4.271264e+000  0.000000e+000  6.073415e-001
      vertex  4.196264e+000  0.000000e+000  6.618322e-001
    endloop
  endfacet
  facet normal  7.992723e-015 -1.000000e+000  2.597007e-015
    outer loop
      vertex  3.687616e+000 -5.784262e-015  0.000000e+000
      vertex  4.196264e+000  0.000000e+000  6.618322e-001
      vertex  4.167616e+000  0.000000e+000  7.500000e-001
    endloop
  endfacet
  facet normal  1.205055e-014 -1.000000e+000  0.000000e+000
    outer loop
      vertex  3.687616e+000 -5.784262e-015  0.000000e+000
      vertex  4.167616e+000  0.000000e+000  7.500000e-001
      vertex  3.687616e+000 -5.784262e-015  1.500000e+000
    endloop
  endfacet
  facet normal  7.992721e-015 -1.000000e+000 -2.597008e-015
    outer loop
      vertex  3.687616e+000 -5.784262e-015  1.500000e+000
      vertex  4.167616e+000  0.000000e+000  7.500000e-001
      vertex  4.196264e+000  0.000000e+000  8.381678e-001
    endloop
  endfacet
  facet normal  4.074628e-015 -1.000000e+000 -5.608237e-015
    outer loop
      vertex  3.687616e+000 -5.784262e-015  1.500000e+000
      vertex  4.196264e+000  0.000000e+000  8.381678e-001
      vertex  4.271264e+000  0.000000e+000  8.926585e-001
    endloop
  endfacet
  facet normal  0.000000e+000 -1.000000e+000 -9.523905e-015
    outer loop
      vertex  3.687616e+000 -5.784262e-015  1.500000e+000
      vertex  4.271264e+000  0.000000e+000  8.926585e-001
      vertex  4.363969e+000  0.000000e+000  8.926585e-001
    endloop
  endfacet
  facet normal -3.624675e-014 -9.999999e-001 -4.988931e-014
    outer loop
      vertex  3.687616e+000 -5.784262e-015  1.500000e+000
      vertex  4.363969e+000  0.000000e+000  8.926585e-001
      vertex  4.438969e+000  0.000000e+000  8.381678e-001
    endloop
  endfacet
  facet normal  5.806466e-015 -1.000000e+000 -2.147912e-015
    outer loop
      vertex  3.687616e+000 -5.784262e-015  1.500000e+000
      vertex  4.438969e+000  0.000000e+000  8.381678e-001
      vertex  4.687616e+000  2.220446e-017  1.500000e+000
    endloop
  endfacet
  facet normal  0.000000e+000  1.000000e+000  0.000000e+000
    outer loop
      vertex  3.919460e+000  3.000000e-001  1.500000e+000
      vertex  4.196264e+000  3.000000e-001  8.381678e-001
      vertex  4.167616e+000  3.000000e-001  7.500000e-001
    endloop
  endfacet
  facet normal  0.000000e+000  1.000000e+000  0.000000e+000
    outer loop
      vertex  3.919460e+000  3.000000e-001  1.500000e+000
      vertex  4.271264e+000  3.000000e-001  8.926585e-001
      vertex  4.196264e+000  3.000000e-001  8.381678e-001
    endloop
  endfacet
  facet normal  0.000000e+000  1.000000e+000  -0.000000e+000
    outer loop
      vertex  4.687616e+000  3.000000e-001  1.500000e+000
      vertex  4.467616e+000  3.000000e-001  7.500000e-001
      vertex  4.438969e+000  3.000000e-001  8.381678e-001
    endloop
  endfacet
  facet normal  0.000000e+000  1.000000e+000  -0.000000e+000
    outer loop
      vertex  4.687616e+000  3.000000e-001  1.500000e+000
      vertex  4.438969e+000  3.000000e-001  8.381678e-001
      vertex  4.363969e+000  3.000000e-001  8.926585e-001
    endloop
  endfacet
  facet normal  0.000000e+000  1.000000e+000  -0.000000e+000
    outer loop
      vertex  4.687616e+000  3.000000e-001  1.500000e+000
      vertex  4.363969e+000  3.000000e-001  8.926585e-001
      vertex  4.271264e+000  3.000000e-001  8.926585e-001
    endloop
  endfacet
  facet normal  0.000000e+000  1.000000e+000  -0.000000e+000
    outer loop
      vertex  4.687616e+000  3.000000e-001  1.500000e+000
      vertex  4.271264e+000  3.000000e-001  8.926585e-001
      vertex  3.919460e+000  3.000000e-001  1.500000e+000
    endloop
  endfacet
  facet normal  0.000000e+000  1.000000e+000  0.000000e+000
    outer loop
      vertex  3.919460e+000  3.000000e-001  0.000000e+000
      vertex  3.919460e+000  3.000000e-001  1.500000e+000
      vertex  4.167616e+000  3.000000e-001  7.500000e-001
    endloop
  endfacet
  facet normal  0.000000e+000  1.000000e+000  0.000000e+000
    outer loop
      vertex  3.919460e+000  3.000000e-001  0.000000e+000
      vertex  4.167616e+000  3.000000e-001  7.500000e-001
      vertex  4.196264e+000  3.000000e-001  6.618322e-001
    endloop
  endfacet
  facet normal  0.000000e+000  1.000000e+000  0.000000e+000
    outer loop
      vertex  3.919460e+000  3.000000e-001  0.000000e+000
      vertex  4.196264e+000  3.000000e-001  6.618322e-001
      vertex  4.271264e+000  3.000000e-001  6.073415e-001
    endloop
  endfacet
  facet normal  -0.000000e+000  1.000000e+000  0.000000e+000
    outer loop
      vertex  3.919460e+000  3.000000e-001  0.000000e+000
      vertex  4.271264e+000  3.000000e-001  6.073415e-001
      vertex  4.363969e+000  3.000000e-001  6.073415e-001
    endloop
  endfacet
  facet normal  0.000000e+000  1.000000e+000  0.000000e+000
    outer loop
      vertex  3.919460e+000  3.000000e-001  0.000000e+000
      vertex  4.363969e+000  3.000000e-001  6.073415e-001
      vertex  4.687616e+000  3.000000e-001  0.000000e+000
    endloop
  endfacet
  facet normal  -0.000000e+000  1.000000e+000  0.000000e+000
    outer loop
      vertex  4.687616e+000  3.000000e-001  0.000000e+000
      vertex  4.363969e+000  3.000000e-001  6.073415e-001
      vertex  4.438969e+000  3.000000e-001  6.618322e-001
    endloop
  endfacet
  facet normal  -0.000000e+000  1.000000e+000  0.000000e+000
    outer loop
      vertex  4.687616e+000  3.000000e-001  0.000000e+000
      vertex  4.438969e+000  3.000000e-001  6.618322e-001
      vertex  4.467616e+000  3.000000e-001  7.500000e-001
    endloop
  endfacet
  facet normal  -0.000000e+000  1.000000e+000  0.000000e+000
    outer loop
      vertex  4.687616e+000  3.000000e-001  0.000000e+000
      vertex  4.467616e+000  3.000000e-001  7.500000e-001
      vertex  4.687616e+000  3.000000e-001  1.500000e+000
    endloop
  endfacet
  facet normal  0.000000e+000  1.000000e+000  0.000000e+000
    outer loop
      vertex  0.000000e+000  3.000000e-001  1.500000e+000
      vertex  2.486475e-001  3.000000e-001  8.381678e-001
      vertex  2.200000e-001  3.000000e-001  7.500000e-001
    endloop
  endfacet
  facet normal  0.000000e+000  9.999999e-001  0.000000e+000
    outer loop
      vertex  0.000000e+000  3.000000e-001  1.500000e+000
      vertex  3.236475e-001  3.000000e-001  8.926585e-001
      vertex  2.486475e-001  3.000000e-001  8.381678e-001
    endloop
  endfacet
  facet normal  0.000000e+000  1.000000e+000  -0.000000e+000
    outer loop
      vertex  7.681562e-001  3.000000e-001  1.500000e+000
      vertex  5.200000e-001  3.000000e-001  7.500000e-001
      vertex  4.913526e-001  3.000000e-001  8.381678e-001
    endloop
  endfacet
  facet normal  0.000000e+000  1.000000e+000  -0.000000e+000
    outer loop
      vertex  7.681562e-001  3.000000e-001  1.500000e+000
      vertex  4.913526e-001  3.000000e-001  8.381678e-001
      vertex  4.163526e-001  3.000000e-001  8.926585e-001
    endloop
  endfacet
  facet normal  0.000000e+000  1.000000e+000  -0.000000e+000
    outer loop
      vertex  7.681562e-001  3.000000e-001  1.500000e+000
      vertex  4.163526e-001  3.000000e-001  8.926585e-001
      vertex  3.236475e-001  3.000000e-001  8.926585e-001
    endloop
  endfacet
  facet normal  0.000000e+000  1.000000e+000  -0.000000e+000
    outer loop
      vertex  7.681562e-001  3.000000e-001  1.500000e+000
      vertex  3.236475e-001  3.000000e-001  8.926585e-001
      vertex  0.000000e+000  3.000000e-001  1.500000e+000
    endloop
  endfacet
  facet normal  0.000000e+000  1.000000e+000  0.000000e+000
    outer loop
      vertex  0.000000e+000  3.000000e-001  0.000000e+000
      vertex  0.000000e+000  3.000000e-001  1.500000e+000
      vertex  2.200000e-001  3.000000e-001  7.500000e-001
    endloop
  endfacet
  facet normal  0.000000e+000  1.000000e+000  0.000000e+000
    outer loop
      vertex  0.000000e+000  3.000000e-001  0.000000e+000
      vertex  2.200000e-001  3.000000e-001  7.500000e-001
      vertex  2.486475e-001  3.000000e-001  6.618322e-001
    endloop
  endfacet
  facet normal  0.000000e+000  1.000000e+000  0.000000e+000
    outer loop
      vertex  0.000000e+000  3.000000e-001  0.000000e+000
      vertex  2.486475e-001  3.000000e-001  6.618322e-001
      vertex  3.236475e-001  3.000000e-001  6.073415e-001
    endloop
  endfacet
  facet normal  -0.000000e+000  1.000000e+000  0.000000e+000
    outer loop
      vertex  0.000000e+000  3.000000e-001  0.000000e+000
      vertex  3.236475e-001  3.000000e-001  6.073415e-001
      vertex  4.163526e-001  3.000000e-001  6.073415e-001
    endloop
  endfacet
  facet normal  0.000000e+000  1.000000e+000  0.000000e+000
    outer loop
      vertex  0.000000e+000  3.000000e-001  0.000000e+000
      vertex  4.163526e-001  3.000000e-001  6.073415e-001
      vertex  7.681562e-001  3.000000e-001  0.000000e+000
    endloop
  endfacet
  facet normal  -0.000000e+000  1.000000e+000  0.000000e+000
    outer loop
      vertex  7.681562e-001  3.000000e-001  0.000000e+000
      vertex  4.163526e-001  3.000000e-001  6.073415e-001
      vertex  4.913526e-001  3.000000e-001  6.618322e-001
    endloop
  endfacet
  facet normal  -0.000000e+000  1.000000e+000  0.000000e+000
    outer loop
      vertex  7.681562e-001  3.000000e-001  0.000000e+000
      vertex  4.913526e-001  3.000000e-001  6.618322e-001
      vertex  5.200000e-001  3.000000e-001  7.500000e-001
    endloop
  endfacet
  facet normal  -0.000000e+000  9.999999e-001  0.000000e+000
    outer loop
      vertex  7.681562e-001  3.000000e-001  0.000000e+000
      vertex  5.200000e-001  3.000000e-001  7.500000e-001
      vertex  7.681562e-001  3.000000e-001  1.500000e+000
    endloop
  endfacet
  facet normal -5.877857e-001  -0.000000e+000 -8.090166e-001
    outer loop
      vertex  4.163526e-001  0.000000e+000  8.926585e-001
      vertex  4.913526e-001  3.000000e-001  8.381678e-001
      vertex  4.913526e-001  0.000000e+000  8.381678e-001
    endloop
  endfacet
  facet normal -9.510566e-001  0.000000e+000 -3.090168e-001
    outer loop
      vertex  4.913526e-001  0.000000e+000  8.381678e-001
      vertex  4.913526e-001  3.000000e-001  8.381678e-001
      vertex  5.200000e-001  3.000000e-001  7.500000e-001
    endloop
  endfacet
  facet normal -9.510566e-001  -0.000000e+000 -3.090168e-001
    outer loop
      vertex  4.913526e-001  0.000000e+000  8.381678e-001
      vertex  5.200000e-001  3.000000e-001  7.500000e-001
      vertex  5.200000e-001  0.000000e+000  7.500000e-001
    endloop
  endfacet
  facet normal -5.877857e-001  0.000000e+000 -8.090166e-001
    outer loop
      vertex  4.913526e-001  3.000000e-001  8.381678e-001
      vertex  4.163526e-001  0.000000e+000  8.926585e-001
      vertex  4.163526e-001  3.000000e-001  8.926585e-001
    endloop
  endfacet
  facet normal  0.000000e+000  -0.000000e+000 -1.000000e+000
    outer loop
      vertex  4.163526e-001  3.000000e-001  8.926585e-001
      vertex  4.163526e-001  0.000000e+000  8.926585e-001
      vertex  3.236475e-001  0.000000e+000  8.926585e-001
    endloop
  endfacet
  facet normal  0.000000e+000  0.000000e+000 -1.000000e+000
    outer loop
      vertex  4.163526e-001  3.000000e-001  8.926585e-001
      vertex  3.236475e-001  0.000000e+000  8.926585e-001
      vertex  3.236475e-001  3.000000e-001  8.926585e-001
    endloop
  endfacet
  facet normal  5.877857e-001  0.000000e+000 -8.090166e-001
    outer loop
      vertex  3.236475e-001  3.000000e-001  8.926585e-001
      vertex  3.236475e-001  0.000000e+000  8.926585e-001
      vertex  2.486475e-001  0.000000e+000  8.381678e-001
    endloop
  endfacet
  facet normal  5.877857e-001  0.000000e+000 -8.090166e-001
    outer loop
      vertex  3.236475e-001  3.000000e-001  8.926585e-001
      vertex  2.486475e-001  0.000000e+000  8.381678e-001
      vertex  2.486475e-001  3.000000e-001  8.381678e-001
    endloop
  endfacet
  facet normal  9.510565e-001  0.000000e+000 -3.090170e-001
    outer loop
      vertex  2.486475e-001  3.000000e-001  8.381678e-001
      vertex  2.486475e-001  0.000000e+000  8.381678e-001
      vertex  2.200000e-001  0.000000e+000  7.500000e-001
    endloop
  endfacet
  facet normal  9.510565e-001  0.000000e+000 -3.090170e-001
    outer loop
      vertex  2.486475e-001  3.000000e-001  8.381678e-001
      vertex  2.200000e-001  0.000000e+000  7.500000e-001
      vertex  2.200000e-001  3.000000e-001  7.500000e-001
    endloop
  endfacet
  facet normal  5.877851e-001  0.000000e+000  8.090171e-001
    outer loop
      vertex  3.236475e-001  0.000000e+000  6.073415e-001
      vertex  2.486475e-001  3.000000e-001  6.618322e-001
      vertex  2.486475e-001  0.000000e+000  6.618322e-001
    endloop
  endfacet
  facet normal  9.510566e-001  -0.000000e+000  3.090169e-001
    outer loop
      vertex  2.486475e-001  0.000000e+000  6.618322e-001
      vertex  2.486475e-001  3.000000e-001  6.618322e-001
      vertex  2.200000e-001  3.000000e-001  7.500000e-001
    endloop
  endfacet
  facet normal  9.510566e-001  0.000000e+000  3.090169e-001
    outer loop
      vertex  2.486475e-001  0.000000e+000  6.618322e-001
      vertex  2.200000e-001  3.000000e-001  7.500000e-001
      vertex  2.200000e-001  0.000000e+000  7.500000e-001
    endloop
  endfacet
  facet normal  5.877851e-001  -0.000000e+000  8.090171e-001
    outer loop
      vertex  2.486475e-001  3.000000e-001  6.618322e-001
      vertex  3.236475e-001  0.000000e+000  6.073415e-001
      vertex  3.236475e-001  3.000000e-001  6.073415e-001
    endloop
  endfacet
  facet normal  0.000000e+000  0.000000e+000  1.000000e+000
    outer loop
      vertex  3.236475e-001  3.000000e-001  6.073415e-001
      vertex  3.236475e-001  0.000000e+000  6.073415e-001
      vertex  4.163526e-001  0.000000e+000  6.073415e-001
    endloop
  endfacet
  facet normal  0.000000e+000  -0.000000e+000  1.000000e+000
    outer loop
      vertex  3.236475e-001  3.000000e-001  6.073415e-001
      vertex  4.163526e-001  0.000000e+000  6.073415e-001
      vertex  4.163526e-001  3.000000e-001  6.073415e-001
    endloop
  endfacet
  facet normal -5.877851e-001  0.000000e+000  8.090171e-001
    outer loop
      vertex  4.163526e-001  3.000000e-001  6.073415e-001
      vertex  4.163526e-001  0.000000e+000  6.073415e-001
      vertex  4.913526e-001  0.000000e+000  6.618322e-001
    endloop
  endfacet
  facet normal -5.877851e-001  0.000000e+000  8.090171e-001
    outer loop
      vertex  4.163526e-001  3.000000e-001  6.073415e-001
      vertex  4.913526e-001  0.000000e+000  6.618322e-001
      vertex  4.913526e-001  3.000000e-001  6.618322e-001
    endloop
  endfacet
  facet normal -9.510567e-001  0.000000e+000  3.090167e-001
    outer loop
      vertex  4.913526e-001  3.000000e-001  6.618322e-001
      vertex  4.913526e-001  0.000000e+000  6.618322e-001
      vertex  5.200000e-001  0.000000e+000  7.500000e-001
    endloop
  endfacet
  facet normal -9.510567e-001  0.000000e+000  3.090167e-001
    outer loop
      vertex  4.913526e-001  3.000000e-001  6.618322e-001
      vertex  5.200000e-001  0.000000e+000  7.500000e-001
      vertex  5.200000e-001  3.000000e-001  7.500000e-001
    endloop
  endfacet
  facet normal -5.877857e-001  -0.000000e+000 -8.090166e-001
    outer loop
      vertex  4.363969e+000  0.000000e+000  8.926585e-001
      vertex  4.438969e+000  3.000000e-001  8.381678e-001
      vertex  4.438969e+000  0.000000e+000  8.381678e-001
    endloop
  endfacet
  facet normal -9.510572e-001  0.000000e+000 -3.090149e-001
    outer loop
      vertex  4.438969e+000  0.000000e+000  8.381678e-001
      vertex  4.438969e+000  3.000000e-001  8.381678e-001
      vertex  4.467616e+000  3.000000e-001  7.500000e-001
    endloop
  endfacet
  facet normal -9.510572e-001  -0.000000e+000 -3.090149e-001
    outer loop
      vertex  4.438969e+000  0.000000e+000  8.381678e-001
      vertex  4.467616e+000  3.000000e-001  7.500000e-001
      vertex  4.467616e+000  0.000000e+000  7.500000e-001
    endloop
  endfacet
  facet normal -5.877857e-001  0.000000e+000 -8.090166e-001
    outer loop
      vertex  4.438969e+000  3.000000e-001  8.381678e-001
      vertex  4.363969e+000  0.000000e+000  8.926585e-001
      vertex  4.363969e+000  3.000000e-001  8.926585e-001
    endloop
  endfacet
  facet normal  0.000000e+000  -0.000000e+000 -1.000000e+000
    outer loop
      vertex  4.363969e+000  3.000000e-001  8.926585e-001
      vertex  4.363969e+000  0.000000e+000  8.926585e-001
      vertex  4.271264e+000  0.000000e+000  8.926585e-001
    endloop
  endfacet
  facet normal  0.000000e+000  0.000000e+000 -1.000000e+000
    outer loop
      vertex  4.363969e+000  3.000000e-001  8.926585e-001
      vertex  4.271264e+000  0.000000e+000  8.926585e-001
      vertex  4.271264e+000  3.000000e-001  8.926585e-001
    endloop
  endfacet
  facet normal  5.877857e-001  0.000000e+000 -8.090166e-001
    outer loop
      vertex  4.271264e+000  3.000000e-001  8.926585e-001
      vertex  4.271264e+000  0.000000e+000  8.926585e-001
      vertex  4.196264e+000  0.000000e+000  8.381678e-001
    endloop
  endfacet
  facet normal  5.877857e-001  0.000000e+000 -8.090166e-001
    outer loop
      vertex  4.271264e+000  3.000000e-001  8.926585e-001
      vertex  4.196264e+000  0.000000e+000  8.381678e-001
      vertex  4.196264e+000  3.000000e-001  8.381678e-001
    endloop
  endfacet
  facet normal  9.510559e-001  0.000000e+000 -3.090186e-001
    outer loop
      vertex  4.196264e+000  3.000000e-001  8.381678e-001
      vertex  4.196264e+000  0.000000e+000  8.381678e-001
      vertex  4.167616e+000  0.000000e+000  7.500000e-001
    endloop
  endfacet
  facet normal  9.510559e-001  0.000000e+000 -3.090186e-001
    outer loop
      vertex  4.196264e+000  3.000000e-001  8.381678e-001
      vertex  4.167616e+000  0.000000e+000  7.500000e-001
      vertex  4.167616e+000  3.000000e-001  7.500000e-001
    endloop
  endfacet
  facet normal  5.877851e-001  0.000000e+000  8.090171e-001
    outer loop
      vertex  4.271264e+000  0.000000e+000  6.073415e-001
      vertex  4.196264e+000  3.000000e-001  6.618322e-001
      vertex  4.196264e+000  0.000000e+000  6.618322e-001
    endloop
  endfacet
  facet normal  9.510561e-001  -0.000000e+000  3.090185e-001
    outer loop
      vertex  4.196264e+000  0.000000e+000  6.618322e-001
      vertex  4.196264e+000  3.000000e-001  6.618322e-001
      vertex  4.167616e+000  3.000000e-001  7.500000e-001
    endloop
  endfacet
  facet normal  9.510561e-001  0.000000e+000  3.090185e-001
    outer loop
      vertex  4.196264e+000  0.000000e+000  6.618322e-001
      vertex  4.167616e+000  3.000000e-001  7.500000e-001
      vertex  4.167616e+000  0.000000e+000  7.500000e-001
    endloop
  endfacet
  facet normal  5.877851e-001  -0.000000e+000  8.090171e-001
    outer loop
      vertex  4.196264e+000  3.000000e-001  6.618322e-001
      vertex  4.271264e+000  0.000000e+000  6.073415e-001
      vertex  4.271264e+000  3.000000e-001  6.073415e-001
    endloop
  endfacet
  facet normal  0.000000e+000  0.000000e+000  1.000000e+000
    outer loop
      vertex  4.271264e+000  3.000000e-001  6.073415e-001
      vertex  4.271264e+000  0.000000e+000  6.073415e-001
      vertex  4.363969e+000  0.000000e+000  6.073415e-001
    endloop
  endfacet
  facet normal  0.000000e+000  -0.000000e+000  1.000000e+000
    outer loop
      vertex  4.271264e+000  3.000000e-001  6.073415e-001
      vertex  4.363969e+000  0.000000e+000  6.073415e-001
      vertex  4.363969e+000  3.000000e-001  6.073415e-001
    endloop
  endfacet
  facet normal -5.877851e-001  0.000000e+000  8.090171e-001
    outer loop
      vertex  4.363969e+000  3.000000e-001  6.073415e-001
      vertex  4.363969e+000  0.000000e+000  6.073415e-001
      vertex  4.438969e+000  0.000000e+000  6.618322e-001
    endloop
  endfacet
  facet normal -5.877851e-001  0.000000e+000  8.090171e-001
    outer loop
      vertex  4.363969e+000  3.000000e-001  6.073415e-001
      vertex  4.438969e+000  0.000000e+000  6.618322e-001
      vertex  4.438969e+000  3.000000e-001  6.618322e-001
    endloop
  endfacet
  facet normal -9.510573e-001  0.000000e+000  3.090148e-001
    outer loop
      vertex  4.438969e+000  3.000000e-001  6.618322e-001
      vertex  4.438969e+000  0.000000e+000  6.618322e-001
      vertex  4.467616e+000  0.000000e+000  7.500000e-001
    endloop
  endfacet
  facet normal -9.510573e-001  0.000000e+000  3.090148e-001
    outer loop
      vertex  4.438969e+000  3.000000e-001  6.618322e-001
      vertex  4.467616e+000  0.000000e+000  7.500000e-001
      vertex  4.467616e+000  3.000000e-001  7.500000e-001
    endloop
  endfacet
  facet normal  0.000000e+000  -0.000000e+000  1.000000e+000
    outer loop
      vertex  0.000000e+000  0.000000e+000  1.500000e+000
      vertex  1.000000e+000  0.000000e+000  1.500000e+000
      vertex  1.040242e+000  1.710664e-001  1.500000e+000
    endloop
  endfacet
  facet normal  0.000000e+000  0.000000e+000  1.000000e+000
    outer loop
      vertex  4.687616e+000  2.220446e-017  1.500000e+000
      vertex  3.647374e+000  1.710664e-001  1.500000e+000
      vertex  3.687616e+000 -5.784262e-015  1.500000e+000
    endloop
  endfacet
  facet normal  -0.000000e+000  0.000000e+000  1.000000e+000
    outer loop
      vertex  7.681562e-001  3.000000e-001  1.500000e+000
      vertex  0.000000e+000  3.000000e-001  1.500000e+000
      vertex  0.000000e+000  0.000000e+000  1.500000e+000
    endloop
  endfacet
  facet normal  0.000000e+000  0.000000e+000  1.000000e+000
    outer loop
      vertex  7.681562e-001  3.000000e-001  1.500000e+000
      vertex  0.000000e+000  0.000000e+000  1.500000e+000
      vertex  1.040242e+000  1.710664e-001  1.500000e+000
    endloop
  endfacet
  facet normal  0.000000e+000  -0.000000e+000  1.000000e+000
    outer loop
      vertex  7.681562e-001  3.000000e-001  1.500000e+000
      vertex  1.040242e+000  1.710664e-001  1.500000e+000
      vertex  1.116479e+000  3.319008e-001  1.500000e+000
    endloop
  endfacet
  facet normal  0.000000e+000  -0.000000e+000  1.000000e+000
    outer loop
      vertex  7.681562e-001  3.000000e-001  1.500000e+000
      vertex  1.116479e+000  3.319008e-001  1.500000e+000
      vertex  1.225833e+000  4.764320e-001  1.500000e+000
    endloop
  endfacet
  facet normal  0.000000e+000  -0.000000e+000  9.999999e-001
    outer loop
      vertex  7.681562e-001  3.000000e-001  1.500000e+000
      vertex  1.225833e+000  4.764320e-001  1.500000e+000
      vertex  1.327141e+000  5.708204e-001  1.500000e+000
    endloop
  endfacet
  facet normal  0.000000e+000  0.000000e+000  1.000000e+000
    outer loop
      vertex  7.681562e-001  3.000000e-001  1.500000e+000
      vertex  1.327141e+000  5.708204e-001  1.500000e+000
      vertex  9.107214e-001  5.636682e-001  1.500000e+000
    endloop
  endfacet
  facet normal  0.000000e+000  0.000000e+000  1.000000e+000
    outer loop
      vertex  3.919460e+000  3.000000e-001  1.500000e+000
      vertex  3.776828e+000  5.637611e-001  1.500000e+000
      vertex  3.360475e+000  5.708204e-001  1.500000e+000
    endloop
  endfacet
  facet normal  0.000000e+000  0.000000e+000  1.000000e+000
    outer loop
      vertex  3.919460e+000  3.000000e-001  1.500000e+000
      vertex  3.360475e+000  5.708204e-001  1.500000e+000
      vertex  3.461783e+000  4.764320e-001  1.500000e+000
    endloop
  endfacet
  facet normal  0.000000e+000  0.000000e+000  1.000000e+000
    outer loop
      vertex  3.919460e+000  3.000000e-001  1.500000e+000
      vertex  3.461783e+000  4.764320e-001  1.500000e+000
      vertex  3.571137e+000  3.319008e-001  1.500000e+000
    endloop
  endfacet
  facet normal  0.000000e+000  0.000000e+000  1.000000e+000
    outer loop
      vertex  3.919460e+000  3.000000e-001  1.500000e+000
      vertex  3.571137e+000  3.319008e-001  1.500000e+000
      vertex  3.647374e+000  1.710664e-001  1.500000e+000
    endloop
  endfacet
  facet normal  -0.000000e+000  0.000000e+000  1.000000e+000
    outer loop
      vertex  3.919460e+000  3.000000e-001  1.500000e+000
      vertex  3.647374e+000  1.710664e-001  1.500000e+000
      vertex  4.687616e+000  2.220446e-017  1.500000e+000
    endloop
  endfacet
  facet normal  0.000000e+000  -0.000000e+000  1.000000e+000
    outer loop
      vertex  3.919460e+000  3.000000e-001  1.500000e+000
      vertex  4.687616e+000  2.220446e-017  1.500000e+000
      vertex  4.687616e+000  3.000000e-001  1.500000e+000
    endloop
  endfacet
  facet normal  0.000000e+000  0.000000e+000  1.000000e+000
    outer loop
      vertex  1.993808e+000  8.000000e-001  1.500000e+000
      vertex  2.693808e+000  8.000000e-001  1.500000e+000
      vertex  1.379262e+000  9.574502e-001  1.500000e+000
    endloop
  endfacet
  facet normal  0.000000e+000  0.000000e+000  1.000000e+000
    outer loop
      vertex  1.993808e+000  8.000000e-001  1.500000e+000
      vertex  1.379262e+000  9.574502e-001  1.500000e+000
      vertex  1.118602e+000  7.873139e-001  1.500000e+000
    endloop
  endfacet
  facet normal  -0.000000e+000  0.000000e+000  1.000000e+000
    outer loop
      vertex  1.993808e+000  8.000000e-001  1.500000e+000
      vertex  1.118602e+000  7.873139e-001  1.500000e+000
      vertex  1.706044e+000  7.619313e-001  1.500000e+000
    endloop
  endfacet
  facet normal  0.000000e+000  0.000000e+000  1.000000e+000
    outer loop
      vertex  1.706044e+000  7.619313e-001  1.500000e+000
      vertex  1.118602e+000  7.873139e-001  1.500000e+000
      vertex  1.442624e+000  6.509456e-001  1.500000e+000
    endloop
  endfacet
  facet normal  0.000000e+000  0.000000e+000  1.000000e+000
    outer loop
      vertex  1.442624e+000  6.509456e-001  1.500000e+000
      vertex  1.118602e+000  7.873139e-001  1.500000e+000
      vertex  9.107214e-001  5.636682e-001  1.500000e+000
    endloop
  endfacet
  facet normal  0.000000e+000  0.000000e+000  1.000000e+000
    outer loop
      vertex  1.442624e+000  6.509456e-001  1.500000e+000
      vertex  9.107214e-001  5.636682e-001  1.500000e+000
      vertex  1.327141e+000  5.708204e-001  1.500000e+000
    endloop
  endfacet
  facet normal  0.000000e+000  0.000000e+000  1.000000e+000
    outer loop
      vertex  2.693204e+000  1.100000e+000  1.500000e+000
      vertex  1.993808e+000  1.100000e+000  1.500000e+000
      vertex  3.010165e+000  1.063926e+000  1.500000e+000
    endloop
  endfacet
  facet normal  0.000000e+000  0.000000e+000  1.000000e+000
    outer loop
      vertex  3.010165e+000  1.063926e+000  1.500000e+000
      vertex  1.993808e+000  1.100000e+000  1.500000e+000
      vertex  1.676982e+000  1.063817e+000  1.500000e+000
    endloop
  endfacet
  facet normal  -0.000000e+000  0.000000e+000  1.000000e+000
    outer loop
      vertex  3.010165e+000  1.063926e+000  1.500000e+000
      vertex  1.676982e+000  1.063817e+000  1.500000e+000
      vertex  3.308035e+000  9.576083e-001  1.500000e+000
    endloop
  endfacet
  facet normal  0.000000e+000  0.000000e+000  1.000000e+000
    outer loop
      vertex  3.308035e+000  9.576083e-001  1.500000e+000
      vertex  1.676982e+000  1.063817e+000  1.500000e+000
      vertex  1.379262e+000  9.574502e-001  1.500000e+000
    endloop
  endfacet
  facet normal  -0.000000e+000  0.000000e+000  1.000000e+000
    outer loop
      vertex  3.308035e+000  9.576083e-001  1.500000e+000
      vertex  1.379262e+000  9.574502e-001  1.500000e+000
      vertex  3.568835e+000  7.874640e-001  1.500000e+000
    endloop
  endfacet
  facet normal  0.000000e+000  0.000000e+000  1.000000e+000
    outer loop
      vertex  3.568835e+000  7.874640e-001  1.500000e+000
      vertex  1.379262e+000  9.574502e-001  1.500000e+000
      vertex  2.693808e+000  8.000000e-001  1.500000e+000
    endloop
  endfacet
  facet normal  0.000000e+000  0.000000e+000  1.000000e+000
    outer loop
      vertex  3.568835e+000  7.874640e-001  1.500000e+000
      vertex  2.693808e+000  8.000000e-001  1.500000e+000
      vertex  2.981572e+000  7.619313e-001  1.500000e+000
    endloop
  endfacet
  facet normal  -0.000000e+000  0.000000e+000  1.000000e+000
    outer loop
      vertex  3.568835e+000  7.874640e-001  1.500000e+000
      vertex  2.981572e+000  7.619313e-001  1.500000e+000
      vertex  3.776828e+000  5.637611e-001  1.500000e+000
    endloop
  endfacet
  facet normal  0.000000e+000  0.000000e+000  1.000000e+000
    outer loop
      vertex  3.776828e+000  5.637611e-001  1.500000e+000
      vertex  2.981572e+000  7.619313e-001  1.500000e+000
      vertex  3.244992e+000  6.509456e-001  1.500000e+000
    endloop
  endfacet
  facet normal  0.000000e+000  0.000000e+000  1.000000e+000
    outer loop
      vertex  3.776828e+000  5.637611e-001  1.500000e+000
      vertex  3.244992e+000  6.509456e-001  1.500000e+000
      vertex  3.360475e+000  5.708204e-001  1.500000e+000
    endloop
  endfacet
  facet normal  0.000000e+000  0.000000e+000 -1.000000e+000
    outer loop
      vertex  1.040242e+000  1.710664e-001  0.000000e+000
      vertex  1.000000e+000  0.000000e+000  0.000000e+000
      vertex  0.000000e+000  0.000000e+000  0.000000e+000
    endloop
  endfacet
  facet normal  0.000000e+000  0.000000e+000 -1.000000e+000
    outer loop
      vertex  3.687616e+000 -5.784262e-015  0.000000e+000
      vertex  3.647374e+000  1.710664e-001  0.000000e+000
      vertex  4.687616e+000  2.220446e-017  0.000000e+000
    endloop
  endfacet
  facet normal  0.000000e+000  -0.000000e+000 -1.000000e+000
    outer loop
      vertex  7.681562e-001  3.000000e-001  0.000000e+000
      vertex  9.107214e-001  5.636682e-001  0.000000e+000
      vertex  1.327141e+000  5.708204e-001  0.000000e+000
    endloop
  endfacet
  facet normal  0.000000e+000  0.000000e+000 -1.000000e+000
    outer loop
      vertex  7.681562e-001  3.000000e-001  0.000000e+000
      vertex  1.327141e+000  5.708204e-001  0.000000e+000
      vertex  1.225833e+000  4.764320e-001  0.000000e+000
    endloop
  endfacet
  facet normal  0.000000e+000  0.000000e+000 -1.000000e+000
    outer loop
      vertex  7.681562e-001  3.000000e-001  0.000000e+000
      vertex  1.225833e+000  4.764320e-001  0.000000e+000
      vertex  1.116479e+000  3.319008e-001  0.000000e+000
    endloop
  endfacet
  facet normal  0.000000e+000  0.000000e+000 -1.000000e+000
    outer loop
      vertex  7.681562e-001  3.000000e-001  0.000000e+000
      vertex  1.116479e+000  3.319008e-001  0.000000e+000
      vertex  1.040242e+000  1.710664e-001  0.000000e+000
    endloop
  endfacet
  facet normal  -0.000000e+000  0.000000e+000 -1.000000e+000
    outer loop
      vertex  7.681562e-001  3.000000e-001  0.000000e+000
      vertex  1.040242e+000  1.710664e-001  0.000000e+000
      vertex  0.000000e+000  0.000000e+000  0.000000e+000
    endloop
  endfacet
  facet normal  0.000000e+000  0.000000e+000 -1.000000e+000
    outer loop
      vertex  7.681562e-001  3.000000e-001  0.000000e+000
      vertex  0.000000e+000  0.000000e+000  0.000000e+000
      vertex  0.000000e+000  3.000000e-001  0.000000e+000
    endloop
  endfacet
  facet normal  -0.000000e+000  -0.000000e+000 -1.000000e+000
    outer loop
      vertex  3.919460e+000  3.000000e-001  0.000000e+000
      vertex  4.687616e+000  3.000000e-001  0.000000e+000
      vertex  4.687616e+000  2.220446e-017  0.000000e+000
    endloop
  endfacet
  facet normal  0.000000e+000  0.000000e+000 -1.000000e+000
    outer loop
      vertex  3.919460e+000  3.000000e-001  0.000000e+000
      vertex  4.687616e+000  2.220446e-017  0.000000e+000
      vertex  3.647374e+000  1.710664e-001  0.000000e+000
    endloop
  endfacet
  facet normal  0.000000e+000  0.000000e+000 -1.000000e+000
    outer loop
      vertex  3.919460e+000  3.000000e-001  0.000000e+000
      vertex  3.647374e+000  1.710664e-001  0.000000e+000
      vertex  3.571137e+000  3.319008e-001  0.000000e+000
    endloop
  endfacet
  facet normal  0.000000e+000  0.000000e+000 -1.000000e+000
    outer loop
      vertex  3.919460e+000  3.000000e-001  0.000000e+000
      vertex  3.571137e+000  3.319008e-001  0.000000e+000
      vertex  3.461783e+000  4.764320e-001  0.000000e+000
    endloop
  endfacet
  facet normal  0.000000e+000  0.000000e+000 -9.999999e-001
    outer loop
      vertex  3.919460e+000  3.000000e-001  0.000000e+000
      vertex  3.461783e+000  4.764320e-001  0.000000e+000
      vertex  3.360475e+000  5.708204e-001  0.000000e+000
    endloop
  endfacet
  facet normal  0.000000e+000  0.000000e+000 -1.000000e+000
    outer loop
      vertex  3.919460e+000  3.000000e-001  0.000000e+000
      vertex  3.360475e+000  5.708204e-001  0.000000e+000
      vertex  3.776828e+000  5.637611e-001  0.000000e+000
    endloop
  endfacet
  facet normal  0.000000e+000  0.000000e+000 -9.999999e-001
    outer loop
      vertex  1.993808e+000  8.000000e-001  0.000000e+000
      vertex  1.706044e+000  7.619313e-001  0.000000e+000
      vertex  1.118602e+000  7.873139e-001  0.000000e+000
    endloop
  endfacet
  facet normal  0.000000e+000  0.000000e+000 -9.999999e-001
    outer loop
      vertex  1.993808e+000  8.000000e-001  0.000000e+000
      vertex  1.118602e+000  7.873139e-001  0.000000e+000
      vertex  1.379262e+000  9.574502e-001  0.000000e+000
    endloop
  endfacet
  facet normal  0.000000e+000  0.000000e+000 -1.000000e+000
    outer loop
      vertex  1.993808e+000  8.000000e-001  0.000000e+000
      vertex  1.379262e+000  9.574502e-001  0.000000e+000
      vertex  2.693808e+000  8.000000e-001  0.000000e+000
    endloop
  endfacet
  facet normal  0.000000e+000  0.000000e+000 -1.000000e+000
    outer loop
      vertex  1.327141e+000  5.708204e-001  0.000000e+000
      vertex  9.107214e-001  5.636682e-001  0.000000e+000
      vertex  1.442624e+000  6.509456e-001  0.000000e+000
    endloop
  endfacet
  facet normal  -0.000000e+000  0.000000e+000 -1.000000e+000
    outer loop
      vertex  1.442624e+000  6.509456e-001  0.000000e+000
      vertex  9.107214e-001  5.636682e-001  0.000000e+000
      vertex  1.118602e+000  7.873139e-001  0.000000e+000
    endloop
  endfacet
  facet normal  0.000000e+000  0.000000e+000 -1.000000e+000
    outer loop
      vertex  1.442624e+000  6.509456e-001  0.000000e+000
      vertex  1.118602e+000  7.873139e-001  0.000000e+000
      vertex  1.706044e+000  7.619313e-001  0.000000e+000
    endloop
  endfacet
  facet normal  0.000000e+000  0.000000e+000 -1.000000e+000
    outer loop
      vertex  2.981572e+000  7.619313e-001  0.000000e+000
      vertex  2.693808e+000  8.000000e-001  0.000000e+000
      vertex  3.568835e+000  7.874640e-001  0.000000e+000
    endloop
  endfacet
  facet normal  0.000000e+000  0.000000e+000 -1.000000e+000
    outer loop
      vertex  3.568835e+000  7.874640e-001  0.000000e+000
      vertex  2.693808e+000  8.000000e-001  0.000000e+000
      vertex  1.379262e+000  9.574502e-001  0.000000e+000
    endloop
  endfacet
  facet normal  0.000000e+000  0.000000e+000 -1.000000e+000
    outer loop
      vertex  3.568835e+000  7.874640e-001  0.000000e+000
      vertex  1.379262e+000  9.574502e-001  0.000000e+000
      vertex  3.308035e+000  9.576083e-001  0.000000e+000
    endloop
  endfacet
  facet normal  -0.000000e+000  0.000000e+000 -1.000000e+000
    outer loop
      vertex  3.308035e+000  9.576083e-001  0.000000e+000
      vertex  1.379262e+000  9.574502e-001  0.000000e+000
      vertex  1.676982e+000  1.063817e+000  0.000000e+000
    endloop
  endfacet
  facet normal  0.000000e+000  0.000000e+000 -1.000000e+000
    outer loop
      vertex  3.308035e+000  9.576083e-001  0.000000e+000
      vertex  1.676982e+000  1.063817e+000  0.000000e+000
      vertex  3.010165e+000  1.063926e+000  0.000000e+000
    endloop
  endfacet
  facet normal  -0.000000e+000  0.000000e+000 -1.000000e+000
    outer loop
      vertex  3.010165e+000  1.063926e+000  0.000000e+000
      vertex  1.676982e+000  1.063817e+000  0.000000e+000
      vertex  1.993808e+000  1.100000e+000  0.000000e+000
    endloop
  endfacet
  facet normal  0.000000e+000  0.000000e+000 -1.000000e+000
    outer loop
      vertex  3.010165e+000  1.063926e+000  0.000000e+000
      vertex  1.993808e+000  1.100000e+000  0.000000e+000
      vertex  2.693204e+000  1.100000e+000  0.000000e+000
    endloop
  endfacet
  facet normal  0.000000e+000  0.000000e+000 -1.000000e+000
    outer loop
      vertex  3.360475e+000  5.708204e-001  0.000000e+000
      vertex  3.244992e+000  6.509456e-001  0.000000e+000
      vertex  3.776828e+000  5.637611e-001  0.000000e+000
    endloop
  endfacet
  facet normal  0.000000e+000  0.000000e+000 -1.000000e+000
    outer loop
      vertex  3.776828e+000  5.637611e-001  0.000000e+000
      vertex  3.244992e+000  6.509456e-001  0.000000e+000
      vertex  2.981572e+000  7.619313e-001  0.000000e+000
    endloop
  endfacet
  facet normal  0.000000e+000  0.000000e+000 -1.000000e+000
    outer loop
      vertex  3.776828e+000  5.637611e-001  0.000000e+000
      vertex  2.981572e+000  7.619313e-001  0.000000e+000
      vertex  3.568835e+000  7.874640e-001  0.000000e+000
    endloop
  endfacet
  facet normal -1.000000e+000  0.000000e+000  0.000000e+000
    outer loop
      vertex  0.000000e+000  0.000000e+000  0.000000e+000
      vertex  0.000000e+000  0.000000e+000  1.500000e+000
      vertex  0.000000e+000  3.000000e-001  0.000000e+000
    endloop
  endfacet
  facet normal -1.000000e+000  0.000000e+000  0.000000e+000
    outer loop
      vertex  0.000000e+000  3.000000e-001  0.000000e+000
      vertex  0.000000e+000  0.000000e+000  1.500000e+000
      vertex  0.000000e+000  3.000000e-001  1.500000e+000
    endloop
  endfacet
  facet normal -8.796481e-001  4.756250e-001  0.000000e+000
    outer loop
      vertex  7.681562e-001  3.000000e-001  0.000000e+000
      vertex  7.681562e-001  3.000000e-001  1.500000e+000
      vertex  9.107214e-001  5.636682e-001  0.000000e+000
    endloop
  endfacet
  facet normal -8.796481e-001  4.756250e-001  0.000000e+000
    outer loop
      vertex  9.107214e-001  5.636682e-001  0.000000e+000
      vertex  7.681562e-001  3.000000e-001  1.500000e+000
      vertex  9.107214e-001  5.636682e-001  1.500000e+000
    endloop
  endfacet
  facet normal -7.324511e-001  6.808195e-001  0.000000e+000
    outer loop
      vertex  9.107214e-001  5.636682e-001  0.000000e+000
      vertex  9.107214e-001  5.636682e-001  1.500000e+000
      vertex  1.118602e+000  7.873139e-001  0.000000e+000
    endloop
  endfacet
  facet normal -7.324511e-001  6.808195e-001  0.000000e+000
    outer loop
      vertex  1.118602e+000  7.873139e-001  0.000000e+000
      vertex  9.107214e-001  5.636682e-001  1.500000e+000
      vertex  1.118602e+000  7.873139e-001  1.500000e+000
    endloop
  endfacet
  facet normal -5.465851e-001  8.374035e-001  0.000000e+000
    outer loop
      vertex  1.118602e+000  7.873139e-001  0.000000e+000
      vertex  1.118602e+000  7.873139e-001  1.500000e+000
      vertex  1.379262e+000  9.574502e-001  0.000000e+000
    endloop
  endfacet
  facet normal -5.465851e-001  8.374035e-001  0.000000e+000
    outer loop
      vertex  1.379262e+000  9.574502e-001  0.000000e+000
      vertex  1.118602e+000  7.873139e-001  1.500000e+000
      vertex  1.379262e+000  9.574502e-001  1.500000e+000
    endloop
  endfacet
  facet normal -3.364438e-001  9.417036e-001  0.000000e+000
    outer loop
      vertex  1.379262e+000  9.574502e-001  0.000000e+000
      vertex  1.379262e+000  9.574502e-001  1.500000e+000
      vertex  1.676982e+000  1.063817e+000  0.000000e+000
    endloop
  endfacet
  facet normal -3.364438e-001  9.417036e-001  0.000000e+000
    outer loop
      vertex  1.676982e+000  1.063817e+000  0.000000e+000
      vertex  1.379262e+000  9.574502e-001  1.500000e+000
      vertex  1.676982e+000  1.063817e+000  1.500000e+000
    endloop
  endfacet
  facet normal -1.134669e-001  9.935417e-001  0.000000e+000
    outer loop
      vertex  1.676982e+000  1.063817e+000  0.000000e+000
      vertex  1.676982e+000  1.063817e+000  1.500000e+000
      vertex  1.993808e+000  1.100000e+000  0.000000e+000
    endloop
  endfacet
  facet normal -1.134669e-001  9.935417e-001  0.000000e+000
    outer loop
      vertex  1.993808e+000  1.100000e+000  0.000000e+000
      vertex  1.676982e+000  1.063817e+000  1.500000e+000
      vertex  1.993808e+000  1.100000e+000  1.500000e+000
    endloop
  endfacet
  facet normal  1.363569e-007  1.000000e+000  0.000000e+000
    outer loop
      vertex  1.993808e+000  1.100000e+000  0.000000e+000
      vertex  1.993808e+000  1.100000e+000  1.500000e+000
      vertex  2.693204e+000  1.100000e+000  0.000000e+000
    endloop
  endfacet
  facet normal  1.363569e-007  1.000000e+000  -0.000000e+000
    outer loop
      vertex  2.693204e+000  1.100000e+000  0.000000e+000
      vertex  1.993808e+000  1.100000e+000  1.500000e+000
      vertex  2.693204e+000  1.100000e+000  1.500000e+000
    endloop
  endfacet
  facet normal  1.130827e-001  9.935855e-001  0.000000e+000
    outer loop
      vertex  2.693204e+000  1.100000e+000  0.000000e+000
      vertex  2.693204e+000  1.100000e+000  1.500000e+000
      vertex  3.010165e+000  1.063926e+000  0.000000e+000
    endloop
  endfacet
  facet normal  1.130827e-001  9.935855e-001  -0.000000e+000
    outer loop
      vertex  3.010165e+000  1.063926e+000  0.000000e+000
      vertex  2.693204e+000  1.100000e+000  1.500000e+000
      vertex  3.010165e+000  1.063926e+000  1.500000e+000
    endloop
  endfacet
  facet normal  3.361552e-001  9.418067e-001  0.000000e+000
    outer loop
      vertex  3.010165e+000  1.063926e+000  0.000000e+000
      vertex  3.010165e+000  1.063926e+000  1.500000e+000
      vertex  3.308035e+000  9.576083e-001  0.000000e+000
    endloop
  endfacet
  facet normal  3.361552e-001  9.418067e-001  -0.000000e+000
    outer loop
      vertex  3.308035e+000  9.576083e-001  0.000000e+000
      vertex  3.010165e+000  1.063926e+000  1.500000e+000
      vertex  3.308035e+000  9.576083e-001  1.500000e+000
    endloop
  endfacet
  facet normal  5.463963e-001  8.375269e-001  0.000000e+000
    outer loop
      vertex  3.308035e+000  9.576083e-001  0.000000e+000
      vertex  3.308035e+000  9.576083e-001  1.500000e+000
      vertex  3.568835e+000  7.874640e-001  0.000000e+000
    endloop
  endfacet
  facet normal  5.463963e-001  8.375269e-001  -0.000000e+000
    outer loop
      vertex  3.568835e+000  7.874640e-001  0.000000e+000
      vertex  3.308035e+000  9.576083e-001  1.500000e+000
      vertex  3.568835e+000  7.874640e-001  1.500000e+000
    endloop
  endfacet
  facet normal  7.323558e-001  6.809222e-001  0.000000e+000
    outer loop
      vertex  3.568835e+000  7.874640e-001  0.000000e+000
      vertex  3.568835e+000  7.874640e-001  1.500000e+000
      vertex  3.776828e+000  5.637611e-001  0.000000e+000
    endloop
  endfacet
  facet normal  7.323558e-001  6.809222e-001  -0.000000e+000
    outer loop
      vertex  3.776828e+000  5.637611e-001  0.000000e+000
      vertex  3.568835e+000  7.874640e-001  1.500000e+000
      vertex  3.776828e+000  5.637611e-001  1.500000e+000
    endloop
  endfacet
  facet normal  8.796246e-001  4.756686e-001  0.000000e+000
    outer loop
      vertex  3.776828e+000  5.637611e-001  0.000000e+000
      vertex  3.776828e+000  5.637611e-001  1.500000e+000
      vertex  3.919460e+000  3.000000e-001  0.000000e+000
    endloop
  endfacet
  facet normal  8.796246e-001  4.756686e-001  -0.000000e+000
    outer loop
      vertex  3.919460e+000  3.000000e-001  0.000000e+000
      vertex  3.776828e+000  5.637611e-001  1.500000e+000
      vertex  3.919460e+000  3.000000e-001  1.500000e+000
    endloop
  endfacet
  facet normal  1.000000e+000  0.000000e+000  0.000000e+000
    outer loop
      vertex  4.687616e+000  2.220446e-017  0.000000e+000
      vertex  4.687616e+000  3.000000e-001  0.000000e+000
      vertex  4.687616e+000  2.220446e-017  1.500000e+000
    endloop
  endfacet
  facet normal  1.000000e+000  -0.000000e+000  0.000000e+000
    outer loop
      vertex  4.687616e+000  2.220446e-017  1.500000e+000
      vertex  4.687616e+000  3.000000e-001  0.000000e+000
      vertex  4.687616e+000  3.000000e-001  1.500000e+000
    endloop
  endfacet
  facet normal -5.700530e-001 -8.216079e-001  -0.000000e+000
    outer loop
      vertex  3.360475e+000  5.708204e-001  0.000000e+000
      vertex  3.244992e+000  6.509456e-001  1.500000e+000
      vertex  3.244992e+000  6.509456e-001  0.000000e+000
    endloop
  endfacet
  facet normal -3.882711e-001 -9.215451e-001  0.000000e+000
    outer loop
      vertex  3.244992e+000  6.509456e-001  0.000000e+000
      vertex  3.244992e+000  6.509456e-001  1.500000e+000
      vertex  2.981572e+000  7.619313e-001  1.500000e+000
    endloop
  endfacet
  facet normal -3.882711e-001 -9.215451e-001  -0.000000e+000
    outer loop
      vertex  3.244992e+000  6.509456e-001  0.000000e+000
      vertex  2.981572e+000  7.619313e-001  1.500000e+000
      vertex  2.981572e+000  7.619313e-001  0.000000e+000
    endloop
  endfacet
  facet normal -1.311489e-001 -9.913626e-001  0.000000e+000
    outer loop
      vertex  2.981572e+000  7.619313e-001  0.000000e+000
      vertex  2.981572e+000  7.619313e-001  1.500000e+000
      vertex  2.693808e+000  8.000000e-001  1.500000e+000
    endloop
  endfacet
  facet normal -1.311489e-001 -9.913626e-001  -0.000000e+000
    outer loop
      vertex  2.981572e+000  7.619313e-001  0.000000e+000
      vertex  2.693808e+000  8.000000e-001  1.500000e+000
      vertex  2.693808e+000  8.000000e-001  0.000000e+000
    endloop
  endfacet
  facet normal -5.700530e-001 -8.216079e-001  0.000000e+000
    outer loop
      vertex  3.244992e+000  6.509456e-001  1.500000e+000
      vertex  3.360475e+000  5.708204e-001  0.000000e+000
      vertex  3.360475e+000  5.708204e-001  1.500000e+000
    endloop
  endfacet
  facet normal -6.816781e-001 -7.316523e-001  -0.000000e+000
    outer loop
      vertex  3.360475e+000  5.708204e-001  1.500000e+000
      vertex  3.360475e+000  5.708204e-001  0.000000e+000
      vertex  3.461783e+000  4.764320e-001  0.000000e+000
    endloop
  endfacet
  facet normal -6.816781e-001 -7.316523e-001  0.000000e+000
    outer loop
      vertex  3.360475e+000  5.708204e-001  1.500000e+000
      vertex  3.461783e+000  4.764320e-001  0.000000e+000
      vertex  3.461783e+000  4.764320e-001  1.500000e+000
    endloop
  endfacet
  facet normal -7.974619e-001 -6.033692e-001  -0.000000e+000
    outer loop
      vertex  3.461783e+000  4.764320e-001  1.500000e+000
      vertex  3.461783e+000  4.764320e-001  0.000000e+000
      vertex  3.571137e+000  3.319008e-001  0.000000e+000
    endloop
  endfacet
  facet normal -7.974619e-001 -6.033692e-001  0.000000e+000
    outer loop
      vertex  3.461783e+000  4.764320e-001  1.500000e+000
      vertex  3.571137e+000  3.319008e-001  0.000000e+000
      vertex  3.571137e+000  3.319008e-001  1.500000e+000
    endloop
  endfacet
  facet normal -9.036247e-001 -4.283251e-001  -0.000000e+000
    outer loop
      vertex  3.571137e+000  3.319008e-001  1.500000e+000
      vertex  3.571137e+000  3.319008e-001  0.000000e+000
      vertex  3.647374e+000  1.710664e-001  0.000000e+000
    endloop
  endfacet
  facet normal -9.036247e-001 -4.283251e-001  0.000000e+000
    outer loop
      vertex  3.571137e+000  3.319008e-001  1.500000e+000
      vertex  3.647374e+000  1.710664e-001  0.000000e+000
      vertex  3.647374e+000  1.710664e-001  1.500000e+000
    endloop
  endfacet
  facet normal -9.734280e-001 -2.289933e-001  -0.000000e+000
    outer loop
      vertex  3.647374e+000  1.710664e-001  1.500000e+000
      vertex  3.647374e+000  1.710664e-001  0.000000e+000
      vertex  3.687616e+000 -5.784262e-015  0.000000e+000
    endloop
  endfacet
  facet normal -9.734280e-001 -2.289933e-001  0.000000e+000
    outer loop
      vertex  3.647374e+000  1.710664e-001  1.500000e+000
      vertex  3.687616e+000 -5.784262e-015  0.000000e+000
      vertex  3.687616e+000 -5.784262e-015  1.500000e+000
    endloop
  endfacet
  facet normal  0.000000e+000 -1.000000e+000  0.000000e+000
    outer loop
      vertex  1.993808e+000  8.000000e-001  0.000000e+000
      vertex  2.693808e+000  8.000000e-001  0.000000e+000
      vertex  1.993808e+000  8.000000e-001  1.500000e+000
    endloop
  endfacet
  facet normal  0.000000e+000 -1.000000e+000  0.000000e+000
    outer loop
      vertex  1.993808e+000  8.000000e-001  1.500000e+000
      vertex  2.693808e+000  8.000000e-001  0.000000e+000
      vertex  2.693808e+000  8.000000e-001  1.500000e+000
    endloop
  endfacet
  facet normal  7.974622e-001 -6.033689e-001  0.000000e+000
    outer loop
      vertex  1.225833e+000  4.764320e-001  0.000000e+000
      vertex  1.116479e+000  3.319008e-001  1.500000e+000
      vertex  1.116479e+000  3.319008e-001  0.000000e+000
    endloop
  endfacet
  facet normal  9.036244e-001 -4.283260e-001  0.000000e+000
    outer loop
      vertex  1.116479e+000  3.319008e-001  0.000000e+000
      vertex  1.116479e+000  3.319008e-001  1.500000e+000
      vertex  1.040242e+000  1.710664e-001  1.500000e+000
    endloop
  endfacet
  facet normal  9.036244e-001 -4.283260e-001  0.000000e+000
    outer loop
      vertex  1.116479e+000  3.319008e-001  0.000000e+000
      vertex  1.040242e+000  1.710664e-001  1.500000e+000
      vertex  1.040242e+000  1.710664e-001  0.000000e+000
    endloop
  endfacet
  facet normal  9.734282e-001 -2.289928e-001  0.000000e+000
    outer loop
      vertex  1.040242e+000  1.710664e-001  0.000000e+000
      vertex  1.040242e+000  1.710664e-001  1.500000e+000
      vertex  1.000000e+000  0.000000e+000  1.500000e+000
    endloop
  endfacet
  facet normal  9.734282e-001 -2.289928e-001  0.000000e+000
    outer loop
      vertex  1.040242e+000  1.710664e-001  0.000000e+000
      vertex  1.000000e+000  0.000000e+000  1.500000e+000
      vertex  1.000000e+000  0.000000e+000  0.000000e+000
    endloop
  endfacet
  facet normal  7.974622e-001 -6.033689e-001  0.000000e+000
    outer loop
      vertex  1.116479e+000  3.319008e-001  1.500000e+000
      vertex  1.225833e+000  4.764320e-001  0.000000e+000
      vertex  1.225833e+000  4.764320e-001  1.500000e+000
    endloop
  endfacet
  facet normal  6.816777e-001 -7.316526e-001  0.000000e+000
    outer loop
      vertex  1.225833e+000  4.764320e-001  1.500000e+000
      vertex  1.225833e+000  4.764320e-001  0.000000e+000
      vertex  1.327141e+000  5.708204e-001  0.000000e+000
    endloop
  endfacet
  facet normal  6.816777e-001 -7.316526e-001  0.000000e+000
    outer loop
      vertex  1.225833e+000  4.764320e-001  1.500000e+000
      vertex  1.327141e+000  5.708204e-001  0.000000e+000
      vertex  1.327141e+000  5.708204e-001  1.500000e+000
    endloop
  endfacet
  facet normal  5.700530e-001 -8.216079e-001  0.000000e+000
    outer loop
      vertex  1.327141e+000  5.708204e-001  1.500000e+000
      vertex  1.327141e+000  5.708204e-001  0.000000e+000
      vertex  1.442624e+000  6.509456e-001  0.000000e+000
    endloop
  endfacet
  facet normal  5.700530e-001 -8.216079e-001  0.000000e+000
    outer loop
      vertex  1.327141e+000  5.708204e-001  1.500000e+000
      vertex  1.442624e+000  6.509456e-001  0.000000e+000
      vertex  1.442624e+000  6.509456e-001  1.500000e+000
    endloop
  endfacet
  facet normal  3.882712e-001 -9.215451e-001  0.000000e+000
    outer loop
      vertex  1.442624e+000  6.509456e-001  1.500000e+000
      vertex  1.442624e+000  6.509456e-001  0.000000e+000
      vertex  1.706044e+000  7.619313e-001  0.000000e+000
    endloop
  endfacet
  facet normal  3.882712e-001 -9.215451e-001  0.000000e+000
    outer loop
      vertex  1.442624e+000  6.509456e-001  1.500000e+000
      vertex  1.706044e+000  7.619313e-001  0.000000e+000
      vertex  1.706044e+000  7.619313e-001  1.500000e+000
    endloop
  endfacet
  facet normal  1.311489e-001 -9.913626e-001  0.000000e+000
    outer loop
      vertex  1.706044e+000  7.619313e-001  1.500000e+000
      vertex  1.706044e+000  7.619313e-001  0.000000e+000
      vertex  1.993808e+000  8.000000e-001  0.000000e+000
    endloop
  endfacet
  facet normal  1.311489e-001 -9.913626e-001  0.000000e+000
    outer loop
      vertex  1.706044e+000  7.619313e-001  1.500000e+000
      vertex  1.993808e+000  8.000000e-001  0.000000e+000
      vertex  1.993808e+000  8.000000e-001  1.500000e+000
    endloop
  endfacet
endsolid CATIA STL
