solid CATIA STL
  facet normal  0.000000e+000 -1.000000e+000  0.000000e+000
    outer loop
      vertex  1.000000e-001 -5.500000e+000  0.000000e+000
      vertex  6.000000e-001 -5.500000e+000  0.000000e+000
      vertex  1.000000e-001 -5.500000e+000  2.000000e+000
    endloop
  endfacet
  facet normal  0.000000e+000 -1.000000e+000  0.000000e+000
    outer loop
      vertex  1.000000e-001 -5.500000e+000  2.000000e+000
      vertex  6.000000e-001 -5.500000e+000  0.000000e+000
      vertex  6.000000e-001 -5.500000e+000  2.000000e+000
    endloop
  endfacet
  facet normal -9.995359e-001  3.046647e-002  0.000000e+000
    outer loop
      vertex  1.933612e+000 -2.202283e+000  0.000000e+000
      vertex  1.945387e+000 -1.815952e+000  2.000000e+000
      vertex  1.945387e+000 -1.815952e+000  0.000000e+000
    endloop
  endfacet
  facet normal -9.859104e-001 -1.672745e-001  0.000000e+000
    outer loop
      vertex  1.945387e+000 -1.815952e+000  0.000000e+000
      vertex  1.945387e+000 -1.815952e+000  2.000000e+000
      vertex  1.880734e+000 -1.434888e+000  2.000000e+000
    endloop
  endfacet
  facet normal -9.859104e-001 -1.672745e-001  -0.000000e+000
    outer loop
      vertex  1.945387e+000 -1.815952e+000  0.000000e+000
      vertex  1.880734e+000 -1.434888e+000  2.000000e+000
      vertex  1.880734e+000 -1.434888e+000  0.000000e+000
    endloop
  endfacet
  facet normal -9.335511e-001 -3.584441e-001  0.000000e+000
    outer loop
      vertex  1.880734e+000 -1.434888e+000  0.000000e+000
      vertex  1.880734e+000 -1.434888e+000  2.000000e+000
      vertex  1.742192e+000 -1.074062e+000  2.000000e+000
    endloop
  endfacet
  facet normal -9.335511e-001 -3.584441e-001  -0.000000e+000
    outer loop
      vertex  1.880734e+000 -1.434888e+000  0.000000e+000
      vertex  1.742192e+000 -1.074062e+000  2.000000e+000
      vertex  1.742192e+000 -1.074062e+000  0.000000e+000
    endloop
  endfacet
  facet normal -8.445154e-001 -5.355313e-001  0.000000e+000
    outer loop
      vertex  1.742192e+000 -1.074062e+000  0.000000e+000
      vertex  1.742192e+000 -1.074062e+000  2.000000e+000
      vertex  1.535204e+000 -7.476483e-001  2.000000e+000
    endloop
  endfacet
  facet normal -8.445154e-001 -5.355313e-001  -0.000000e+000
    outer loop
      vertex  1.742192e+000 -1.074062e+000  0.000000e+000
      vertex  1.535204e+000 -7.476483e-001  2.000000e+000
      vertex  1.535204e+000 -7.476483e-001  0.000000e+000
    endloop
  endfacet
  facet normal -7.223009e-001 -6.915789e-001  0.000000e+000
    outer loop
      vertex  1.535204e+000 -7.476483e-001  0.000000e+000
      vertex  1.535204e+000 -7.476483e-001  2.000000e+000
      vertex  1.267902e+000 -4.684719e-001  2.000000e+000
    endloop
  endfacet
  facet normal -7.223009e-001 -6.915789e-001  -0.000000e+000
    outer loop
      vertex  1.535204e+000 -7.476483e-001  0.000000e+000
      vertex  1.267902e+000 -4.684719e-001  2.000000e+000
      vertex  1.267902e+000 -4.684719e-001  0.000000e+000
    endloop
  endfacet
  facet normal -5.717092e-001 -8.204564e-001  0.000000e+000
    outer loop
      vertex  1.267902e+000 -4.684719e-001  0.000000e+000
      vertex  1.267902e+000 -4.684719e-001  2.000000e+000
      vertex  9.507872e-001 -2.475008e-001  2.000000e+000
    endloop
  endfacet
  facet normal -5.717092e-001 -8.204564e-001  -0.000000e+000
    outer loop
      vertex  1.267902e+000 -4.684719e-001  0.000000e+000
      vertex  9.507872e-001 -2.475008e-001  2.000000e+000
      vertex  9.507872e-001 -2.475008e-001  0.000000e+000
    endloop
  endfacet
  facet normal -9.995359e-001  3.046647e-002  0.000000e+000
    outer loop
      vertex  1.945387e+000 -1.815952e+000  2.000000e+000
      vertex  1.933612e+000 -2.202283e+000  0.000000e+000
      vertex  1.933612e+000 -2.202283e+000  2.000000e+000
    endloop
  endfacet
  facet normal -9.738922e-001  2.270112e-001  0.000000e+000
    outer loop
      vertex  1.933612e+000 -2.202283e+000  2.000000e+000
      vertex  1.933612e+000 -2.202283e+000  0.000000e+000
      vertex  1.845869e+000 -2.578702e+000  0.000000e+000
    endloop
  endfacet
  facet normal -9.738922e-001  2.270112e-001  0.000000e+000
    outer loop
      vertex  1.933612e+000 -2.202283e+000  2.000000e+000
      vertex  1.845869e+000 -2.578702e+000  0.000000e+000
      vertex  1.845869e+000 -2.578702e+000  2.000000e+000
    endloop
  endfacet
  facet normal -9.099872e-001  4.146363e-001  0.000000e+000
    outer loop
      vertex  1.845869e+000 -2.578702e+000  2.000000e+000
      vertex  1.845869e+000 -2.578702e+000  0.000000e+000
      vertex  1.685609e+000 -2.930421e+000  0.000000e+000
    endloop
  endfacet
  facet normal -9.099872e-001  4.146363e-001  0.000000e+000
    outer loop
      vertex  1.845869e+000 -2.578702e+000  2.000000e+000
      vertex  1.685609e+000 -2.930421e+000  0.000000e+000
      vertex  1.685609e+000 -2.930421e+000  2.000000e+000
    endloop
  endfacet
  facet normal -8.103310e-001  5.859723e-001  0.000000e+000
    outer loop
      vertex  1.685609e+000 -2.930421e+000  2.000000e+000
      vertex  1.685609e+000 -2.930421e+000  0.000000e+000
      vertex  1.459124e+000 -3.243622e+000  0.000000e+000
    endloop
  endfacet
  facet normal -8.103310e-001  5.859723e-001  0.000000e+000
    outer loop
      vertex  1.685609e+000 -2.930421e+000  2.000000e+000
      vertex  1.459124e+000 -3.243622e+000  0.000000e+000
      vertex  1.459124e+000 -3.243622e+000  2.000000e+000
    endloop
  endfacet
  facet normal -6.788391e-001  7.342870e-001  0.000000e+000
    outer loop
      vertex  1.459124e+000 -3.243622e+000  2.000000e+000
      vertex  1.459124e+000 -3.243622e+000  0.000000e+000
      vertex  1.175315e+000 -3.505999e+000  0.000000e+000
    endloop
  endfacet
  facet normal -6.788391e-001  7.342870e-001  0.000000e+000
    outer loop
      vertex  1.459124e+000 -3.243622e+000  2.000000e+000
      vertex  1.175315e+000 -3.505999e+000  0.000000e+000
      vertex  1.175315e+000 -3.505999e+000  2.000000e+000
    endloop
  endfacet
  facet normal -5.206777e-001  8.537533e-001  0.000000e+000
    outer loop
      vertex  1.175315e+000 -3.505999e+000  2.000000e+000
      vertex  1.175315e+000 -3.505999e+000  0.000000e+000
      vertex  8.453313e-001 -3.707247e+000  0.000000e+000
    endloop
  endfacet
  facet normal -5.206777e-001  8.537533e-001  0.000000e+000
    outer loop
      vertex  1.175315e+000 -3.505999e+000  2.000000e+000
      vertex  8.453313e-001 -3.707247e+000  0.000000e+000
      vertex  8.453313e-001 -3.707247e+000  2.000000e+000
    endloop
  endfacet
  facet normal -3.420606e-001  9.396779e-001  0.000000e+000
    outer loop
      vertex  8.453313e-001 -3.707247e+000  2.000000e+000
      vertex  8.453313e-001 -3.707247e+000  0.000000e+000
      vertex  4.821365e-001 -3.839456e+000  0.000000e+000
    endloop
  endfacet
  facet normal -3.420606e-001  9.396779e-001  0.000000e+000
    outer loop
      vertex  8.453313e-001 -3.707247e+000  2.000000e+000
      vertex  4.821365e-001 -3.839456e+000  0.000000e+000
      vertex  4.821365e-001 -3.839456e+000  2.000000e+000
    endloop
  endfacet
  facet normal -1.500041e-001  9.886854e-001  0.000000e+000
    outer loop
      vertex  4.821365e-001 -3.839456e+000  2.000000e+000
      vertex  4.821365e-001 -3.839456e+000  0.000000e+000
      vertex  1.000000e-001 -3.897434e+000  0.000000e+000
    endloop
  endfacet
  facet normal -1.500041e-001  9.886854e-001  0.000000e+000
    outer loop
      vertex  4.821365e-001 -3.839456e+000  2.000000e+000
      vertex  1.000000e-001 -3.897434e+000  0.000000e+000
      vertex  1.000000e-001 -3.897434e+000  2.000000e+000
    endloop
  endfacet
  facet normal  -0.000000e+000  5.877852e-001  8.090169e-001
    outer loop
      vertex  6.000000e-001 -5.061803e+000  8.097887e-001
      vertex  1.000000e-001 -5.161804e+000  8.824430e-001
      vertex  6.000000e-001 -5.161804e+000  8.824430e-001
    endloop
  endfacet
  facet normal  0.000000e+000  9.510565e-001  3.090167e-001
    outer loop
      vertex  6.000000e-001 -5.161804e+000  8.824430e-001
      vertex  1.000000e-001 -5.161804e+000  8.824430e-001
      vertex  1.000000e-001 -5.200000e+000  1.000000e+000
    endloop
  endfacet
  facet normal  -0.000000e+000  9.510565e-001  3.090167e-001
    outer loop
      vertex  6.000000e-001 -5.161804e+000  8.824430e-001
      vertex  1.000000e-001 -5.200000e+000  1.000000e+000
      vertex  6.000000e-001 -5.200000e+000  1.000000e+000
    endloop
  endfacet
  facet normal  0.000000e+000  5.877852e-001  8.090169e-001
    outer loop
      vertex  1.000000e-001 -5.161804e+000  8.824430e-001
      vertex  6.000000e-001 -5.061803e+000  8.097887e-001
      vertex  1.000000e-001 -5.061803e+000  8.097887e-001
    endloop
  endfacet
  facet normal  0.000000e+000  0.000000e+000  1.000000e+000
    outer loop
      vertex  1.000000e-001 -5.061803e+000  8.097887e-001
      vertex  6.000000e-001 -5.061803e+000  8.097887e-001
      vertex  6.000000e-001 -4.938197e+000  8.097887e-001
    endloop
  endfacet
  facet normal  0.000000e+000  0.000000e+000  1.000000e+000
    outer loop
      vertex  1.000000e-001 -5.061803e+000  8.097887e-001
      vertex  6.000000e-001 -4.938197e+000  8.097887e-001
      vertex  1.000000e-001 -4.938197e+000  8.097887e-001
    endloop
  endfacet
  facet normal  0.000000e+000 -5.877852e-001  8.090169e-001
    outer loop
      vertex  1.000000e-001 -4.938197e+000  8.097887e-001
      vertex  6.000000e-001 -4.938197e+000  8.097887e-001
      vertex  6.000000e-001 -4.838197e+000  8.824430e-001
    endloop
  endfacet
  facet normal  0.000000e+000 -5.877852e-001  8.090169e-001
    outer loop
      vertex  1.000000e-001 -4.938197e+000  8.097887e-001
      vertex  6.000000e-001 -4.838197e+000  8.824430e-001
      vertex  1.000000e-001 -4.838197e+000  8.824430e-001
    endloop
  endfacet
  facet normal  0.000000e+000 -9.510565e-001  3.090167e-001
    outer loop
      vertex  1.000000e-001 -4.838197e+000  8.824430e-001
      vertex  6.000000e-001 -4.838197e+000  8.824430e-001
      vertex  6.000000e-001 -4.800000e+000  1.000000e+000
    endloop
  endfacet
  facet normal  0.000000e+000 -9.510565e-001  3.090167e-001
    outer loop
      vertex  1.000000e-001 -4.838197e+000  8.824430e-001
      vertex  6.000000e-001 -4.800000e+000  1.000000e+000
      vertex  1.000000e-001 -4.800000e+000  1.000000e+000
    endloop
  endfacet
  facet normal  0.000000e+000 -5.877852e-001 -8.090169e-001
    outer loop
      vertex  6.000000e-001 -4.938197e+000  1.190211e+000
      vertex  1.000000e-001 -4.838197e+000  1.117557e+000
      vertex  6.000000e-001 -4.838197e+000  1.117557e+000
    endloop
  endfacet
  facet normal  -0.000000e+000 -9.510565e-001 -3.090167e-001
    outer loop
      vertex  6.000000e-001 -4.838197e+000  1.117557e+000
      vertex  1.000000e-001 -4.838197e+000  1.117557e+000
      vertex  1.000000e-001 -4.800000e+000  1.000000e+000
    endloop
  endfacet
  facet normal  0.000000e+000 -9.510565e-001 -3.090167e-001
    outer loop
      vertex  6.000000e-001 -4.838197e+000  1.117557e+000
      vertex  1.000000e-001 -4.800000e+000  1.000000e+000
      vertex  6.000000e-001 -4.800000e+000  1.000000e+000
    endloop
  endfacet
  facet normal  -0.000000e+000 -5.877852e-001 -8.090169e-001
    outer loop
      vertex  1.000000e-001 -4.838197e+000  1.117557e+000
      vertex  6.000000e-001 -4.938197e+000  1.190211e+000
      vertex  1.000000e-001 -4.938197e+000  1.190211e+000
    endloop
  endfacet
  facet normal  0.000000e+000  0.000000e+000 -1.000000e+000
    outer loop
      vertex  1.000000e-001 -4.938197e+000  1.190211e+000
      vertex  6.000000e-001 -4.938197e+000  1.190211e+000
      vertex  6.000000e-001 -5.061803e+000  1.190211e+000
    endloop
  endfacet
  facet normal  0.000000e+000  0.000000e+000 -1.000000e+000
    outer loop
      vertex  1.000000e-001 -4.938197e+000  1.190211e+000
      vertex  6.000000e-001 -5.061803e+000  1.190211e+000
      vertex  1.000000e-001 -5.061803e+000  1.190211e+000
    endloop
  endfacet
  facet normal  0.000000e+000  5.877852e-001 -8.090169e-001
    outer loop
      vertex  1.000000e-001 -5.061803e+000  1.190211e+000
      vertex  6.000000e-001 -5.061803e+000  1.190211e+000
      vertex  6.000000e-001 -5.161804e+000  1.117557e+000
    endloop
  endfacet
  facet normal  0.000000e+000  5.877852e-001 -8.090169e-001
    outer loop
      vertex  1.000000e-001 -5.061803e+000  1.190211e+000
      vertex  6.000000e-001 -5.161804e+000  1.117557e+000
      vertex  1.000000e-001 -5.161804e+000  1.117557e+000
    endloop
  endfacet
  facet normal  0.000000e+000  9.510565e-001 -3.090167e-001
    outer loop
      vertex  1.000000e-001 -5.161804e+000  1.117557e+000
      vertex  6.000000e-001 -5.161804e+000  1.117557e+000
      vertex  6.000000e-001 -5.200000e+000  1.000000e+000
    endloop
  endfacet
  facet normal  0.000000e+000  9.510565e-001 -3.090167e-001
    outer loop
      vertex  1.000000e-001 -5.161804e+000  1.117557e+000
      vertex  6.000000e-001 -5.200000e+000  1.000000e+000
      vertex  1.000000e-001 -5.200000e+000  1.000000e+000
    endloop
  endfacet
  facet normal  -0.000000e+000  0.000000e+000  1.000000e+000
    outer loop
      vertex  7.133349e-001  4.718061e-001  2.000000e+000
      vertex  2.326978e-001 -1.393395e-002  2.000000e+000
      vertex  4.620700e-001 -5.553668e-002  2.000000e+000
    endloop
  endfacet
  facet normal  -0.000000e+000  -0.000000e+000  9.999999e-001
    outer loop
      vertex  9.507872e-001 -2.475008e-001  2.000000e+000
      vertex  1.267902e+000 -4.684719e-001  2.000000e+000
      vertex  1.879885e+000 -5.398468e-001  2.000000e+000
    endloop
  endfacet
  facet normal  0.000000e+000  0.000000e+000  1.000000e+000
    outer loop
      vertex  9.507872e-001 -2.475008e-001  2.000000e+000
      vertex  1.879885e+000 -5.398468e-001  2.000000e+000
      vertex  1.595335e+000 -2.244840e-001  2.000000e+000
    endloop
  endfacet
  facet normal  0.000000e+000  0.000000e+000  1.000000e+000
    outer loop
      vertex  9.507872e-001 -2.475008e-001  2.000000e+000
      vertex  1.595335e+000 -2.244840e-001  2.000000e+000
      vertex  1.469417e+000 -6.376670e-002  2.000000e+000
    endloop
  endfacet
  facet normal  0.000000e+000  0.000000e+000  1.000000e+000
    outer loop
      vertex  9.507872e-001 -2.475008e-001  2.000000e+000
      vertex  1.469417e+000 -6.376670e-002  2.000000e+000
      vertex  1.400446e+000  1.284013e-001  2.000000e+000
    endloop
  endfacet
  facet normal  0.000000e+000  0.000000e+000  1.000000e+000
    outer loop
      vertex  9.507872e-001 -2.475008e-001  2.000000e+000
      vertex  1.400446e+000  1.284013e-001  2.000000e+000
      vertex  1.395424e+000  3.325100e-001  2.000000e+000
    endloop
  endfacet
  facet normal  0.000000e+000  0.000000e+000  1.000000e+000
    outer loop
      vertex  9.507872e-001 -2.475008e-001  2.000000e+000
      vertex  1.395424e+000  3.325100e-001  2.000000e+000
      vertex  1.086665e+000  3.281939e-001  2.000000e+000
    endloop
  endfacet
  facet normal  0.000000e+000  -0.000000e+000  1.000000e+000
    outer loop
      vertex  0.000000e+000  0.000000e+000  2.000000e+000
      vertex  2.326978e-001 -1.393395e-002  2.000000e+000
      vertex  7.133349e-001  4.718061e-001  2.000000e+000
    endloop
  endfacet
  facet normal  0.000000e+000  -0.000000e+000  9.999999e-001
    outer loop
      vertex  0.000000e+000  0.000000e+000  2.000000e+000
      vertex  7.133349e-001  4.718061e-001  2.000000e+000
      vertex  7.911913e-001  5.678114e-001  2.000000e+000
    endloop
  endfacet
  facet normal  0.000000e+000  -0.000000e+000  1.000000e+000
    outer loop
      vertex  0.000000e+000  0.000000e+000  2.000000e+000
      vertex  7.911913e-001  5.678114e-001  2.000000e+000
      vertex  1.090683e+000  8.622121e-001  2.000000e+000
    endloop
  endfacet
  facet normal  0.000000e+000  0.000000e+000  1.000000e+000
    outer loop
      vertex  0.000000e+000  0.000000e+000  2.000000e+000
      vertex  1.090683e+000  8.622121e-001  2.000000e+000
      vertex  9.312519e-001  8.990224e-001  2.000000e+000
    endloop
  endfacet
  facet normal  0.000000e+000  0.000000e+000  1.000000e+000
    outer loop
      vertex  0.000000e+000  0.000000e+000  2.000000e+000
      vertex  9.312519e-001  8.990224e-001  2.000000e+000
      vertex  7.893022e-001  9.451057e-001  2.000000e+000
    endloop
  endfacet
  facet normal  0.000000e+000  0.000000e+000  1.000000e+000
    outer loop
      vertex  0.000000e+000  0.000000e+000  2.000000e+000
      vertex  7.893022e-001  9.451057e-001  2.000000e+000
      vertex  6.871223e-001  1.053884e+000  2.000000e+000
    endloop
  endfacet
  facet normal  0.000000e+000  0.000000e+000  1.000000e+000
    outer loop
      vertex  0.000000e+000  0.000000e+000  2.000000e+000
      vertex  6.871223e-001  1.053884e+000  2.000000e+000
      vertex  6.500000e-001  1.198436e+000  2.000000e+000
    endloop
  endfacet
  facet normal  0.000000e+000  0.000000e+000  1.000000e+000
    outer loop
      vertex  0.000000e+000  0.000000e+000  2.000000e+000
      vertex  6.500000e-001  1.198436e+000  2.000000e+000
      vertex  0.000000e+000  1.940000e+000  2.000000e+000
    endloop
  endfacet
  facet normal  0.000000e+000  0.000000e+000  1.000000e+000
    outer loop
      vertex  1.000000e-001 -3.897434e+000  2.000000e+000
      vertex  1.000000e-001 -5.500000e+000  2.000000e+000
      vertex  6.000000e-001 -5.500000e+000  2.000000e+000
    endloop
  endfacet
  facet normal  0.000000e+000  -0.000000e+000  1.000000e+000
    outer loop
      vertex  1.000000e-001 -3.897434e+000  2.000000e+000
      vertex  6.000000e-001 -5.500000e+000  2.000000e+000
      vertex  6.000000e-001 -4.602560e+000  2.000000e+000
    endloop
  endfacet
  facet normal  0.000000e+000  -0.000000e+000  1.000000e+000
    outer loop
      vertex  1.000000e-001 -3.897434e+000  2.000000e+000
      vertex  6.000000e-001 -4.602560e+000  2.000000e+000
      vertex  6.225975e-001 -4.448669e+000  2.000000e+000
    endloop
  endfacet
  facet normal  0.000000e+000  -0.000000e+000  1.000000e+000
    outer loop
      vertex  1.000000e-001 -3.897434e+000  2.000000e+000
      vertex  6.225975e-001 -4.448669e+000  2.000000e+000
      vertex  6.884820e-001 -4.307770e+000  2.000000e+000
    endloop
  endfacet
  facet normal  0.000000e+000  -0.000000e+000  1.000000e+000
    outer loop
      vertex  1.000000e-001 -3.897434e+000  2.000000e+000
      vertex  6.884820e-001 -4.307770e+000  2.000000e+000
      vertex  7.920911e-001 -4.191761e+000  2.000000e+000
    endloop
  endfacet
  facet normal  0.000000e+000  -0.000000e+000  1.000000e+000
    outer loop
      vertex  1.000000e-001 -3.897434e+000  2.000000e+000
      vertex  7.920911e-001 -4.191761e+000  2.000000e+000
      vertex  9.246773e-001 -4.110433e+000  2.000000e+000
    endloop
  endfacet
  facet normal  0.000000e+000  -0.000000e+000  1.000000e+000
    outer loop
      vertex  1.000000e-001 -3.897434e+000  2.000000e+000
      vertex  9.246773e-001 -4.110433e+000  2.000000e+000
      vertex  1.298472e+000 -3.908691e+000  2.000000e+000
    endloop
  endfacet
  facet normal  0.000000e+000  0.000000e+000  1.000000e+000
    outer loop
      vertex  1.000000e-001 -3.897434e+000  2.000000e+000
      vertex  1.298472e+000 -3.908691e+000  2.000000e+000
      vertex  4.821365e-001 -3.839456e+000  2.000000e+000
    endloop
  endfacet
  facet normal  -0.000000e+000  0.000000e+000  1.000000e+000
    outer loop
      vertex  6.500000e-001  3.564824e+000  2.000000e+000
      vertex  3.500000e-001  3.564824e+000  2.000000e+000
      vertex  6.500000e-001  1.198436e+000  2.000000e+000
    endloop
  endfacet
  facet normal  0.000000e+000  0.000000e+000  1.000000e+000
    outer loop
      vertex  6.500000e-001  1.198436e+000  2.000000e+000
      vertex  3.500000e-001  3.564824e+000  2.000000e+000
      vertex  3.500000e-001  1.940000e+000  2.000000e+000
    endloop
  endfacet
  facet normal  0.000000e+000  0.000000e+000  1.000000e+000
    outer loop
      vertex  6.500000e-001  1.198436e+000  2.000000e+000
      vertex  3.500000e-001  1.940000e+000  2.000000e+000
      vertex  0.000000e+000  1.940000e+000  2.000000e+000
    endloop
  endfacet
  facet normal  0.000000e+000  0.000000e+000  1.000000e+000
    outer loop
      vertex  1.090683e+000  8.622121e-001  2.000000e+000
      vertex  7.911913e-001  5.678114e-001  2.000000e+000
      vertex  1.229693e+000  7.759020e-001  2.000000e+000
    endloop
  endfacet
  facet normal  0.000000e+000  0.000000e+000  1.000000e+000
    outer loop
      vertex  1.229693e+000  7.759020e-001  2.000000e+000
      vertex  7.911913e-001  5.678114e-001  2.000000e+000
      vertex  9.106089e-001  5.997185e-001  2.000000e+000
    endloop
  endfacet
  facet normal  0.000000e+000  0.000000e+000  1.000000e+000
    outer loop
      vertex  1.229693e+000  7.759020e-001  2.000000e+000
      vertex  9.106089e-001  5.997185e-001  2.000000e+000
      vertex  1.333396e+000  6.493354e-001  2.000000e+000
    endloop
  endfacet
  facet normal  -0.000000e+000  0.000000e+000  1.000000e+000
    outer loop
      vertex  1.333396e+000  6.493354e-001  2.000000e+000
      vertex  9.106089e-001  5.997185e-001  2.000000e+000
      vertex  1.390684e+000  4.960667e-001  2.000000e+000
    endloop
  endfacet
  facet normal  0.000000e+000  0.000000e+000  1.000000e+000
    outer loop
      vertex  1.390684e+000  4.960667e-001  2.000000e+000
      vertex  9.106089e-001  5.997185e-001  2.000000e+000
      vertex  1.025974e+000  5.553398e-001  2.000000e+000
    endloop
  endfacet
  facet normal  0.000000e+000  0.000000e+000  1.000000e+000
    outer loop
      vertex  1.390684e+000  4.960667e-001  2.000000e+000
      vertex  1.025974e+000  5.553398e-001  2.000000e+000
      vertex  1.093222e+000  4.516266e-001  2.000000e+000
    endloop
  endfacet
  facet normal  0.000000e+000  0.000000e+000  1.000000e+000
    outer loop
      vertex  1.093222e+000  4.516266e-001  2.000000e+000
      vertex  1.086665e+000  3.281939e-001  2.000000e+000
      vertex  1.390684e+000  4.960667e-001  2.000000e+000
    endloop
  endfacet
  facet normal  0.000000e+000  0.000000e+000  9.999999e-001
    outer loop
      vertex  1.390684e+000  4.960667e-001  2.000000e+000
      vertex  1.086665e+000  3.281939e-001  2.000000e+000
      vertex  1.395424e+000  3.325100e-001  2.000000e+000
    endloop
  endfacet
  facet normal  0.000000e+000  0.000000e+000  9.999999e-001
    outer loop
      vertex  1.879885e+000 -5.398468e-001  2.000000e+000
      vertex  1.267902e+000 -4.684719e-001  2.000000e+000
      vertex  2.103019e+000 -9.012799e-001  2.000000e+000
    endloop
  endfacet
  facet normal  0.000000e+000  0.000000e+000  1.000000e+000
    outer loop
      vertex  2.103019e+000 -9.012799e-001  2.000000e+000
      vertex  1.267902e+000 -4.684719e-001  2.000000e+000
      vertex  1.535204e+000 -7.476483e-001  2.000000e+000
    endloop
  endfacet
  facet normal  0.000000e+000  0.000000e+000  1.000000e+000
    outer loop
      vertex  2.103019e+000 -9.012799e-001  2.000000e+000
      vertex  1.535204e+000 -7.476483e-001  2.000000e+000
      vertex  2.257445e+000 -1.296975e+000  2.000000e+000
    endloop
  endfacet
  facet normal  0.000000e+000  0.000000e+000  9.999999e-001
    outer loop
      vertex  2.257445e+000 -1.296975e+000  2.000000e+000
      vertex  1.535204e+000 -7.476483e-001  2.000000e+000
      vertex  1.742192e+000 -1.074062e+000  2.000000e+000
    endloop
  endfacet
  facet normal  0.000000e+000  0.000000e+000  1.000000e+000
    outer loop
      vertex  2.257445e+000 -1.296975e+000  2.000000e+000
      vertex  1.742192e+000 -1.074062e+000  2.000000e+000
      vertex  1.880734e+000 -1.434888e+000  2.000000e+000
    endloop
  endfacet
  facet normal  -0.000000e+000  0.000000e+000  1.000000e+000
    outer loop
      vertex  2.257445e+000 -1.296975e+000  2.000000e+000
      vertex  1.880734e+000 -1.434888e+000  2.000000e+000
      vertex  2.338120e+000 -1.714005e+000  2.000000e+000
    endloop
  endfacet
  facet normal  0.000000e+000  0.000000e+000  1.000000e+000
    outer loop
      vertex  2.338120e+000 -1.714005e+000  2.000000e+000
      vertex  1.880734e+000 -1.434888e+000  2.000000e+000
      vertex  1.945387e+000 -1.815952e+000  2.000000e+000
    endloop
  endfacet
  facet normal  -0.000000e+000  0.000000e+000  1.000000e+000
    outer loop
      vertex  2.338120e+000 -1.714005e+000  2.000000e+000
      vertex  1.945387e+000 -1.815952e+000  2.000000e+000
      vertex  2.342408e+000 -2.138745e+000  2.000000e+000
    endloop
  endfacet
  facet normal  0.000000e+000  0.000000e+000  1.000000e+000
    outer loop
      vertex  2.342408e+000 -2.138745e+000  2.000000e+000
      vertex  1.945387e+000 -1.815952e+000  2.000000e+000
      vertex  1.933612e+000 -2.202283e+000  2.000000e+000
    endloop
  endfacet
  facet normal  -0.000000e+000  0.000000e+000  1.000000e+000
    outer loop
      vertex  2.342408e+000 -2.138745e+000  2.000000e+000
      vertex  1.933612e+000 -2.202283e+000  2.000000e+000
      vertex  2.270168e+000 -2.557318e+000  2.000000e+000
    endloop
  endfacet
  facet normal  0.000000e+000  0.000000e+000  1.000000e+000
    outer loop
      vertex  2.270168e+000 -2.557318e+000  2.000000e+000
      vertex  1.933612e+000 -2.202283e+000  2.000000e+000
      vertex  1.845869e+000 -2.578702e+000  2.000000e+000
    endloop
  endfacet
  facet normal  -0.000000e+000  0.000000e+000  1.000000e+000
    outer loop
      vertex  2.270168e+000 -2.557318e+000  2.000000e+000
      vertex  1.845869e+000 -2.578702e+000  2.000000e+000
      vertex  2.123761e+000 -2.956051e+000  2.000000e+000
    endloop
  endfacet
  facet normal  0.000000e+000  0.000000e+000  9.999999e-001
    outer loop
      vertex  2.123761e+000 -2.956051e+000  2.000000e+000
      vertex  1.845869e+000 -2.578702e+000  2.000000e+000
      vertex  1.685609e+000 -2.930421e+000  2.000000e+000
    endloop
  endfacet
  facet normal  0.000000e+000  0.000000e+000  1.000000e+000
    outer loop
      vertex  2.123761e+000 -2.956051e+000  2.000000e+000
      vertex  1.685609e+000 -2.930421e+000  2.000000e+000
      vertex  1.907970e+000 -3.321915e+000  2.000000e+000
    endloop
  endfacet
  facet normal  0.000000e+000  0.000000e+000  1.000000e+000
    outer loop
      vertex  1.907970e+000 -3.321915e+000  2.000000e+000
      vertex  1.685609e+000 -2.930421e+000  2.000000e+000
      vertex  1.459124e+000 -3.243622e+000  2.000000e+000
    endloop
  endfacet
  facet normal  0.000000e+000  0.000000e+000  1.000000e+000
    outer loop
      vertex  1.907970e+000 -3.321915e+000  2.000000e+000
      vertex  1.459124e+000 -3.243622e+000  2.000000e+000
      vertex  1.629845e+000 -3.642958e+000  2.000000e+000
    endloop
  endfacet
  facet normal  0.000000e+000  0.000000e+000  1.000000e+000
    outer loop
      vertex  1.629845e+000 -3.642958e+000  2.000000e+000
      vertex  1.459124e+000 -3.243622e+000  2.000000e+000
      vertex  1.175315e+000 -3.505999e+000  2.000000e+000
    endloop
  endfacet
  facet normal  0.000000e+000  0.000000e+000  1.000000e+000
    outer loop
      vertex  1.629845e+000 -3.642958e+000  2.000000e+000
      vertex  1.175315e+000 -3.505999e+000  2.000000e+000
      vertex  8.453313e-001 -3.707247e+000  2.000000e+000
    endloop
  endfacet
  facet normal  0.000000e+000  0.000000e+000  1.000000e+000
    outer loop
      vertex  8.453313e-001 -3.707247e+000  2.000000e+000
      vertex  4.821365e-001 -3.839456e+000  2.000000e+000
      vertex  1.629845e+000 -3.642958e+000  2.000000e+000
    endloop
  endfacet
  facet normal  0.000000e+000  0.000000e+000  1.000000e+000
    outer loop
      vertex  1.629845e+000 -3.642958e+000  2.000000e+000
      vertex  4.821365e-001 -3.839456e+000  2.000000e+000
      vertex  1.298472e+000 -3.908691e+000  2.000000e+000
    endloop
  endfacet
  facet normal  0.000000e+000  0.000000e+000 -1.000000e+000
    outer loop
      vertex  4.620700e-001 -5.553668e-002  0.000000e+000
      vertex  2.326978e-001 -1.393395e-002  0.000000e+000
      vertex  7.133349e-001  4.718061e-001  0.000000e+000
    endloop
  endfacet
  facet normal  0.000000e+000  -0.000000e+000 -1.000000e+000
    outer loop
      vertex  9.507872e-001 -2.475008e-001  0.000000e+000
      vertex  1.086665e+000  3.281939e-001  0.000000e+000
      vertex  1.395424e+000  3.325100e-001  0.000000e+000
    endloop
  endfacet
  facet normal  0.000000e+000  -0.000000e+000 -1.000000e+000
    outer loop
      vertex  9.507872e-001 -2.475008e-001  0.000000e+000
      vertex  1.395424e+000  3.325100e-001  0.000000e+000
      vertex  1.400446e+000  1.284013e-001  0.000000e+000
    endloop
  endfacet
  facet normal  0.000000e+000  -0.000000e+000 -1.000000e+000
    outer loop
      vertex  9.507872e-001 -2.475008e-001  0.000000e+000
      vertex  1.400446e+000  1.284013e-001  0.000000e+000
      vertex  1.469417e+000 -6.376670e-002  0.000000e+000
    endloop
  endfacet
  facet normal  0.000000e+000  -0.000000e+000 -1.000000e+000
    outer loop
      vertex  9.507872e-001 -2.475008e-001  0.000000e+000
      vertex  1.469417e+000 -6.376670e-002  0.000000e+000
      vertex  1.595335e+000 -2.244840e-001  0.000000e+000
    endloop
  endfacet
  facet normal  0.000000e+000  -0.000000e+000 -1.000000e+000
    outer loop
      vertex  9.507872e-001 -2.475008e-001  0.000000e+000
      vertex  1.595335e+000 -2.244840e-001  0.000000e+000
      vertex  1.879885e+000 -5.398468e-001  0.000000e+000
    endloop
  endfacet
  facet normal  0.000000e+000  0.000000e+000 -9.999999e-001
    outer loop
      vertex  9.507872e-001 -2.475008e-001  0.000000e+000
      vertex  1.879885e+000 -5.398468e-001  0.000000e+000
      vertex  1.267902e+000 -4.684719e-001  0.000000e+000
    endloop
  endfacet
  facet normal  0.000000e+000  0.000000e+000 -1.000000e+000
    outer loop
      vertex  0.000000e+000  0.000000e+000  0.000000e+000
      vertex  0.000000e+000  1.700000e+000  0.000000e+000
      vertex  6.500000e-001  1.198436e+000  0.000000e+000
    endloop
  endfacet
  facet normal  0.000000e+000  -0.000000e+000 -1.000000e+000
    outer loop
      vertex  0.000000e+000  0.000000e+000  0.000000e+000
      vertex  6.500000e-001  1.198436e+000  0.000000e+000
      vertex  6.871223e-001  1.053884e+000  0.000000e+000
    endloop
  endfacet
  facet normal  0.000000e+000  -0.000000e+000 -1.000000e+000
    outer loop
      vertex  0.000000e+000  0.000000e+000  0.000000e+000
      vertex  6.871223e-001  1.053884e+000  0.000000e+000
      vertex  7.893022e-001  9.451057e-001  0.000000e+000
    endloop
  endfacet
  facet normal  0.000000e+000  -0.000000e+000 -1.000000e+000
    outer loop
      vertex  0.000000e+000  0.000000e+000  0.000000e+000
      vertex  7.893022e-001  9.451057e-001  0.000000e+000
      vertex  9.312519e-001  8.990224e-001  0.000000e+000
    endloop
  endfacet
  facet normal  0.000000e+000  -0.000000e+000 -1.000000e+000
    outer loop
      vertex  0.000000e+000  0.000000e+000  0.000000e+000
      vertex  9.312519e-001  8.990224e-001  0.000000e+000
      vertex  1.090683e+000  8.622121e-001  0.000000e+000
    endloop
  endfacet
  facet normal  0.000000e+000  0.000000e+000 -9.999999e-001
    outer loop
      vertex  0.000000e+000  0.000000e+000  0.000000e+000
      vertex  1.090683e+000  8.622121e-001  0.000000e+000
      vertex  7.911913e-001  5.678114e-001  0.000000e+000
    endloop
  endfacet
  facet normal  0.000000e+000  0.000000e+000 -9.999999e-001
    outer loop
      vertex  0.000000e+000  0.000000e+000  0.000000e+000
      vertex  7.911913e-001  5.678114e-001  0.000000e+000
      vertex  7.133349e-001  4.718061e-001  0.000000e+000
    endloop
  endfacet
  facet normal  0.000000e+000  0.000000e+000 -1.000000e+000
    outer loop
      vertex  0.000000e+000  0.000000e+000  0.000000e+000
      vertex  7.133349e-001  4.718061e-001  0.000000e+000
      vertex  2.326978e-001 -1.393395e-002  0.000000e+000
    endloop
  endfacet
  facet normal  0.000000e+000  -0.000000e+000 -1.000000e+000
    outer loop
      vertex  1.000000e-001 -3.897434e+000  0.000000e+000
      vertex  4.821365e-001 -3.839456e+000  0.000000e+000
      vertex  1.298472e+000 -3.908691e+000  0.000000e+000
    endloop
  endfacet
  facet normal  -0.000000e+000  0.000000e+000 -1.000000e+000
    outer loop
      vertex  1.000000e-001 -3.897434e+000  0.000000e+000
      vertex  1.298472e+000 -3.908691e+000  0.000000e+000
      vertex  9.246773e-001 -4.110433e+000  0.000000e+000
    endloop
  endfacet
  facet normal  -0.000000e+000  0.000000e+000 -1.000000e+000
    outer loop
      vertex  1.000000e-001 -3.897434e+000  0.000000e+000
      vertex  9.246773e-001 -4.110433e+000  0.000000e+000
      vertex  7.920911e-001 -4.191761e+000  0.000000e+000
    endloop
  endfacet
  facet normal  -0.000000e+000  0.000000e+000 -1.000000e+000
    outer loop
      vertex  1.000000e-001 -3.897434e+000  0.000000e+000
      vertex  7.920911e-001 -4.191761e+000  0.000000e+000
      vertex  6.884820e-001 -4.307770e+000  0.000000e+000
    endloop
  endfacet
  facet normal  -0.000000e+000  0.000000e+000 -1.000000e+000
    outer loop
      vertex  1.000000e-001 -3.897434e+000  0.000000e+000
      vertex  6.884820e-001 -4.307770e+000  0.000000e+000
      vertex  6.225975e-001 -4.448669e+000  0.000000e+000
    endloop
  endfacet
  facet normal  -0.000000e+000  0.000000e+000 -1.000000e+000
    outer loop
      vertex  1.000000e-001 -3.897434e+000  0.000000e+000
      vertex  6.225975e-001 -4.448669e+000  0.000000e+000
      vertex  6.000000e-001 -4.602560e+000  0.000000e+000
    endloop
  endfacet
  facet normal  -0.000000e+000  -0.000000e+000 -1.000000e+000
    outer loop
      vertex  1.000000e-001 -3.897434e+000  0.000000e+000
      vertex  6.000000e-001 -4.602560e+000  0.000000e+000
      vertex  6.000000e-001 -5.500000e+000  0.000000e+000
    endloop
  endfacet
  facet normal  0.000000e+000  0.000000e+000 -1.000000e+000
    outer loop
      vertex  1.000000e-001 -3.897434e+000  0.000000e+000
      vertex  6.000000e-001 -5.500000e+000  0.000000e+000
      vertex  1.000000e-001 -5.500000e+000  0.000000e+000
    endloop
  endfacet
  facet normal -3.285398e-016 -4.257699e-016 -1.000000e+000
    outer loop
      vertex  0.000000e+000  1.700000e+000  0.000000e+000
      vertex  3.500000e-001  1.700000e+000 -1.149889e-016
      vertex  6.500000e-001  1.198436e+000  0.000000e+000
    endloop
  endfacet
  facet normal  3.287455e-016 -3.262852e-017 -1.000000e+000
    outer loop
      vertex  6.500000e-001  1.198436e+000  0.000000e+000
      vertex  3.500000e-001  1.700000e+000 -1.149889e-016
      vertex  3.500000e-001  3.426648e+000 -1.713269e-016
    endloop
  endfacet
  facet normal  5.710897e-016  0.000000e+000 -1.000000e+000
    outer loop
      vertex  6.500000e-001  1.198436e+000  0.000000e+000
      vertex  3.500000e-001  3.426648e+000 -1.713269e-016
      vertex  6.500000e-001  3.426648e+000  0.000000e+000
    endloop
  endfacet
  facet normal  0.000000e+000  0.000000e+000 -1.000000e+000
    outer loop
      vertex  1.333396e+000  6.493354e-001  0.000000e+000
      vertex  9.106089e-001  5.997185e-001  0.000000e+000
      vertex  1.229693e+000  7.759020e-001  0.000000e+000
    endloop
  endfacet
  facet normal  0.000000e+000  0.000000e+000 -1.000000e+000
    outer loop
      vertex  1.229693e+000  7.759020e-001  0.000000e+000
      vertex  9.106089e-001  5.997185e-001  0.000000e+000
      vertex  7.911913e-001  5.678114e-001  0.000000e+000
    endloop
  endfacet
  facet normal  0.000000e+000  0.000000e+000 -1.000000e+000
    outer loop
      vertex  1.229693e+000  7.759020e-001  0.000000e+000
      vertex  7.911913e-001  5.678114e-001  0.000000e+000
      vertex  1.090683e+000  8.622121e-001  0.000000e+000
    endloop
  endfacet
  facet normal  0.000000e+000  0.000000e+000 -1.000000e+000
    outer loop
      vertex  1.093222e+000  4.516266e-001  0.000000e+000
      vertex  1.025974e+000  5.553398e-001  0.000000e+000
      vertex  1.390684e+000  4.960667e-001  0.000000e+000
    endloop
  endfacet
  facet normal  0.000000e+000  0.000000e+000 -1.000000e+000
    outer loop
      vertex  1.390684e+000  4.960667e-001  0.000000e+000
      vertex  1.025974e+000  5.553398e-001  0.000000e+000
      vertex  9.106089e-001  5.997185e-001  0.000000e+000
    endloop
  endfacet
  facet normal  0.000000e+000  0.000000e+000 -1.000000e+000
    outer loop
      vertex  1.390684e+000  4.960667e-001  0.000000e+000
      vertex  9.106089e-001  5.997185e-001  0.000000e+000
      vertex  1.333396e+000  6.493354e-001  0.000000e+000
    endloop
  endfacet
  facet normal  0.000000e+000  0.000000e+000 -1.000000e+000
    outer loop
      vertex  1.093222e+000  4.516266e-001  0.000000e+000
      vertex  1.390684e+000  4.960667e-001  0.000000e+000
      vertex  1.086665e+000  3.281939e-001  0.000000e+000
    endloop
  endfacet
  facet normal  0.000000e+000  0.000000e+000 -9.999999e-001
    outer loop
      vertex  1.086665e+000  3.281939e-001  0.000000e+000
      vertex  1.390684e+000  4.960667e-001  0.000000e+000
      vertex  1.395424e+000  3.325100e-001  0.000000e+000
    endloop
  endfacet
  facet normal  0.000000e+000  0.000000e+000 -1.000000e+000
    outer loop
      vertex  1.880734e+000 -1.434888e+000  0.000000e+000
      vertex  1.742192e+000 -1.074062e+000  0.000000e+000
      vertex  2.257445e+000 -1.296975e+000  0.000000e+000
    endloop
  endfacet
  facet normal  0.000000e+000  0.000000e+000 -9.999999e-001
    outer loop
      vertex  2.257445e+000 -1.296975e+000  0.000000e+000
      vertex  1.742192e+000 -1.074062e+000  0.000000e+000
      vertex  1.535204e+000 -7.476483e-001  0.000000e+000
    endloop
  endfacet
  facet normal  0.000000e+000  0.000000e+000 -1.000000e+000
    outer loop
      vertex  2.257445e+000 -1.296975e+000  0.000000e+000
      vertex  1.535204e+000 -7.476483e-001  0.000000e+000
      vertex  2.103019e+000 -9.012799e-001  0.000000e+000
    endloop
  endfacet
  facet normal  0.000000e+000  0.000000e+000 -1.000000e+000
    outer loop
      vertex  2.103019e+000 -9.012799e-001  0.000000e+000
      vertex  1.535204e+000 -7.476483e-001  0.000000e+000
      vertex  1.267902e+000 -4.684719e-001  0.000000e+000
    endloop
  endfacet
  facet normal  0.000000e+000  0.000000e+000 -9.999999e-001
    outer loop
      vertex  2.103019e+000 -9.012799e-001  0.000000e+000
      vertex  1.267902e+000 -4.684719e-001  0.000000e+000
      vertex  1.879885e+000 -5.398468e-001  0.000000e+000
    endloop
  endfacet
  facet normal  0.000000e+000  -0.000000e+000 -1.000000e+000
    outer loop
      vertex  8.453313e-001 -3.707247e+000  0.000000e+000
      vertex  1.175315e+000 -3.505999e+000  0.000000e+000
      vertex  1.629845e+000 -3.642958e+000  0.000000e+000
    endloop
  endfacet
  facet normal  0.000000e+000  0.000000e+000 -1.000000e+000
    outer loop
      vertex  1.629845e+000 -3.642958e+000  0.000000e+000
      vertex  1.175315e+000 -3.505999e+000  0.000000e+000
      vertex  1.459124e+000 -3.243622e+000  0.000000e+000
    endloop
  endfacet
  facet normal  0.000000e+000  0.000000e+000 -1.000000e+000
    outer loop
      vertex  1.629845e+000 -3.642958e+000  0.000000e+000
      vertex  1.459124e+000 -3.243622e+000  0.000000e+000
      vertex  1.907970e+000 -3.321915e+000  0.000000e+000
    endloop
  endfacet
  facet normal  0.000000e+000  0.000000e+000 -1.000000e+000
    outer loop
      vertex  1.907970e+000 -3.321915e+000  0.000000e+000
      vertex  1.459124e+000 -3.243622e+000  0.000000e+000
      vertex  1.685609e+000 -2.930421e+000  0.000000e+000
    endloop
  endfacet
  facet normal  0.000000e+000  0.000000e+000 -1.000000e+000
    outer loop
      vertex  1.907970e+000 -3.321915e+000  0.000000e+000
      vertex  1.685609e+000 -2.930421e+000  0.000000e+000
      vertex  2.123761e+000 -2.956051e+000  0.000000e+000
    endloop
  endfacet
  facet normal  0.000000e+000  0.000000e+000 -9.999999e-001
    outer loop
      vertex  2.123761e+000 -2.956051e+000  0.000000e+000
      vertex  1.685609e+000 -2.930421e+000  0.000000e+000
      vertex  1.845869e+000 -2.578702e+000  0.000000e+000
    endloop
  endfacet
  facet normal  0.000000e+000  0.000000e+000 -1.000000e+000
    outer loop
      vertex  2.123761e+000 -2.956051e+000  0.000000e+000
      vertex  1.845869e+000 -2.578702e+000  0.000000e+000
      vertex  2.270168e+000 -2.557318e+000  0.000000e+000
    endloop
  endfacet
  facet normal  -0.000000e+000  0.000000e+000 -1.000000e+000
    outer loop
      vertex  2.270168e+000 -2.557318e+000  0.000000e+000
      vertex  1.845869e+000 -2.578702e+000  0.000000e+000
      vertex  1.933612e+000 -2.202283e+000  0.000000e+000
    endloop
  endfacet
  facet normal  0.000000e+000  0.000000e+000 -1.000000e+000
    outer loop
      vertex  2.270168e+000 -2.557318e+000  0.000000e+000
      vertex  1.933612e+000 -2.202283e+000  0.000000e+000
      vertex  2.342408e+000 -2.138745e+000  0.000000e+000
    endloop
  endfacet
  facet normal  -0.000000e+000  0.000000e+000 -1.000000e+000
    outer loop
      vertex  2.342408e+000 -2.138745e+000  0.000000e+000
      vertex  1.933612e+000 -2.202283e+000  0.000000e+000
      vertex  1.945387e+000 -1.815952e+000  0.000000e+000
    endloop
  endfacet
  facet normal  0.000000e+000  0.000000e+000 -1.000000e+000
    outer loop
      vertex  2.342408e+000 -2.138745e+000  0.000000e+000
      vertex  1.945387e+000 -1.815952e+000  0.000000e+000
      vertex  2.338120e+000 -1.714005e+000  0.000000e+000
    endloop
  endfacet
  facet normal  -0.000000e+000  0.000000e+000 -1.000000e+000
    outer loop
      vertex  2.338120e+000 -1.714005e+000  0.000000e+000
      vertex  1.945387e+000 -1.815952e+000  0.000000e+000
      vertex  1.880734e+000 -1.434888e+000  0.000000e+000
    endloop
  endfacet
  facet normal  0.000000e+000  0.000000e+000 -1.000000e+000
    outer loop
      vertex  2.338120e+000 -1.714005e+000  0.000000e+000
      vertex  1.880734e+000 -1.434888e+000  0.000000e+000
      vertex  2.257445e+000 -1.296975e+000  0.000000e+000
    endloop
  endfacet
  facet normal  0.000000e+000  0.000000e+000 -1.000000e+000
    outer loop
      vertex  8.453313e-001 -3.707247e+000  0.000000e+000
      vertex  1.629845e+000 -3.642958e+000  0.000000e+000
      vertex  4.821365e-001 -3.839456e+000  0.000000e+000
    endloop
  endfacet
  facet normal  0.000000e+000  0.000000e+000 -1.000000e+000
    outer loop
      vertex  4.821365e-001 -3.839456e+000  0.000000e+000
      vertex  1.629845e+000 -3.642958e+000  0.000000e+000
      vertex  1.298472e+000 -3.908691e+000  0.000000e+000
    endloop
  endfacet
  facet normal -9.999999e-001  0.000000e+000  0.000000e+000
    outer loop
      vertex  1.000000e-001 -3.897434e+000  0.000000e+000
      vertex  1.000000e-001 -4.938197e+000  8.097887e-001
      vertex  1.000000e-001 -4.838197e+000  8.824430e-001
    endloop
  endfacet
  facet normal -1.000000e+000  -0.000000e+000  0.000000e+000
    outer loop
      vertex  1.000000e-001 -5.500000e+000  2.000000e+000
      vertex  1.000000e-001 -3.897434e+000  2.000000e+000
      vertex  1.000000e-001 -4.938197e+000  1.190211e+000
    endloop
  endfacet
  facet normal -9.999999e-001  0.000000e+000  0.000000e+000
    outer loop
      vertex  1.000000e-001 -5.500000e+000  2.000000e+000
      vertex  1.000000e-001 -4.938197e+000  1.190211e+000
      vertex  1.000000e-001 -5.061803e+000  1.190211e+000
    endloop
  endfacet
  facet normal -9.999999e-001  -0.000000e+000  0.000000e+000
    outer loop
      vertex  1.000000e-001 -5.500000e+000  2.000000e+000
      vertex  1.000000e-001 -5.061803e+000  1.190211e+000
      vertex  1.000000e-001 -5.161804e+000  1.117557e+000
    endloop
  endfacet
  facet normal -1.000000e+000  -0.000000e+000  0.000000e+000
    outer loop
      vertex  1.000000e-001 -5.500000e+000  2.000000e+000
      vertex  1.000000e-001 -5.161804e+000  1.117557e+000
      vertex  1.000000e-001 -5.200000e+000  1.000000e+000
    endloop
  endfacet
  facet normal -1.000000e+000  0.000000e+000  0.000000e+000
    outer loop
      vertex  1.000000e-001 -5.500000e+000  0.000000e+000
      vertex  1.000000e-001 -5.500000e+000  2.000000e+000
      vertex  1.000000e-001 -5.200000e+000  1.000000e+000
    endloop
  endfacet
  facet normal -1.000000e+000  0.000000e+000  -0.000000e+000
    outer loop
      vertex  1.000000e-001 -5.500000e+000  0.000000e+000
      vertex  1.000000e-001 -5.200000e+000  1.000000e+000
      vertex  1.000000e-001 -5.161804e+000  8.824430e-001
    endloop
  endfacet
  facet normal -9.999999e-001  0.000000e+000  -0.000000e+000
    outer loop
      vertex  1.000000e-001 -5.500000e+000  0.000000e+000
      vertex  1.000000e-001 -5.161804e+000  8.824430e-001
      vertex  1.000000e-001 -5.061803e+000  8.097887e-001
    endloop
  endfacet
  facet normal -9.999999e-001  0.000000e+000  -0.000000e+000
    outer loop
      vertex  1.000000e-001 -5.500000e+000  0.000000e+000
      vertex  1.000000e-001 -5.061803e+000  8.097887e-001
      vertex  1.000000e-001 -4.938197e+000  8.097887e-001
    endloop
  endfacet
  facet normal -1.000000e+000  0.000000e+000  -0.000000e+000
    outer loop
      vertex  1.000000e-001 -5.500000e+000  0.000000e+000
      vertex  1.000000e-001 -4.938197e+000  8.097887e-001
      vertex  1.000000e-001 -3.897434e+000  0.000000e+000
    endloop
  endfacet
  facet normal -1.000000e+000  0.000000e+000  0.000000e+000
    outer loop
      vertex  1.000000e-001 -3.897434e+000  2.000000e+000
      vertex  1.000000e-001 -3.897434e+000  0.000000e+000
      vertex  1.000000e-001 -4.838197e+000  8.824430e-001
    endloop
  endfacet
  facet normal -1.000000e+000  0.000000e+000  0.000000e+000
    outer loop
      vertex  1.000000e-001 -3.897434e+000  2.000000e+000
      vertex  1.000000e-001 -4.838197e+000  8.824430e-001
      vertex  1.000000e-001 -4.800000e+000  1.000000e+000
    endloop
  endfacet
  facet normal -1.000000e+000  0.000000e+000  0.000000e+000
    outer loop
      vertex  1.000000e-001 -3.897434e+000  2.000000e+000
      vertex  1.000000e-001 -4.800000e+000  1.000000e+000
      vertex  1.000000e-001 -4.838197e+000  1.117557e+000
    endloop
  endfacet
  facet normal -9.999999e-001  0.000000e+000  0.000000e+000
    outer loop
      vertex  1.000000e-001 -3.897434e+000  2.000000e+000
      vertex  1.000000e-001 -4.838197e+000  1.117557e+000
      vertex  1.000000e-001 -4.938197e+000  1.190211e+000
    endloop
  endfacet
  facet normal  1.000000e+000  0.000000e+000  0.000000e+000
    outer loop
      vertex  6.500000e-001  1.198436e+000  2.000000e+000
      vertex  6.500000e-001  1.198436e+000  0.000000e+000
      vertex  6.500000e-001  1.200000e+000  1.000000e+000
    endloop
  endfacet
  facet normal  1.000000e+000  0.000000e+000  -0.000000e+000
    outer loop
      vertex  6.500000e-001  1.198436e+000  2.000000e+000
      vertex  6.500000e-001  1.200000e+000  1.000000e+000
      vertex  6.500000e-001  1.238197e+000  1.117557e+000
    endloop
  endfacet
  facet normal  1.000000e+000  0.000000e+000  -0.000000e+000
    outer loop
      vertex  6.500000e-001  1.198436e+000  2.000000e+000
      vertex  6.500000e-001  1.238197e+000  1.117557e+000
      vertex  6.500000e-001  1.338197e+000  1.190211e+000
    endloop
  endfacet
  facet normal  1.000000e+000  0.000000e+000  -0.000000e+000
    outer loop
      vertex  6.500000e-001  1.198436e+000  2.000000e+000
      vertex  6.500000e-001  1.338197e+000  1.190211e+000
      vertex  6.500000e-001  3.564824e+000  2.000000e+000
    endloop
  endfacet
  facet normal  1.000000e+000  0.000000e+000  0.000000e+000
    outer loop
      vertex  6.500000e-001  3.426648e+000  0.000000e+000
      vertex  6.500000e-001  3.850912e+000  4.242640e-001
      vertex  6.500000e-001  1.600000e+000  1.000000e+000
    endloop
  endfacet
  facet normal  9.999999e-001  0.000000e+000  0.000000e+000
    outer loop
      vertex  6.500000e-001  3.426648e+000  0.000000e+000
      vertex  6.500000e-001  1.600000e+000  1.000000e+000
      vertex  6.500000e-001  1.561803e+000  8.824430e-001
    endloop
  endfacet
  facet normal  9.999999e-001  0.000000e+000  0.000000e+000
    outer loop
      vertex  6.500000e-001  3.426648e+000  0.000000e+000
      vertex  6.500000e-001  1.561803e+000  8.824430e-001
      vertex  6.500000e-001  1.461803e+000  8.097887e-001
    endloop
  endfacet
  facet normal  9.999999e-001  0.000000e+000  0.000000e+000
    outer loop
      vertex  6.500000e-001  3.426648e+000  0.000000e+000
      vertex  6.500000e-001  1.461803e+000  8.097887e-001
      vertex  6.500000e-001  1.338197e+000  8.097887e-001
    endloop
  endfacet
  facet normal  1.000000e+000  0.000000e+000  0.000000e+000
    outer loop
      vertex  6.500000e-001  1.198436e+000  0.000000e+000
      vertex  6.500000e-001  3.426648e+000  0.000000e+000
      vertex  6.500000e-001  1.338197e+000  8.097887e-001
    endloop
  endfacet
  facet normal  1.000000e+000  0.000000e+000  0.000000e+000
    outer loop
      vertex  6.500000e-001  1.198436e+000  0.000000e+000
      vertex  6.500000e-001  1.338197e+000  8.097887e-001
      vertex  6.500000e-001  1.238197e+000  8.824430e-001
    endloop
  endfacet
  facet normal  1.000000e+000  0.000000e+000  0.000000e+000
    outer loop
      vertex  6.500000e-001  1.198436e+000  0.000000e+000
      vertex  6.500000e-001  1.238197e+000  8.824430e-001
      vertex  6.500000e-001  1.200000e+000  1.000000e+000
    endloop
  endfacet
  facet normal  9.999999e-001  0.000000e+000  0.000000e+000
    outer loop
      vertex  6.500000e-001  3.564824e+000  2.000000e+000
      vertex  6.500000e-001  1.338197e+000  1.190211e+000
      vertex  6.500000e-001  1.461803e+000  1.190211e+000
    endloop
  endfacet
  facet normal  9.999999e-001  -0.000000e+000  0.000000e+000
    outer loop
      vertex  6.500000e-001  3.564824e+000  2.000000e+000
      vertex  6.500000e-001  1.461803e+000  1.190211e+000
      vertex  6.500000e-001  1.561803e+000  1.117557e+000
    endloop
  endfacet
  facet normal  1.000000e+000  -0.000000e+000  0.000000e+000
    outer loop
      vertex  6.500000e-001  3.564824e+000  2.000000e+000
      vertex  6.500000e-001  1.561803e+000  1.117557e+000
      vertex  6.500000e-001  1.600000e+000  1.000000e+000
    endloop
  endfacet
  facet normal  1.000000e+000  -0.000000e+000  0.000000e+000
    outer loop
      vertex  6.500000e-001  3.564824e+000  2.000000e+000
      vertex  6.500000e-001  1.600000e+000  1.000000e+000
      vertex  6.500000e-001  3.850912e+000  4.242640e-001
    endloop
  endfacet
  facet normal  1.000000e+000  0.000000e+000  -0.000000e+000
    outer loop
      vertex  6.500000e-001  3.564824e+000  2.000000e+000
      vertex  6.500000e-001  3.850912e+000  4.242640e-001
      vertex  6.500000e-001  3.989089e+000  1.575736e+000
    endloop
  endfacet
  facet normal -9.999999e-001  0.000000e+000  -0.000000e+000
    outer loop
      vertex  3.500000e-001  1.700000e+000 -1.149889e-016
      vertex  3.500000e-001  1.940000e+000  2.000000e+000
      vertex  3.500000e-001  3.564824e+000  2.000000e+000
    endloop
  endfacet
  facet normal -9.999999e-001  0.000000e+000  -0.000000e+000
    outer loop
      vertex  3.500000e-001  1.700000e+000 -1.149889e-016
      vertex  3.500000e-001  3.564824e+000  2.000000e+000
      vertex  3.500000e-001  3.989089e+000  1.575736e+000
    endloop
  endfacet
  facet normal -1.000000e+000  0.000000e+000  0.000000e+000
    outer loop
      vertex  3.500000e-001  1.700000e+000 -1.149889e-016
      vertex  3.500000e-001  3.989089e+000  1.575736e+000
      vertex  3.500000e-001  3.850912e+000  4.242640e-001
    endloop
  endfacet
  facet normal -1.000000e+000  0.000000e+000  0.000000e+000
    outer loop
      vertex  3.500000e-001  1.700000e+000 -1.149889e-016
      vertex  3.500000e-001  3.850912e+000  4.242640e-001
      vertex  3.500000e-001  3.426648e+000 -1.713269e-016
    endloop
  endfacet
  facet normal  0.000000e+000  9.928768e-001 -1.191453e-001
    outer loop
      vertex  6.500000e-001  3.989089e+000  1.575736e+000
      vertex  6.500000e-001  3.850912e+000  4.242640e-001
      vertex  3.500000e-001  3.989089e+000  1.575736e+000
    endloop
  endfacet
  facet normal  0.000000e+000  9.928768e-001 -1.191453e-001
    outer loop
      vertex  3.500000e-001  3.989089e+000  1.575736e+000
      vertex  6.500000e-001  3.850912e+000  4.242640e-001
      vertex  3.500000e-001  3.850912e+000  4.242640e-001
    endloop
  endfacet
  facet normal  0.000000e+000  7.071066e-001 -7.071068e-001
    outer loop
      vertex  3.500000e-001  3.850912e+000  4.242640e-001
      vertex  6.500000e-001  3.850912e+000  4.242640e-001
      vertex  3.500000e-001  3.426648e+000 -1.713269e-016
    endloop
  endfacet
  facet normal  4.038213e-016  7.071066e-001 -7.071068e-001
    outer loop
      vertex  3.500000e-001  3.426648e+000 -1.713269e-016
      vertex  6.500000e-001  3.850912e+000  4.242640e-001
      vertex  6.500000e-001  3.426648e+000  0.000000e+000
    endloop
  endfacet
  facet normal  0.000000e+000  7.071066e-001  7.071068e-001
    outer loop
      vertex  3.500000e-001  3.989089e+000  1.575736e+000
      vertex  3.500000e-001  3.564824e+000  2.000000e+000
      vertex  6.500000e-001  3.989089e+000  1.575736e+000
    endloop
  endfacet
  facet normal  0.000000e+000  7.071066e-001  7.071068e-001
    outer loop
      vertex  6.500000e-001  3.989089e+000  1.575736e+000
      vertex  3.500000e-001  3.564824e+000  2.000000e+000
      vertex  6.500000e-001  3.564824e+000  2.000000e+000
    endloop
  endfacet
  facet normal  1.000000e+000  0.000000e+000  -0.000000e+000
    outer loop
      vertex  6.000000e-001 -5.500000e+000  2.000000e+000
      vertex  6.000000e-001 -5.200000e+000  1.000000e+000
      vertex  6.000000e-001 -5.161804e+000  1.117557e+000
    endloop
  endfacet
  facet normal  9.999999e-001  0.000000e+000  -0.000000e+000
    outer loop
      vertex  6.000000e-001 -5.500000e+000  2.000000e+000
      vertex  6.000000e-001 -5.161804e+000  1.117557e+000
      vertex  6.000000e-001 -5.061803e+000  1.190211e+000
    endloop
  endfacet
  facet normal  9.999999e-001  0.000000e+000  -0.000000e+000
    outer loop
      vertex  6.000000e-001 -5.500000e+000  2.000000e+000
      vertex  6.000000e-001 -5.061803e+000  1.190211e+000
      vertex  6.000000e-001 -4.938197e+000  1.190211e+000
    endloop
  endfacet
  facet normal  1.000000e+000  0.000000e+000  -0.000000e+000
    outer loop
      vertex  6.000000e-001 -5.500000e+000  2.000000e+000
      vertex  6.000000e-001 -4.938197e+000  1.190211e+000
      vertex  6.000000e-001 -4.602560e+000  2.000000e+000
    endloop
  endfacet
  facet normal  9.999999e-001  0.000000e+000  0.000000e+000
    outer loop
      vertex  6.000000e-001 -4.602560e+000  0.000000e+000
      vertex  6.000000e-001 -4.800000e+000  1.000000e+000
      vertex  6.000000e-001 -4.838197e+000  8.824430e-001
    endloop
  endfacet
  facet normal  1.000000e+000  0.000000e+000  0.000000e+000
    outer loop
      vertex  6.000000e-001 -4.602560e+000  0.000000e+000
      vertex  6.000000e-001 -4.838197e+000  8.824430e-001
      vertex  6.000000e-001 -4.938197e+000  8.097887e-001
    endloop
  endfacet
  facet normal  9.999999e-001  0.000000e+000  0.000000e+000
    outer loop
      vertex  6.000000e-001 -4.602560e+000  0.000000e+000
      vertex  6.000000e-001 -4.938197e+000  8.097887e-001
      vertex  6.000000e-001 -5.061803e+000  8.097887e-001
    endloop
  endfacet
  facet normal  1.000000e+000  0.000000e+000  0.000000e+000
    outer loop
      vertex  6.000000e-001 -4.602560e+000  0.000000e+000
      vertex  6.000000e-001 -5.061803e+000  8.097887e-001
      vertex  6.000000e-001 -5.500000e+000  0.000000e+000
    endloop
  endfacet
  facet normal  9.999999e-001  0.000000e+000  0.000000e+000
    outer loop
      vertex  6.000000e-001 -5.500000e+000  0.000000e+000
      vertex  6.000000e-001 -5.061803e+000  8.097887e-001
      vertex  6.000000e-001 -5.161804e+000  8.824430e-001
    endloop
  endfacet
  facet normal  1.000000e+000  0.000000e+000  0.000000e+000
    outer loop
      vertex  6.000000e-001 -5.500000e+000  0.000000e+000
      vertex  6.000000e-001 -5.161804e+000  8.824430e-001
      vertex  6.000000e-001 -5.200000e+000  1.000000e+000
    endloop
  endfacet
  facet normal  1.000000e+000  0.000000e+000  0.000000e+000
    outer loop
      vertex  6.000000e-001 -5.500000e+000  0.000000e+000
      vertex  6.000000e-001 -5.200000e+000  1.000000e+000
      vertex  6.000000e-001 -5.500000e+000  2.000000e+000
    endloop
  endfacet
  facet normal  1.000000e+000  -0.000000e+000  0.000000e+000
    outer loop
      vertex  6.000000e-001 -4.602560e+000  2.000000e+000
      vertex  6.000000e-001 -4.938197e+000  1.190211e+000
      vertex  6.000000e-001 -4.838197e+000  1.117557e+000
    endloop
  endfacet
  facet normal  9.999999e-001  -0.000000e+000  0.000000e+000
    outer loop
      vertex  6.000000e-001 -4.602560e+000  2.000000e+000
      vertex  6.000000e-001 -4.838197e+000  1.117557e+000
      vertex  6.000000e-001 -4.800000e+000  1.000000e+000
    endloop
  endfacet
  facet normal  1.000000e+000  -0.000000e+000  0.000000e+000
    outer loop
      vertex  6.000000e-001 -4.602560e+000  2.000000e+000
      vertex  6.000000e-001 -4.800000e+000  1.000000e+000
      vertex  6.000000e-001 -4.602560e+000  0.000000e+000
    endloop
  endfacet
  facet normal -1.000000e+000  -0.000000e+000  0.000000e+000
    outer loop
      vertex  0.000000e+000  0.000000e+000  2.000000e+000
      vertex  0.000000e+000  1.338197e+000  1.190211e+000
      vertex  0.000000e+000  1.238197e+000  1.117557e+000
    endloop
  endfacet
  facet normal -1.000000e+000  0.000000e+000  0.000000e+000
    outer loop
      vertex  0.000000e+000  1.940000e+000  2.000000e+000
      vertex  0.000000e+000  1.700000e+000  0.000000e+000
      vertex  0.000000e+000  1.600000e+000  1.000000e+000
    endloop
  endfacet
  facet normal -1.000000e+000  0.000000e+000  0.000000e+000
    outer loop
      vertex  0.000000e+000  1.940000e+000  2.000000e+000
      vertex  0.000000e+000  1.600000e+000  1.000000e+000
      vertex  0.000000e+000  1.561803e+000  1.117557e+000
    endloop
  endfacet
  facet normal -1.000000e+000  0.000000e+000  0.000000e+000
    outer loop
      vertex  0.000000e+000  1.940000e+000  2.000000e+000
      vertex  0.000000e+000  1.561803e+000  1.117557e+000
      vertex  0.000000e+000  1.461803e+000  1.190211e+000
    endloop
  endfacet
  facet normal -9.999999e-001  0.000000e+000  0.000000e+000
    outer loop
      vertex  0.000000e+000  1.940000e+000  2.000000e+000
      vertex  0.000000e+000  1.461803e+000  1.190211e+000
      vertex  0.000000e+000  1.338197e+000  1.190211e+000
    endloop
  endfacet
  facet normal -1.000000e+000  0.000000e+000  0.000000e+000
    outer loop
      vertex  0.000000e+000  1.940000e+000  2.000000e+000
      vertex  0.000000e+000  1.338197e+000  1.190211e+000
      vertex  0.000000e+000  0.000000e+000  2.000000e+000
    endloop
  endfacet
  facet normal -9.999999e-001  0.000000e+000  0.000000e+000
    outer loop
      vertex  0.000000e+000  0.000000e+000  0.000000e+000
      vertex  0.000000e+000  0.000000e+000  2.000000e+000
      vertex  0.000000e+000  1.238197e+000  1.117557e+000
    endloop
  endfacet
  facet normal -1.000000e+000  0.000000e+000  0.000000e+000
    outer loop
      vertex  0.000000e+000  0.000000e+000  0.000000e+000
      vertex  0.000000e+000  1.238197e+000  1.117557e+000
      vertex  0.000000e+000  1.200000e+000  1.000000e+000
    endloop
  endfacet
  facet normal -1.000000e+000  0.000000e+000  -0.000000e+000
    outer loop
      vertex  0.000000e+000  0.000000e+000  0.000000e+000
      vertex  0.000000e+000  1.200000e+000  1.000000e+000
      vertex  0.000000e+000  1.238197e+000  8.824430e-001
    endloop
  endfacet
  facet normal -1.000000e+000  0.000000e+000  -0.000000e+000
    outer loop
      vertex  0.000000e+000  0.000000e+000  0.000000e+000
      vertex  0.000000e+000  1.238197e+000  8.824430e-001
      vertex  0.000000e+000  1.700000e+000  0.000000e+000
    endloop
  endfacet
  facet normal -1.000000e+000  0.000000e+000  0.000000e+000
    outer loop
      vertex  0.000000e+000  1.700000e+000  0.000000e+000
      vertex  0.000000e+000  1.238197e+000  8.824430e-001
      vertex  0.000000e+000  1.338197e+000  8.097887e-001
    endloop
  endfacet
  facet normal -9.999999e-001  0.000000e+000  0.000000e+000
    outer loop
      vertex  0.000000e+000  1.700000e+000  0.000000e+000
      vertex  0.000000e+000  1.338197e+000  8.097887e-001
      vertex  0.000000e+000  1.461803e+000  8.097887e-001
    endloop
  endfacet
  facet normal -1.000000e+000  0.000000e+000  0.000000e+000
    outer loop
      vertex  0.000000e+000  1.700000e+000  0.000000e+000
      vertex  0.000000e+000  1.461803e+000  8.097887e-001
      vertex  0.000000e+000  1.561803e+000  8.824430e-001
    endloop
  endfacet
  facet normal -1.000000e+000  0.000000e+000  0.000000e+000
    outer loop
      vertex  0.000000e+000  1.700000e+000  0.000000e+000
      vertex  0.000000e+000  1.561803e+000  8.824430e-001
      vertex  0.000000e+000  1.600000e+000  1.000000e+000
    endloop
  endfacet
  facet normal  0.000000e+000 -5.877852e-001 -8.090170e-001
    outer loop
      vertex  6.500000e-001  1.461803e+000  1.190211e+000
      vertex  0.000000e+000  1.561803e+000  1.117557e+000
      vertex  6.500000e-001  1.561803e+000  1.117557e+000
    endloop
  endfacet
  facet normal  -0.000000e+000 -9.510566e-001 -3.090167e-001
    outer loop
      vertex  6.500000e-001  1.561803e+000  1.117557e+000
      vertex  0.000000e+000  1.561803e+000  1.117557e+000
      vertex  0.000000e+000  1.600000e+000  1.000000e+000
    endloop
  endfacet
  facet normal  0.000000e+000 -9.510566e-001 -3.090167e-001
    outer loop
      vertex  6.500000e-001  1.561803e+000  1.117557e+000
      vertex  0.000000e+000  1.600000e+000  1.000000e+000
      vertex  6.500000e-001  1.600000e+000  1.000000e+000
    endloop
  endfacet
  facet normal  -0.000000e+000 -5.877852e-001 -8.090170e-001
    outer loop
      vertex  0.000000e+000  1.561803e+000  1.117557e+000
      vertex  6.500000e-001  1.461803e+000  1.190211e+000
      vertex  0.000000e+000  1.461803e+000  1.190211e+000
    endloop
  endfacet
  facet normal  0.000000e+000  0.000000e+000 -1.000000e+000
    outer loop
      vertex  0.000000e+000  1.461803e+000  1.190211e+000
      vertex  6.500000e-001  1.461803e+000  1.190211e+000
      vertex  6.500000e-001  1.338197e+000  1.190211e+000
    endloop
  endfacet
  facet normal  0.000000e+000  0.000000e+000 -1.000000e+000
    outer loop
      vertex  0.000000e+000  1.461803e+000  1.190211e+000
      vertex  6.500000e-001  1.338197e+000  1.190211e+000
      vertex  0.000000e+000  1.338197e+000  1.190211e+000
    endloop
  endfacet
  facet normal  0.000000e+000  5.877852e-001 -8.090170e-001
    outer loop
      vertex  0.000000e+000  1.338197e+000  1.190211e+000
      vertex  6.500000e-001  1.338197e+000  1.190211e+000
      vertex  6.500000e-001  1.238197e+000  1.117557e+000
    endloop
  endfacet
  facet normal  0.000000e+000  5.877852e-001 -8.090170e-001
    outer loop
      vertex  0.000000e+000  1.338197e+000  1.190211e+000
      vertex  6.500000e-001  1.238197e+000  1.117557e+000
      vertex  0.000000e+000  1.238197e+000  1.117557e+000
    endloop
  endfacet
  facet normal  0.000000e+000  9.510566e-001 -3.090167e-001
    outer loop
      vertex  0.000000e+000  1.238197e+000  1.117557e+000
      vertex  6.500000e-001  1.238197e+000  1.117557e+000
      vertex  6.500000e-001  1.200000e+000  1.000000e+000
    endloop
  endfacet
  facet normal  0.000000e+000  9.510566e-001 -3.090167e-001
    outer loop
      vertex  0.000000e+000  1.238197e+000  1.117557e+000
      vertex  6.500000e-001  1.200000e+000  1.000000e+000
      vertex  0.000000e+000  1.200000e+000  1.000000e+000
    endloop
  endfacet
  facet normal  -0.000000e+000  5.877852e-001  8.090170e-001
    outer loop
      vertex  6.500000e-001  1.338197e+000  8.097887e-001
      vertex  0.000000e+000  1.238197e+000  8.824430e-001
      vertex  6.500000e-001  1.238197e+000  8.824430e-001
    endloop
  endfacet
  facet normal  0.000000e+000  9.510566e-001  3.090167e-001
    outer loop
      vertex  6.500000e-001  1.238197e+000  8.824430e-001
      vertex  0.000000e+000  1.238197e+000  8.824430e-001
      vertex  0.000000e+000  1.200000e+000  1.000000e+000
    endloop
  endfacet
  facet normal  -0.000000e+000  9.510566e-001  3.090167e-001
    outer loop
      vertex  6.500000e-001  1.238197e+000  8.824430e-001
      vertex  0.000000e+000  1.200000e+000  1.000000e+000
      vertex  6.500000e-001  1.200000e+000  1.000000e+000
    endloop
  endfacet
  facet normal  0.000000e+000  5.877852e-001  8.090170e-001
    outer loop
      vertex  0.000000e+000  1.238197e+000  8.824430e-001
      vertex  6.500000e-001  1.338197e+000  8.097887e-001
      vertex  0.000000e+000  1.338197e+000  8.097887e-001
    endloop
  endfacet
  facet normal  0.000000e+000  0.000000e+000  1.000000e+000
    outer loop
      vertex  0.000000e+000  1.338197e+000  8.097887e-001
      vertex  6.500000e-001  1.338197e+000  8.097887e-001
      vertex  6.500000e-001  1.461803e+000  8.097887e-001
    endloop
  endfacet
  facet normal  0.000000e+000  0.000000e+000  1.000000e+000
    outer loop
      vertex  0.000000e+000  1.338197e+000  8.097887e-001
      vertex  6.500000e-001  1.461803e+000  8.097887e-001
      vertex  0.000000e+000  1.461803e+000  8.097887e-001
    endloop
  endfacet
  facet normal  0.000000e+000 -5.877852e-001  8.090170e-001
    outer loop
      vertex  0.000000e+000  1.461803e+000  8.097887e-001
      vertex  6.500000e-001  1.461803e+000  8.097887e-001
      vertex  6.500000e-001  1.561803e+000  8.824430e-001
    endloop
  endfacet
  facet normal  0.000000e+000 -5.877852e-001  8.090170e-001
    outer loop
      vertex  0.000000e+000  1.461803e+000  8.097887e-001
      vertex  6.500000e-001  1.561803e+000  8.824430e-001
      vertex  0.000000e+000  1.561803e+000  8.824430e-001
    endloop
  endfacet
  facet normal  0.000000e+000 -9.510566e-001  3.090167e-001
    outer loop
      vertex  0.000000e+000  1.561803e+000  8.824430e-001
      vertex  6.500000e-001  1.561803e+000  8.824430e-001
      vertex  6.500000e-001  1.600000e+000  1.000000e+000
    endloop
  endfacet
  facet normal  0.000000e+000 -9.510566e-001  3.090167e-001
    outer loop
      vertex  0.000000e+000  1.561803e+000  8.824430e-001
      vertex  6.500000e-001  1.600000e+000  1.000000e+000
      vertex  0.000000e+000  1.600000e+000  1.000000e+000
    endloop
  endfacet
  facet normal  0.000000e+000  9.928769e-001 -1.191452e-001
    outer loop
      vertex  3.500000e-001  1.940000e+000  2.000000e+000
      vertex  3.500000e-001  1.700000e+000 -1.149889e-016
      vertex  0.000000e+000  1.940000e+000  2.000000e+000
    endloop
  endfacet
  facet normal  0.000000e+000  9.928769e-001 -1.191452e-001
    outer loop
      vertex  0.000000e+000  1.940000e+000  2.000000e+000
      vertex  3.500000e-001  1.700000e+000 -1.149889e-016
      vertex  0.000000e+000  1.700000e+000  0.000000e+000
    endloop
  endfacet
  facet normal -5.977297e-002 -9.982120e-001  0.000000e+000
    outer loop
      vertex  0.000000e+000  0.000000e+000  0.000000e+000
      vertex  2.326978e-001 -1.393395e-002  0.000000e+000
      vertex  0.000000e+000  0.000000e+000  2.000000e+000
    endloop
  endfacet
  facet normal -5.977297e-002 -9.982120e-001  0.000000e+000
    outer loop
      vertex  0.000000e+000  0.000000e+000  2.000000e+000
      vertex  2.326978e-001 -1.393395e-002  0.000000e+000
      vertex  2.326978e-001 -1.393395e-002  2.000000e+000
    endloop
  endfacet
  facet normal -1.784647e-001 -9.839463e-001  0.000000e+000
    outer loop
      vertex  2.326978e-001 -1.393395e-002  0.000000e+000
      vertex  4.620700e-001 -5.553668e-002  0.000000e+000
      vertex  2.326978e-001 -1.393395e-002  2.000000e+000
    endloop
  endfacet
  facet normal -1.784647e-001 -9.839463e-001  0.000000e+000
    outer loop
      vertex  2.326978e-001 -1.393395e-002  2.000000e+000
      vertex  4.620700e-001 -5.553668e-002  0.000000e+000
      vertex  4.620700e-001 -5.553668e-002  2.000000e+000
    endloop
  endfacet
  facet normal  2.581334e-001 -9.661093e-001  0.000000e+000
    outer loop
      vertex  9.106089e-001  5.997185e-001  0.000000e+000
      vertex  7.911913e-001  5.678114e-001  2.000000e+000
      vertex  7.911913e-001  5.678114e-001  0.000000e+000
    endloop
  endfacet
  facet normal  7.766989e-001 -6.298720e-001  0.000000e+000
    outer loop
      vertex  7.911913e-001  5.678114e-001  0.000000e+000
      vertex  7.911913e-001  5.678114e-001  2.000000e+000
      vertex  7.133349e-001  4.718061e-001  2.000000e+000
    endloop
  endfacet
  facet normal  7.766989e-001 -6.298720e-001  0.000000e+000
    outer loop
      vertex  7.911913e-001  5.678114e-001  0.000000e+000
      vertex  7.133349e-001  4.718061e-001  2.000000e+000
      vertex  7.133349e-001  4.718061e-001  0.000000e+000
    endloop
  endfacet
  facet normal  2.581334e-001 -9.661093e-001  0.000000e+000
    outer loop
      vertex  7.911913e-001  5.678114e-001  2.000000e+000
      vertex  9.106089e-001  5.997185e-001  0.000000e+000
      vertex  9.106089e-001  5.997185e-001  2.000000e+000
    endloop
  endfacet
  facet normal -3.590305e-001 -9.333258e-001  -0.000000e+000
    outer loop
      vertex  9.106089e-001  5.997185e-001  2.000000e+000
      vertex  9.106089e-001  5.997185e-001  0.000000e+000
      vertex  1.025974e+000  5.553398e-001  0.000000e+000
    endloop
  endfacet
  facet normal -3.590305e-001 -9.333258e-001  0.000000e+000
    outer loop
      vertex  9.106089e-001  5.997185e-001  2.000000e+000
      vertex  1.025974e+000  5.553398e-001  0.000000e+000
      vertex  1.025974e+000  5.553398e-001  2.000000e+000
    endloop
  endfacet
  facet normal -8.390571e-001 -5.440435e-001  -0.000000e+000
    outer loop
      vertex  1.025974e+000  5.553398e-001  2.000000e+000
      vertex  1.025974e+000  5.553398e-001  0.000000e+000
      vertex  1.093222e+000  4.516266e-001  0.000000e+000
    endloop
  endfacet
  facet normal -8.390571e-001 -5.440435e-001  0.000000e+000
    outer loop
      vertex  1.025974e+000  5.553398e-001  2.000000e+000
      vertex  1.093222e+000  4.516266e-001  0.000000e+000
      vertex  1.093222e+000  4.516266e-001  2.000000e+000
    endloop
  endfacet
  facet normal -9.985921e-001  5.304483e-002  0.000000e+000
    outer loop
      vertex  1.093222e+000  4.516266e-001  2.000000e+000
      vertex  1.093222e+000  4.516266e-001  0.000000e+000
      vertex  1.086665e+000  3.281939e-001  0.000000e+000
    endloop
  endfacet
  facet normal -9.985921e-001  5.304483e-002  0.000000e+000
    outer loop
      vertex  1.093222e+000  4.516266e-001  2.000000e+000
      vertex  1.086665e+000  3.281939e-001  0.000000e+000
      vertex  1.086665e+000  3.281939e-001  2.000000e+000
    endloop
  endfacet
  facet normal  9.027613e-001 -4.301417e-001  0.000000e+000
    outer loop
      vertex  7.133349e-001  4.718061e-001  0.000000e+000
      vertex  7.133349e-001  4.718061e-001  2.000000e+000
      vertex  4.620700e-001 -5.553668e-002  0.000000e+000
    endloop
  endfacet
  facet normal  9.027613e-001 -4.301417e-001  0.000000e+000
    outer loop
      vertex  4.620700e-001 -5.553668e-002  0.000000e+000
      vertex  7.133349e-001  4.718061e-001  2.000000e+000
      vertex  4.620700e-001 -5.553668e-002  2.000000e+000
    endloop
  endfacet
  facet normal -9.732586e-001  2.297126e-001  0.000000e+000
    outer loop
      vertex  1.086665e+000  3.281939e-001  0.000000e+000
      vertex  9.507872e-001 -2.475008e-001  0.000000e+000
      vertex  1.086665e+000  3.281939e-001  2.000000e+000
    endloop
  endfacet
  facet normal -9.732586e-001  2.297126e-001  0.000000e+000
    outer loop
      vertex  1.086665e+000  3.281939e-001  2.000000e+000
      vertex  9.507872e-001 -2.475008e-001  0.000000e+000
      vertex  9.507872e-001 -2.475008e-001  2.000000e+000
    endloop
  endfacet
  facet normal  3.087812e-001  9.511330e-001  0.000000e+000
    outer loop
      vertex  7.893022e-001  9.451057e-001  0.000000e+000
      vertex  9.312519e-001  8.990224e-001  2.000000e+000
      vertex  9.312519e-001  8.990224e-001  0.000000e+000
    endloop
  endfacet
  facet normal  3.087812e-001  9.511330e-001  -0.000000e+000
    outer loop
      vertex  9.312519e-001  8.990224e-001  2.000000e+000
      vertex  7.893022e-001  9.451057e-001  0.000000e+000
      vertex  7.893022e-001  9.451057e-001  2.000000e+000
    endloop
  endfacet
  facet normal  7.288669e-001  6.846555e-001  0.000000e+000
    outer loop
      vertex  7.893022e-001  9.451057e-001  2.000000e+000
      vertex  7.893022e-001  9.451057e-001  0.000000e+000
      vertex  6.871223e-001  1.053884e+000  0.000000e+000
    endloop
  endfacet
  facet normal  7.288669e-001  6.846555e-001  -0.000000e+000
    outer loop
      vertex  7.893022e-001  9.451057e-001  2.000000e+000
      vertex  6.871223e-001  1.053884e+000  0.000000e+000
      vertex  6.871223e-001  1.053884e+000  2.000000e+000
    endloop
  endfacet
  facet normal  9.685708e-001  2.487381e-001  0.000000e+000
    outer loop
      vertex  6.871223e-001  1.053884e+000  2.000000e+000
      vertex  6.871223e-001  1.053884e+000  0.000000e+000
      vertex  6.500000e-001  1.198436e+000  0.000000e+000
    endloop
  endfacet
  facet normal  9.685708e-001  2.487381e-001  -0.000000e+000
    outer loop
      vertex  6.871223e-001  1.053884e+000  2.000000e+000
      vertex  6.500000e-001  1.198436e+000  0.000000e+000
      vertex  6.500000e-001  1.198436e+000  2.000000e+000
    endloop
  endfacet
  facet normal  2.249668e-001  9.743665e-001  0.000000e+000
    outer loop
      vertex  9.312519e-001  8.990224e-001  0.000000e+000
      vertex  9.312519e-001  8.990224e-001  2.000000e+000
      vertex  1.090683e+000  8.622121e-001  0.000000e+000
    endloop
  endfacet
  facet normal  2.249668e-001  9.743665e-001  -0.000000e+000
    outer loop
      vertex  1.090683e+000  8.622121e-001  0.000000e+000
      vertex  9.312519e-001  8.990224e-001  2.000000e+000
      vertex  1.090683e+000  8.622121e-001  2.000000e+000
    endloop
  endfacet
  facet normal  5.274858e-001  8.495638e-001  0.000000e+000
    outer loop
      vertex  1.090683e+000  8.622121e-001  0.000000e+000
      vertex  1.090683e+000  8.622121e-001  2.000000e+000
      vertex  1.229693e+000  7.759020e-001  0.000000e+000
    endloop
  endfacet
  facet normal  5.274858e-001  8.495638e-001  -0.000000e+000
    outer loop
      vertex  1.229693e+000  7.759020e-001  0.000000e+000
      vertex  1.090683e+000  8.622121e-001  2.000000e+000
      vertex  1.229693e+000  7.759020e-001  2.000000e+000
    endloop
  endfacet
  facet normal  7.735139e-001  6.337795e-001  0.000000e+000
    outer loop
      vertex  1.229693e+000  7.759020e-001  0.000000e+000
      vertex  1.229693e+000  7.759020e-001  2.000000e+000
      vertex  1.333396e+000  6.493354e-001  0.000000e+000
    endloop
  endfacet
  facet normal  7.735139e-001  6.337795e-001  -0.000000e+000
    outer loop
      vertex  1.333396e+000  6.493354e-001  0.000000e+000
      vertex  1.229693e+000  7.759020e-001  2.000000e+000
      vertex  1.333396e+000  6.493354e-001  2.000000e+000
    endloop
  endfacet
  facet normal  9.367046e-001  3.501206e-001  0.000000e+000
    outer loop
      vertex  1.333396e+000  6.493354e-001  0.000000e+000
      vertex  1.333396e+000  6.493354e-001  2.000000e+000
      vertex  1.390684e+000  4.960667e-001  0.000000e+000
    endloop
  endfacet
  facet normal  9.367046e-001  3.501206e-001  -0.000000e+000
    outer loop
      vertex  1.390684e+000  4.960667e-001  0.000000e+000
      vertex  1.333396e+000  6.493354e-001  2.000000e+000
      vertex  1.390684e+000  4.960667e-001  2.000000e+000
    endloop
  endfacet
  facet normal  9.995803e-001  2.896714e-002  0.000000e+000
    outer loop
      vertex  1.390684e+000  4.960667e-001  0.000000e+000
      vertex  1.390684e+000  4.960667e-001  2.000000e+000
      vertex  1.395424e+000  3.325100e-001  0.000000e+000
    endloop
  endfacet
  facet normal  9.995803e-001  2.896714e-002  -0.000000e+000
    outer loop
      vertex  1.395424e+000  3.325100e-001  0.000000e+000
      vertex  1.390684e+000  4.960667e-001  2.000000e+000
      vertex  1.395424e+000  3.325100e-001  2.000000e+000
    endloop
  endfacet
  facet normal  7.871726e-001  6.167328e-001  0.000000e+000
    outer loop
      vertex  1.469417e+000 -6.376670e-002  0.000000e+000
      vertex  1.595335e+000 -2.244840e-001  2.000000e+000
      vertex  1.595335e+000 -2.244840e-001  0.000000e+000
    endloop
  endfacet
  facet normal  7.871726e-001  6.167328e-001  -0.000000e+000
    outer loop
      vertex  1.595335e+000 -2.244840e-001  2.000000e+000
      vertex  1.469417e+000 -6.376670e-002  0.000000e+000
      vertex  1.469417e+000 -6.376670e-002  2.000000e+000
    endloop
  endfacet
  facet normal  9.412137e-001  3.378117e-001  0.000000e+000
    outer loop
      vertex  1.469417e+000 -6.376670e-002  2.000000e+000
      vertex  1.469417e+000 -6.376670e-002  0.000000e+000
      vertex  1.400446e+000  1.284013e-001  0.000000e+000
    endloop
  endfacet
  facet normal  9.412137e-001  3.378117e-001  -0.000000e+000
    outer loop
      vertex  1.469417e+000 -6.376670e-002  2.000000e+000
      vertex  1.400446e+000  1.284013e-001  0.000000e+000
      vertex  1.400446e+000  1.284013e-001  2.000000e+000
    endloop
  endfacet
  facet normal  9.996976e-001  2.459407e-002  0.000000e+000
    outer loop
      vertex  1.400446e+000  1.284013e-001  2.000000e+000
      vertex  1.400446e+000  1.284013e-001  0.000000e+000
      vertex  1.395424e+000  3.325100e-001  0.000000e+000
    endloop
  endfacet
  facet normal  9.996976e-001  2.459407e-002  -0.000000e+000
    outer loop
      vertex  1.400446e+000  1.284013e-001  2.000000e+000
      vertex  1.395424e+000  3.325100e-001  0.000000e+000
      vertex  1.395424e+000  3.325100e-001  2.000000e+000
    endloop
  endfacet
  facet normal  7.424469e-001  6.699049e-001  0.000000e+000
    outer loop
      vertex  1.595335e+000 -2.244840e-001  0.000000e+000
      vertex  1.595335e+000 -2.244840e-001  2.000000e+000
      vertex  1.879885e+000 -5.398468e-001  0.000000e+000
    endloop
  endfacet
  facet normal  7.424469e-001  6.699049e-001  -0.000000e+000
    outer loop
      vertex  1.879885e+000 -5.398468e-001  0.000000e+000
      vertex  1.595335e+000 -2.244840e-001  2.000000e+000
      vertex  1.879885e+000 -5.398468e-001  2.000000e+000
    endloop
  endfacet
  facet normal  8.509083e-001  5.253143e-001  0.000000e+000
    outer loop
      vertex  1.879885e+000 -5.398468e-001  0.000000e+000
      vertex  1.879885e+000 -5.398468e-001  2.000000e+000
      vertex  2.103019e+000 -9.012799e-001  0.000000e+000
    endloop
  endfacet
  facet normal  8.509083e-001  5.253143e-001  -0.000000e+000
    outer loop
      vertex  2.103019e+000 -9.012799e-001  0.000000e+000
      vertex  1.879885e+000 -5.398468e-001  2.000000e+000
      vertex  2.103019e+000 -9.012799e-001  2.000000e+000
    endloop
  endfacet
  facet normal  9.315704e-001  3.635610e-001  0.000000e+000
    outer loop
      vertex  2.103019e+000 -9.012799e-001  0.000000e+000
      vertex  2.103019e+000 -9.012799e-001  2.000000e+000
      vertex  2.257445e+000 -1.296975e+000  0.000000e+000
    endloop
  endfacet
  facet normal  9.315704e-001  3.635610e-001  -0.000000e+000
    outer loop
      vertex  2.257445e+000 -1.296975e+000  0.000000e+000
      vertex  2.103019e+000 -9.012799e-001  2.000000e+000
      vertex  2.257445e+000 -1.296975e+000  2.000000e+000
    endloop
  endfacet
  facet normal  9.817975e-001  1.899304e-001  0.000000e+000
    outer loop
      vertex  2.257445e+000 -1.296975e+000  0.000000e+000
      vertex  2.257445e+000 -1.296975e+000  2.000000e+000
      vertex  2.338120e+000 -1.714005e+000  0.000000e+000
    endloop
  endfacet
  facet normal  9.817975e-001  1.899304e-001  -0.000000e+000
    outer loop
      vertex  2.338120e+000 -1.714005e+000  0.000000e+000
      vertex  2.257445e+000 -1.296975e+000  2.000000e+000
      vertex  2.338120e+000 -1.714005e+000  2.000000e+000
    endloop
  endfacet
  facet normal  9.999491e-001  1.009442e-002  0.000000e+000
    outer loop
      vertex  2.338120e+000 -1.714005e+000  0.000000e+000
      vertex  2.338120e+000 -1.714005e+000  2.000000e+000
      vertex  2.342408e+000 -2.138745e+000  0.000000e+000
    endloop
  endfacet
  facet normal  9.999491e-001  1.009442e-002  -0.000000e+000
    outer loop
      vertex  2.342408e+000 -2.138745e+000  0.000000e+000
      vertex  2.338120e+000 -1.714005e+000  2.000000e+000
      vertex  2.342408e+000 -2.138745e+000  2.000000e+000
    endloop
  endfacet
  facet normal  9.854318e-001 -1.700712e-001  0.000000e+000
    outer loop
      vertex  2.342408e+000 -2.138745e+000  0.000000e+000
      vertex  2.342408e+000 -2.138745e+000  2.000000e+000
      vertex  2.270168e+000 -2.557318e+000  0.000000e+000
    endloop
  endfacet
  facet normal  9.854318e-001 -1.700712e-001  0.000000e+000
    outer loop
      vertex  2.270168e+000 -2.557318e+000  0.000000e+000
      vertex  2.342408e+000 -2.138745e+000  2.000000e+000
      vertex  2.270168e+000 -2.557318e+000  2.000000e+000
    endloop
  endfacet
  facet normal  9.387202e-001 -3.446803e-001  0.000000e+000
    outer loop
      vertex  2.270168e+000 -2.557318e+000  0.000000e+000
      vertex  2.270168e+000 -2.557318e+000  2.000000e+000
      vertex  2.123761e+000 -2.956051e+000  0.000000e+000
    endloop
  endfacet
  facet normal  9.387202e-001 -3.446803e-001  0.000000e+000
    outer loop
      vertex  2.123761e+000 -2.956051e+000  0.000000e+000
      vertex  2.270168e+000 -2.557318e+000  2.000000e+000
      vertex  2.123761e+000 -2.956051e+000  2.000000e+000
    endloop
  endfacet
  facet normal  8.613401e-001 -5.080288e-001  0.000000e+000
    outer loop
      vertex  2.123761e+000 -2.956051e+000  0.000000e+000
      vertex  2.123761e+000 -2.956051e+000  2.000000e+000
      vertex  1.907970e+000 -3.321915e+000  0.000000e+000
    endloop
  endfacet
  facet normal  8.613401e-001 -5.080288e-001  0.000000e+000
    outer loop
      vertex  1.907970e+000 -3.321915e+000  0.000000e+000
      vertex  2.123761e+000 -2.956051e+000  2.000000e+000
      vertex  1.907970e+000 -3.321915e+000  2.000000e+000
    endloop
  endfacet
  facet normal  7.558195e-001 -6.547801e-001  0.000000e+000
    outer loop
      vertex  1.907970e+000 -3.321915e+000  0.000000e+000
      vertex  1.907970e+000 -3.321915e+000  2.000000e+000
      vertex  1.629845e+000 -3.642958e+000  0.000000e+000
    endloop
  endfacet
  facet normal  7.558195e-001 -6.547801e-001  0.000000e+000
    outer loop
      vertex  1.629845e+000 -3.642958e+000  0.000000e+000
      vertex  1.907970e+000 -3.321915e+000  2.000000e+000
      vertex  1.629845e+000 -3.642958e+000  2.000000e+000
    endloop
  endfacet
  facet normal  6.256062e-001 -7.801390e-001  0.000000e+000
    outer loop
      vertex  1.629845e+000 -3.642958e+000  0.000000e+000
      vertex  1.629845e+000 -3.642958e+000  2.000000e+000
      vertex  1.298472e+000 -3.908691e+000  0.000000e+000
    endloop
  endfacet
  facet normal  6.256062e-001 -7.801390e-001  0.000000e+000
    outer loop
      vertex  1.298472e+000 -3.908691e+000  0.000000e+000
      vertex  1.629845e+000 -3.642958e+000  2.000000e+000
      vertex  1.298472e+000 -3.908691e+000  2.000000e+000
    endloop
  endfacet
  facet normal  4.749540e-001 -8.800107e-001  0.000000e+000
    outer loop
      vertex  1.298472e+000 -3.908691e+000  0.000000e+000
      vertex  1.298472e+000 -3.908691e+000  2.000000e+000
      vertex  9.246773e-001 -4.110433e+000  0.000000e+000
    endloop
  endfacet
  facet normal  4.749540e-001 -8.800107e-001  0.000000e+000
    outer loop
      vertex  9.246773e-001 -4.110433e+000  0.000000e+000
      vertex  1.298472e+000 -3.908691e+000  2.000000e+000
      vertex  9.246773e-001 -4.110433e+000  2.000000e+000
    endloop
  endfacet
  facet normal  9.058583e-001 -4.235808e-001  0.000000e+000
    outer loop
      vertex  6.884820e-001 -4.307770e+000  0.000000e+000
      vertex  6.225975e-001 -4.448669e+000  2.000000e+000
      vertex  6.225975e-001 -4.448669e+000  0.000000e+000
    endloop
  endfacet
  facet normal  9.893902e-001 -1.452827e-001  0.000000e+000
    outer loop
      vertex  6.225975e-001 -4.448669e+000  0.000000e+000
      vertex  6.225975e-001 -4.448669e+000  2.000000e+000
      vertex  6.000000e-001 -4.602560e+000  2.000000e+000
    endloop
  endfacet
  facet normal  9.893902e-001 -1.452827e-001  0.000000e+000
    outer loop
      vertex  6.225975e-001 -4.448669e+000  0.000000e+000
      vertex  6.000000e-001 -4.602560e+000  2.000000e+000
      vertex  6.000000e-001 -4.602560e+000  0.000000e+000
    endloop
  endfacet
  facet normal  9.058583e-001 -4.235808e-001  0.000000e+000
    outer loop
      vertex  6.225975e-001 -4.448669e+000  2.000000e+000
      vertex  6.884820e-001 -4.307770e+000  0.000000e+000
      vertex  6.884820e-001 -4.307770e+000  2.000000e+000
    endloop
  endfacet
  facet normal  7.458454e-001 -6.661190e-001  0.000000e+000
    outer loop
      vertex  6.884820e-001 -4.307770e+000  2.000000e+000
      vertex  6.884820e-001 -4.307770e+000  0.000000e+000
      vertex  7.920911e-001 -4.191761e+000  0.000000e+000
    endloop
  endfacet
  facet normal  7.458454e-001 -6.661190e-001  0.000000e+000
    outer loop
      vertex  6.884820e-001 -4.307770e+000  2.000000e+000
      vertex  7.920911e-001 -4.191761e+000  0.000000e+000
      vertex  7.920911e-001 -4.191761e+000  2.000000e+000
    endloop
  endfacet
  facet normal  5.228639e-001 -8.524162e-001  0.000000e+000
    outer loop
      vertex  7.920911e-001 -4.191761e+000  2.000000e+000
      vertex  7.920911e-001 -4.191761e+000  0.000000e+000
      vertex  9.246773e-001 -4.110433e+000  0.000000e+000
    endloop
  endfacet
  facet normal  5.228639e-001 -8.524162e-001  0.000000e+000
    outer loop
      vertex  7.920911e-001 -4.191761e+000  2.000000e+000
      vertex  9.246773e-001 -4.110433e+000  0.000000e+000
      vertex  9.246773e-001 -4.110433e+000  2.000000e+000
    endloop
  endfacet
endsolid CATIA STL
