G75*
%MOIN*%
%OFA0B0*%
%FSLAX24Y24*%
%IPPOS*%
%LPD*%
%AMOC8*
5,1,8,0,0,1.08239X$1,22.5*
%
%ADD10C,0.0740*%
%ADD11OC8,0.0740*%
%ADD12R,0.0740X0.0740*%
%ADD13C,0.0160*%
%ADD14R,0.0376X0.0376*%
%ADD15C,0.0240*%
%ADD16C,0.0120*%
%ADD17C,0.0100*%
%ADD18R,0.0337X0.0337*%
%ADD19C,0.0320*%
D10*
X000984Y005094D03*
X000984Y006094D03*
X000984Y007094D03*
X000984Y008094D03*
X000984Y009094D03*
X000984Y010094D03*
X000984Y011094D03*
X000984Y012094D03*
X000984Y013094D03*
X000984Y014094D03*
X000984Y015094D03*
X000984Y016094D03*
X000984Y017094D03*
X000984Y018094D03*
X000984Y019094D03*
X000984Y020094D03*
X000984Y021094D03*
X000984Y022094D03*
X000984Y023094D03*
X000984Y025591D03*
X000984Y026591D03*
X000984Y027591D03*
X007984Y027591D03*
X007984Y026591D03*
X007984Y025591D03*
X007984Y022094D03*
X007984Y021094D03*
X007984Y020094D03*
X007984Y019094D03*
X007984Y018094D03*
X007984Y017094D03*
X007984Y016094D03*
X007984Y015094D03*
X007984Y014094D03*
X007984Y013094D03*
X007984Y012094D03*
X007984Y011094D03*
X007984Y010094D03*
X007984Y009094D03*
X007984Y008094D03*
X007984Y007094D03*
X007984Y006094D03*
X007984Y005094D03*
X007984Y004094D03*
D11*
X006484Y002685D03*
X006484Y001685D03*
X005484Y001685D03*
X005484Y002685D03*
X004484Y002685D03*
X004484Y001685D03*
X003484Y001685D03*
X003484Y002685D03*
X002484Y002685D03*
X002484Y001685D03*
D12*
X000984Y004094D03*
X007984Y023094D03*
D13*
X008727Y000230D02*
X000230Y000230D01*
X000230Y029494D01*
X008727Y029494D01*
X008727Y016643D01*
X008646Y016724D01*
X008624Y016724D01*
X008453Y016894D01*
X008494Y016993D01*
X008494Y017196D01*
X008417Y017383D01*
X008273Y017527D01*
X008110Y017594D01*
X008273Y017662D01*
X008417Y017806D01*
X008494Y017993D01*
X008494Y018196D01*
X008417Y018383D01*
X008273Y018527D01*
X008110Y018594D01*
X008273Y018662D01*
X008417Y018806D01*
X008494Y018993D01*
X008494Y019196D01*
X008417Y019383D01*
X008273Y019527D01*
X008110Y019594D01*
X008273Y019662D01*
X008417Y019806D01*
X008494Y019993D01*
X008494Y020196D01*
X008417Y020383D01*
X008273Y020527D01*
X008110Y020594D01*
X008273Y020662D01*
X008417Y020806D01*
X008494Y020993D01*
X008494Y021196D01*
X008417Y021383D01*
X008273Y021527D01*
X008161Y021573D01*
X008195Y021585D01*
X008273Y021624D01*
X008343Y021675D01*
X008404Y021736D01*
X008455Y021806D01*
X008494Y021883D01*
X008521Y021966D01*
X008534Y022051D01*
X008534Y022074D01*
X008004Y022074D01*
X008004Y022114D01*
X008534Y022114D01*
X008534Y022138D01*
X008521Y022223D01*
X008494Y022306D01*
X008455Y022383D01*
X008404Y022453D01*
X008343Y022514D01*
X008273Y022565D01*
X008234Y022584D01*
X008412Y022584D01*
X008494Y022666D01*
X008494Y023522D01*
X008412Y023604D01*
X007556Y023604D01*
X007474Y023522D01*
X007474Y023354D01*
X001429Y023354D01*
X001417Y023383D01*
X001273Y023527D01*
X001086Y023604D01*
X000883Y023604D01*
X000695Y023527D01*
X000552Y023383D01*
X000474Y023196D01*
X000474Y022993D01*
X000552Y022806D01*
X000695Y022662D01*
X000808Y022616D01*
X000773Y022604D01*
X000696Y022565D01*
X000626Y022514D01*
X000565Y022453D01*
X000514Y022383D01*
X000475Y022306D01*
X000448Y022223D01*
X000434Y022138D01*
X000434Y022114D01*
X000964Y022114D01*
X000964Y022074D01*
X000434Y022074D01*
X000434Y022051D01*
X000448Y021966D01*
X000475Y021883D01*
X000514Y021806D01*
X000565Y021736D01*
X000626Y021675D01*
X000696Y021624D01*
X000773Y021585D01*
X000808Y021573D01*
X000695Y021527D01*
X000552Y021383D01*
X000474Y021196D01*
X000474Y020993D01*
X000552Y020806D01*
X000695Y020662D01*
X000859Y020594D01*
X000695Y020527D01*
X000552Y020383D01*
X000474Y020196D01*
X000474Y019993D01*
X000552Y019806D01*
X000695Y019662D01*
X000859Y019594D01*
X000695Y019527D01*
X000552Y019383D01*
X000474Y019196D01*
X000474Y018993D01*
X000552Y018806D01*
X000695Y018662D01*
X000859Y018594D01*
X000695Y018527D01*
X000552Y018383D01*
X000474Y018196D01*
X000474Y017993D01*
X000552Y017806D01*
X000695Y017662D01*
X000859Y017594D01*
X000695Y017527D01*
X000552Y017383D01*
X000474Y017196D01*
X000474Y016993D01*
X000552Y016806D01*
X000695Y016662D01*
X000859Y016594D01*
X000695Y016527D01*
X000552Y016383D01*
X000474Y016196D01*
X000474Y015993D01*
X000552Y015806D01*
X000695Y015662D01*
X000859Y015594D01*
X000695Y015527D01*
X000552Y015383D01*
X000474Y015196D01*
X000474Y014993D01*
X000552Y014806D01*
X000695Y014662D01*
X000859Y014594D01*
X000695Y014527D01*
X000552Y014383D01*
X000474Y014196D01*
X000474Y013993D01*
X000552Y013806D01*
X000695Y013662D01*
X000859Y013594D01*
X000695Y013527D01*
X000552Y013383D01*
X000474Y013196D01*
X000474Y012993D01*
X000552Y012806D01*
X000695Y012662D01*
X000859Y012594D01*
X000695Y012527D01*
X000552Y012383D01*
X000474Y012196D01*
X000474Y011993D01*
X000552Y011806D01*
X000695Y011662D01*
X000859Y011594D01*
X000695Y011527D01*
X000552Y011383D01*
X000474Y011196D01*
X000474Y010993D01*
X000552Y010806D01*
X000695Y010662D01*
X000859Y010594D01*
X000695Y010527D01*
X000552Y010383D01*
X000474Y010196D01*
X000474Y009993D01*
X000552Y009806D01*
X000695Y009662D01*
X000859Y009594D01*
X000695Y009527D01*
X000552Y009383D01*
X000474Y009196D01*
X000474Y008993D01*
X000552Y008806D01*
X000695Y008662D01*
X000859Y008594D01*
X000695Y008527D01*
X000552Y008383D01*
X000474Y008196D01*
X000474Y007993D01*
X000552Y007806D01*
X000695Y007662D01*
X000859Y007594D01*
X000695Y007527D01*
X000552Y007383D01*
X000474Y007196D01*
X000474Y006993D01*
X000552Y006806D01*
X000695Y006662D01*
X000859Y006594D01*
X000695Y006527D01*
X000552Y006383D01*
X000474Y006196D01*
X000474Y005993D01*
X000552Y005806D01*
X000695Y005662D01*
X000859Y005594D01*
X000695Y005527D01*
X000552Y005383D01*
X000474Y005196D01*
X000474Y004993D01*
X000552Y004806D01*
X000695Y004662D01*
X000738Y004644D01*
X000591Y004644D01*
X000545Y004632D01*
X000504Y004609D01*
X000470Y004575D01*
X000447Y004534D01*
X000434Y004488D01*
X000434Y004114D01*
X000964Y004114D01*
X000964Y004074D01*
X001004Y004074D01*
X001004Y003544D01*
X001378Y003544D01*
X001424Y003557D01*
X001465Y003580D01*
X001498Y003614D01*
X001522Y003655D01*
X001534Y003701D01*
X001534Y004074D01*
X001004Y004074D01*
X001004Y004114D01*
X001534Y004114D01*
X001534Y004488D01*
X001522Y004534D01*
X001498Y004575D01*
X001465Y004609D01*
X001424Y004632D01*
X001378Y004644D01*
X001231Y004644D01*
X001273Y004662D01*
X001417Y004806D01*
X001494Y004993D01*
X001494Y005196D01*
X001417Y005383D01*
X001273Y005527D01*
X001110Y005594D01*
X001273Y005662D01*
X001417Y005806D01*
X001494Y005993D01*
X001494Y006196D01*
X001417Y006383D01*
X001273Y006527D01*
X001110Y006594D01*
X001273Y006662D01*
X001417Y006806D01*
X001494Y006993D01*
X001494Y007196D01*
X001417Y007383D01*
X001273Y007527D01*
X001110Y007594D01*
X001273Y007662D01*
X001417Y007806D01*
X001494Y007993D01*
X001494Y008196D01*
X001417Y008383D01*
X001273Y008527D01*
X001110Y008594D01*
X001273Y008662D01*
X001417Y008806D01*
X001494Y008993D01*
X001494Y009196D01*
X001417Y009383D01*
X001273Y009527D01*
X001110Y009594D01*
X001273Y009662D01*
X001417Y009806D01*
X001494Y009993D01*
X001494Y010196D01*
X001417Y010383D01*
X001273Y010527D01*
X001110Y010594D01*
X001273Y010662D01*
X001417Y010806D01*
X001473Y010942D01*
X001473Y010350D01*
X003284Y008539D01*
X003284Y003195D01*
X003273Y003195D01*
X003013Y002935D01*
X002712Y003235D01*
X002504Y003235D01*
X002504Y002705D01*
X002464Y002705D01*
X002464Y002665D01*
X001934Y002665D01*
X001934Y002457D01*
X002206Y002185D01*
X001934Y001913D01*
X001934Y001705D01*
X002464Y001705D01*
X002464Y001665D01*
X001934Y001665D01*
X001934Y001457D01*
X002256Y001135D01*
X002464Y001135D01*
X002464Y001665D01*
X002504Y001665D01*
X002504Y001135D01*
X002712Y001135D01*
X003013Y001436D01*
X003273Y001175D01*
X003695Y001175D01*
X003984Y001464D01*
X004273Y001175D01*
X004695Y001175D01*
X004984Y001464D01*
X005273Y001175D01*
X005695Y001175D01*
X005984Y001464D01*
X006273Y001175D01*
X006695Y001175D01*
X006994Y001474D01*
X006994Y001896D01*
X006705Y002185D01*
X006994Y002474D01*
X006994Y002896D01*
X006695Y003195D01*
X006273Y003195D01*
X006174Y003096D01*
X006174Y003448D01*
X006176Y003450D01*
X006174Y003526D01*
X006174Y003602D01*
X006172Y003604D01*
X006163Y003983D01*
X006191Y003983D01*
X006273Y004065D01*
X006273Y004518D01*
X006191Y004600D01*
X005738Y004600D01*
X005684Y004546D01*
X005684Y004909D01*
X005998Y005223D01*
X007461Y005223D01*
X007503Y005266D01*
X007474Y005196D01*
X007474Y004993D01*
X007552Y004806D01*
X007695Y004662D01*
X007859Y004594D01*
X007695Y004527D01*
X007552Y004383D01*
X007474Y004196D01*
X007474Y003993D01*
X007552Y003806D01*
X007695Y003662D01*
X007883Y003584D01*
X008086Y003584D01*
X008273Y003662D01*
X008417Y003806D01*
X008494Y003993D01*
X008494Y004196D01*
X008417Y004383D01*
X008273Y004527D01*
X008110Y004594D01*
X008273Y004662D01*
X008417Y004806D01*
X008494Y004993D01*
X008494Y005196D01*
X008417Y005383D01*
X008399Y005401D01*
X008425Y005401D01*
X008632Y005607D01*
X008646Y005607D01*
X008727Y005688D01*
X008727Y000230D01*
X008727Y000317D02*
X008470Y000317D01*
X008490Y000325D02*
X008643Y000479D01*
X008726Y000679D01*
X008726Y000896D01*
X008643Y001096D01*
X008490Y001249D01*
X008290Y001332D01*
X008073Y001332D01*
X007872Y001249D01*
X007719Y001096D01*
X007636Y000896D01*
X007636Y000679D01*
X007719Y000479D01*
X007872Y000325D01*
X008073Y000242D01*
X008290Y000242D01*
X008490Y000325D01*
X008640Y000476D02*
X008727Y000476D01*
X008727Y000634D02*
X008707Y000634D01*
X008726Y000793D02*
X008727Y000793D01*
X008727Y000951D02*
X008703Y000951D01*
X008727Y001110D02*
X008630Y001110D01*
X008727Y001268D02*
X008445Y001268D01*
X008727Y001427D02*
X006947Y001427D01*
X006994Y001585D02*
X008727Y001585D01*
X008727Y001744D02*
X006994Y001744D01*
X006989Y001902D02*
X008727Y001902D01*
X008727Y002061D02*
X006830Y002061D01*
X006739Y002219D02*
X008727Y002219D01*
X008727Y002378D02*
X006898Y002378D01*
X006994Y002536D02*
X008727Y002536D01*
X008727Y002695D02*
X006994Y002695D01*
X006994Y002853D02*
X008727Y002853D01*
X008727Y003012D02*
X006879Y003012D01*
X006721Y003170D02*
X008727Y003170D01*
X008727Y003329D02*
X006174Y003329D01*
X006175Y003487D02*
X008727Y003487D01*
X008727Y003646D02*
X008233Y003646D01*
X008415Y003804D02*
X008727Y003804D01*
X008727Y003963D02*
X008482Y003963D01*
X008494Y004121D02*
X008727Y004121D01*
X008727Y004280D02*
X008460Y004280D01*
X008362Y004438D02*
X008727Y004438D01*
X008727Y004597D02*
X008115Y004597D01*
X008366Y004755D02*
X008727Y004755D01*
X008727Y004914D02*
X008461Y004914D01*
X008494Y005072D02*
X008727Y005072D01*
X008727Y005231D02*
X008480Y005231D01*
X008411Y005389D02*
X008727Y005389D01*
X008727Y005548D02*
X008572Y005548D01*
X007854Y004597D02*
X006194Y004597D01*
X006273Y004438D02*
X007607Y004438D01*
X007509Y004280D02*
X006273Y004280D01*
X006273Y004121D02*
X007474Y004121D01*
X007487Y003963D02*
X006163Y003963D01*
X006167Y003804D02*
X007553Y003804D01*
X007735Y003646D02*
X006171Y003646D01*
X006174Y003170D02*
X006248Y003170D01*
X005735Y004597D02*
X005684Y004597D01*
X005684Y004755D02*
X007602Y004755D01*
X007507Y004914D02*
X005688Y004914D01*
X005847Y005072D02*
X007474Y005072D01*
X007468Y005231D02*
X007489Y005231D01*
X006022Y001427D02*
X005947Y001427D01*
X005788Y001268D02*
X006180Y001268D01*
X006788Y001268D02*
X007917Y001268D01*
X007733Y001110D02*
X001236Y001110D01*
X001249Y001096D02*
X001096Y001249D01*
X000896Y001332D01*
X000679Y001332D01*
X000479Y001249D01*
X000325Y001096D01*
X000242Y000896D01*
X000242Y000679D01*
X000325Y000479D01*
X000479Y000325D01*
X000679Y000242D01*
X000896Y000242D01*
X001096Y000325D01*
X001249Y000479D01*
X001332Y000679D01*
X001332Y000896D01*
X001249Y001096D01*
X001309Y000951D02*
X007659Y000951D01*
X007636Y000793D02*
X001332Y000793D01*
X001314Y000634D02*
X007655Y000634D01*
X007722Y000476D02*
X001246Y000476D01*
X001076Y000317D02*
X007893Y000317D01*
X005180Y001268D02*
X004788Y001268D01*
X004947Y001427D02*
X005022Y001427D01*
X004180Y001268D02*
X003788Y001268D01*
X003947Y001427D02*
X004022Y001427D01*
X003180Y001268D02*
X002845Y001268D01*
X003004Y001427D02*
X003022Y001427D01*
X002504Y001427D02*
X002464Y001427D01*
X002464Y001585D02*
X002504Y001585D01*
X002504Y001705D02*
X002464Y001705D01*
X002464Y002135D01*
X002464Y002665D01*
X002504Y002665D01*
X002504Y001705D01*
X002504Y001744D02*
X002464Y001744D01*
X002464Y001902D02*
X002504Y001902D01*
X002504Y002061D02*
X002464Y002061D01*
X002464Y002219D02*
X002504Y002219D01*
X002504Y002378D02*
X002464Y002378D01*
X002464Y002536D02*
X002504Y002536D01*
X002464Y002695D02*
X000230Y002695D01*
X000230Y002853D02*
X001934Y002853D01*
X001934Y002913D02*
X001934Y002705D01*
X002464Y002705D01*
X002464Y003235D01*
X002256Y003235D01*
X001934Y002913D01*
X002033Y003012D02*
X000230Y003012D01*
X000230Y003170D02*
X002191Y003170D01*
X002464Y003170D02*
X002504Y003170D01*
X002504Y003012D02*
X002464Y003012D01*
X002464Y002853D02*
X002504Y002853D01*
X002777Y003170D02*
X003248Y003170D01*
X003284Y003329D02*
X000230Y003329D01*
X000230Y003487D02*
X003284Y003487D01*
X003284Y003646D02*
X001516Y003646D01*
X001534Y003804D02*
X003284Y003804D01*
X003284Y003963D02*
X001534Y003963D01*
X001534Y004121D02*
X003284Y004121D01*
X003284Y004280D02*
X001534Y004280D01*
X001534Y004438D02*
X003284Y004438D01*
X003284Y004597D02*
X001477Y004597D01*
X001366Y004755D02*
X003284Y004755D01*
X003284Y004914D02*
X001461Y004914D01*
X001494Y005072D02*
X003284Y005072D01*
X003284Y005231D02*
X001480Y005231D01*
X001411Y005389D02*
X003284Y005389D01*
X003284Y005548D02*
X001223Y005548D01*
X001317Y005706D02*
X003284Y005706D01*
X003284Y005865D02*
X001441Y005865D01*
X001494Y006023D02*
X003284Y006023D01*
X003284Y006182D02*
X001494Y006182D01*
X001435Y006340D02*
X003284Y006340D01*
X003284Y006499D02*
X001301Y006499D01*
X001261Y006657D02*
X003284Y006657D01*
X003284Y006816D02*
X001421Y006816D01*
X001486Y006974D02*
X003284Y006974D01*
X003284Y007133D02*
X001494Y007133D01*
X001455Y007291D02*
X003284Y007291D01*
X003284Y007450D02*
X001350Y007450D01*
X001142Y007608D02*
X003284Y007608D01*
X003284Y007767D02*
X001378Y007767D01*
X001466Y007925D02*
X003284Y007925D01*
X003284Y008084D02*
X001494Y008084D01*
X001475Y008242D02*
X003284Y008242D01*
X003284Y008401D02*
X001399Y008401D01*
X001195Y008559D02*
X003264Y008559D01*
X003106Y008718D02*
X001329Y008718D01*
X001446Y008876D02*
X002947Y008876D01*
X002789Y009035D02*
X001494Y009035D01*
X001494Y009193D02*
X002630Y009193D01*
X002472Y009352D02*
X001430Y009352D01*
X001290Y009510D02*
X002313Y009510D01*
X002155Y009669D02*
X001280Y009669D01*
X001425Y009827D02*
X001996Y009827D01*
X001838Y009986D02*
X001491Y009986D01*
X001494Y010144D02*
X001679Y010144D01*
X001521Y010303D02*
X001450Y010303D01*
X001473Y010461D02*
X001339Y010461D01*
X001473Y010620D02*
X001170Y010620D01*
X001389Y010778D02*
X001473Y010778D01*
X001471Y010937D02*
X001473Y010937D01*
X001873Y010937D02*
X004284Y010937D01*
X004284Y011095D02*
X004071Y011095D01*
X004108Y011132D02*
X004108Y011624D01*
X004040Y011692D01*
X004040Y020359D01*
X004000Y020454D01*
X003927Y020528D01*
X003913Y020533D01*
X001612Y022834D01*
X007474Y022834D01*
X007474Y022666D01*
X007556Y022584D01*
X007734Y022584D01*
X007696Y022565D01*
X007626Y022514D01*
X007565Y022453D01*
X007514Y022383D01*
X007475Y022306D01*
X007448Y022223D01*
X007434Y022138D01*
X007434Y022114D01*
X007964Y022114D01*
X007964Y022074D01*
X007434Y022074D01*
X007434Y022051D01*
X007448Y021966D01*
X007473Y021889D01*
X007154Y022208D01*
X006332Y022208D01*
X006332Y022234D01*
X006250Y022316D01*
X005797Y022316D01*
X005715Y022234D01*
X005715Y021781D01*
X005797Y021699D01*
X006250Y021699D01*
X006332Y021781D01*
X006332Y021808D01*
X006988Y021808D01*
X007511Y021285D01*
X007474Y021196D01*
X007474Y020993D01*
X007552Y020806D01*
X007695Y020662D01*
X007859Y020594D01*
X007695Y020527D01*
X007552Y020383D01*
X007474Y020196D01*
X007474Y019993D01*
X007552Y019806D01*
X007695Y019662D01*
X007859Y019594D01*
X007695Y019527D01*
X007552Y019383D01*
X007474Y019196D01*
X007474Y018993D01*
X007552Y018806D01*
X007695Y018662D01*
X007859Y018594D01*
X007695Y018527D01*
X007552Y018383D01*
X007474Y018196D01*
X007474Y017993D01*
X007511Y017904D01*
X004409Y014802D01*
X004401Y014802D01*
X004284Y014685D01*
X004284Y003195D01*
X004273Y003195D01*
X003984Y002906D01*
X003695Y003195D01*
X003684Y003195D01*
X003684Y008705D01*
X001873Y010516D01*
X001873Y012780D01*
X001756Y012897D01*
X001494Y013159D01*
X001494Y013196D01*
X001417Y013383D01*
X001273Y013527D01*
X001110Y013594D01*
X001273Y013662D01*
X001417Y013806D01*
X001494Y013993D01*
X001494Y014196D01*
X001417Y014383D01*
X001273Y014527D01*
X001110Y014594D01*
X001273Y014662D01*
X001417Y014806D01*
X001494Y014993D01*
X001494Y015196D01*
X001417Y015383D01*
X001273Y015527D01*
X001110Y015594D01*
X001273Y015662D01*
X001417Y015806D01*
X001494Y015993D01*
X001494Y016196D01*
X001417Y016383D01*
X001273Y016527D01*
X001110Y016594D01*
X001273Y016662D01*
X001417Y016806D01*
X001494Y016993D01*
X001494Y017196D01*
X001417Y017383D01*
X001273Y017527D01*
X001110Y017594D01*
X001273Y017662D01*
X001417Y017806D01*
X001494Y017993D01*
X001494Y018196D01*
X001417Y018383D01*
X001273Y018527D01*
X001110Y018594D01*
X001273Y018662D01*
X001417Y018806D01*
X001494Y018993D01*
X001494Y019196D01*
X001417Y019383D01*
X001273Y019527D01*
X001110Y019594D01*
X001273Y019662D01*
X001417Y019806D01*
X001494Y019993D01*
X001494Y020196D01*
X001417Y020383D01*
X001273Y020527D01*
X001110Y020594D01*
X001273Y020662D01*
X001417Y020806D01*
X001494Y020993D01*
X001494Y021196D01*
X001417Y021383D01*
X001273Y021527D01*
X001161Y021573D01*
X001195Y021585D01*
X001273Y021624D01*
X001343Y021675D01*
X001404Y021736D01*
X001455Y021806D01*
X001494Y021883D01*
X001521Y021966D01*
X001534Y022051D01*
X001534Y022074D01*
X001004Y022074D01*
X001004Y022114D01*
X001534Y022114D01*
X001534Y022138D01*
X001527Y022184D01*
X003520Y020192D01*
X003520Y011692D01*
X003451Y011624D01*
X003451Y011132D01*
X003533Y011050D01*
X004026Y011050D01*
X004108Y011132D01*
X004108Y011254D02*
X004284Y011254D01*
X004284Y011412D02*
X004108Y011412D01*
X004108Y011571D02*
X004284Y011571D01*
X004284Y011729D02*
X004040Y011729D01*
X004040Y011888D02*
X004284Y011888D01*
X004284Y012046D02*
X004040Y012046D01*
X004040Y012205D02*
X004284Y012205D01*
X004284Y012363D02*
X004040Y012363D01*
X004040Y012522D02*
X004284Y012522D01*
X004284Y012680D02*
X004040Y012680D01*
X004040Y012839D02*
X004284Y012839D01*
X004284Y012997D02*
X004040Y012997D01*
X004040Y013156D02*
X004284Y013156D01*
X004284Y013314D02*
X004040Y013314D01*
X004040Y013473D02*
X004284Y013473D01*
X004284Y013631D02*
X004040Y013631D01*
X004040Y013790D02*
X004284Y013790D01*
X004284Y013948D02*
X004040Y013948D01*
X004040Y014107D02*
X004284Y014107D01*
X004284Y014265D02*
X004040Y014265D01*
X004040Y014424D02*
X004284Y014424D01*
X004284Y014582D02*
X004040Y014582D01*
X004040Y014741D02*
X004340Y014741D01*
X004506Y014899D02*
X004040Y014899D01*
X004040Y015058D02*
X004664Y015058D01*
X004823Y015216D02*
X004040Y015216D01*
X004040Y015375D02*
X004981Y015375D01*
X005140Y015533D02*
X004040Y015533D01*
X004040Y015692D02*
X005298Y015692D01*
X005457Y015850D02*
X004040Y015850D01*
X004040Y016009D02*
X005615Y016009D01*
X005774Y016167D02*
X004040Y016167D01*
X004040Y016326D02*
X005932Y016326D01*
X006091Y016484D02*
X004040Y016484D01*
X004040Y016643D02*
X006249Y016643D01*
X006408Y016801D02*
X004040Y016801D01*
X004040Y016960D02*
X006566Y016960D01*
X006725Y017118D02*
X004040Y017118D01*
X004040Y017277D02*
X006883Y017277D01*
X007042Y017435D02*
X004040Y017435D01*
X004040Y017594D02*
X007200Y017594D01*
X007359Y017752D02*
X004040Y017752D01*
X004040Y017911D02*
X007508Y017911D01*
X007474Y018069D02*
X004040Y018069D01*
X004040Y018228D02*
X007487Y018228D01*
X007555Y018386D02*
X004040Y018386D01*
X004040Y018545D02*
X007738Y018545D01*
X007654Y018703D02*
X004040Y018703D01*
X004040Y018862D02*
X007529Y018862D01*
X007474Y019020D02*
X004040Y019020D01*
X004040Y019179D02*
X007474Y019179D01*
X007533Y019337D02*
X004040Y019337D01*
X004040Y019496D02*
X007664Y019496D01*
X007715Y019654D02*
X004040Y019654D01*
X004040Y019813D02*
X007549Y019813D01*
X007483Y019971D02*
X004040Y019971D01*
X004040Y020130D02*
X007474Y020130D01*
X007512Y020288D02*
X004040Y020288D01*
X004003Y020447D02*
X007615Y020447D01*
X007594Y020764D02*
X003683Y020764D01*
X003524Y020922D02*
X007504Y020922D01*
X007474Y021081D02*
X003366Y021081D01*
X003207Y021239D02*
X007492Y021239D01*
X007398Y021398D02*
X003049Y021398D01*
X002890Y021556D02*
X007240Y021556D01*
X007081Y021715D02*
X006265Y021715D01*
X005782Y021715D02*
X002732Y021715D01*
X002573Y021873D02*
X005715Y021873D01*
X005715Y022032D02*
X002415Y022032D01*
X002256Y022190D02*
X005715Y022190D01*
X007172Y022190D02*
X007443Y022190D01*
X007437Y022032D02*
X007330Y022032D01*
X007496Y022349D02*
X002098Y022349D01*
X001939Y022507D02*
X007619Y022507D01*
X007475Y022666D02*
X001781Y022666D01*
X001622Y022824D02*
X007474Y022824D01*
X007474Y023458D02*
X001342Y023458D01*
X000627Y023458D02*
X000230Y023458D01*
X000230Y023300D02*
X000517Y023300D01*
X000474Y023141D02*
X000230Y023141D01*
X000230Y022983D02*
X000479Y022983D01*
X000544Y022824D02*
X000230Y022824D01*
X000230Y022666D02*
X000692Y022666D01*
X000619Y022507D02*
X000230Y022507D01*
X000230Y022349D02*
X000496Y022349D01*
X000443Y022190D02*
X000230Y022190D01*
X000230Y022032D02*
X000437Y022032D01*
X000480Y021873D02*
X000230Y021873D01*
X000230Y021715D02*
X000586Y021715D01*
X000766Y021556D02*
X000230Y021556D01*
X000230Y021398D02*
X000566Y021398D01*
X000492Y021239D02*
X000230Y021239D01*
X000230Y021081D02*
X000474Y021081D01*
X000504Y020922D02*
X000230Y020922D01*
X000230Y020764D02*
X000594Y020764D01*
X000615Y020447D02*
X000230Y020447D01*
X000230Y020605D02*
X000833Y020605D01*
X001135Y020605D02*
X003106Y020605D01*
X003265Y020447D02*
X001353Y020447D01*
X001456Y020288D02*
X003423Y020288D01*
X003520Y020130D02*
X001494Y020130D01*
X001485Y019971D02*
X003520Y019971D01*
X003520Y019813D02*
X001419Y019813D01*
X001304Y019496D02*
X003520Y019496D01*
X003520Y019654D02*
X001254Y019654D01*
X001436Y019337D02*
X003520Y019337D01*
X003520Y019179D02*
X001494Y019179D01*
X001494Y019020D02*
X003520Y019020D01*
X003520Y018862D02*
X001440Y018862D01*
X001314Y018703D02*
X003520Y018703D01*
X003520Y018545D02*
X001230Y018545D01*
X001414Y018386D02*
X003520Y018386D01*
X003520Y018228D02*
X001481Y018228D01*
X001494Y018069D02*
X003520Y018069D01*
X003520Y017911D02*
X001460Y017911D01*
X001363Y017752D02*
X003520Y017752D01*
X003520Y017594D02*
X001112Y017594D01*
X001365Y017435D02*
X003520Y017435D01*
X003520Y017277D02*
X001461Y017277D01*
X001494Y017118D02*
X003520Y017118D01*
X003520Y016960D02*
X001480Y016960D01*
X001412Y016801D02*
X003520Y016801D01*
X003520Y016643D02*
X001226Y016643D01*
X001316Y016484D02*
X003520Y016484D01*
X003520Y016326D02*
X001441Y016326D01*
X001494Y016167D02*
X003520Y016167D01*
X003520Y016009D02*
X001494Y016009D01*
X001435Y015850D02*
X003520Y015850D01*
X003520Y015692D02*
X001303Y015692D01*
X001258Y015533D02*
X003520Y015533D01*
X003520Y015375D02*
X001420Y015375D01*
X001486Y015216D02*
X003520Y015216D01*
X003520Y015058D02*
X001494Y015058D01*
X001455Y014899D02*
X003520Y014899D01*
X003520Y014741D02*
X001352Y014741D01*
X001140Y014582D02*
X003520Y014582D01*
X003520Y014424D02*
X001376Y014424D01*
X001466Y014265D02*
X003520Y014265D01*
X003520Y014107D02*
X001494Y014107D01*
X001476Y013948D02*
X003520Y013948D01*
X003520Y013790D02*
X001401Y013790D01*
X001198Y013631D02*
X003520Y013631D01*
X003520Y013473D02*
X001327Y013473D01*
X001445Y013314D02*
X003520Y013314D01*
X003520Y013156D02*
X001497Y013156D01*
X001656Y012997D02*
X003520Y012997D01*
X003520Y012839D02*
X001814Y012839D01*
X001873Y012680D02*
X003520Y012680D01*
X003520Y012522D02*
X001873Y012522D01*
X001873Y012363D02*
X003520Y012363D01*
X003520Y012205D02*
X001873Y012205D01*
X001873Y012046D02*
X003520Y012046D01*
X003520Y011888D02*
X001873Y011888D01*
X001873Y011729D02*
X003520Y011729D01*
X003451Y011571D02*
X001873Y011571D01*
X001873Y011412D02*
X003451Y011412D01*
X003451Y011254D02*
X001873Y011254D01*
X001873Y011095D02*
X003488Y011095D01*
X004284Y010778D02*
X001873Y010778D01*
X001873Y010620D02*
X004284Y010620D01*
X004284Y010461D02*
X001928Y010461D01*
X002087Y010303D02*
X004284Y010303D01*
X004284Y010144D02*
X002245Y010144D01*
X002404Y009986D02*
X004284Y009986D01*
X004284Y009827D02*
X002562Y009827D01*
X002721Y009669D02*
X004284Y009669D01*
X004284Y009510D02*
X002879Y009510D01*
X003038Y009352D02*
X004284Y009352D01*
X004284Y009193D02*
X003196Y009193D01*
X003355Y009035D02*
X004284Y009035D01*
X004284Y008876D02*
X003513Y008876D01*
X003672Y008718D02*
X004284Y008718D01*
X004284Y008559D02*
X003684Y008559D01*
X003684Y008401D02*
X004284Y008401D01*
X004284Y008242D02*
X003684Y008242D01*
X003684Y008084D02*
X004284Y008084D01*
X004284Y007925D02*
X003684Y007925D01*
X003684Y007767D02*
X004284Y007767D01*
X004284Y007608D02*
X003684Y007608D01*
X003684Y007450D02*
X004284Y007450D01*
X004284Y007291D02*
X003684Y007291D01*
X003684Y007133D02*
X004284Y007133D01*
X004284Y006974D02*
X003684Y006974D01*
X003684Y006816D02*
X004284Y006816D01*
X004284Y006657D02*
X003684Y006657D01*
X003684Y006499D02*
X004284Y006499D01*
X004284Y006340D02*
X003684Y006340D01*
X003684Y006182D02*
X004284Y006182D01*
X004284Y006023D02*
X003684Y006023D01*
X003684Y005865D02*
X004284Y005865D01*
X004284Y005706D02*
X003684Y005706D01*
X003684Y005548D02*
X004284Y005548D01*
X004284Y005389D02*
X003684Y005389D01*
X003684Y005231D02*
X004284Y005231D01*
X004284Y005072D02*
X003684Y005072D01*
X003684Y004914D02*
X004284Y004914D01*
X004284Y004755D02*
X003684Y004755D01*
X003684Y004597D02*
X004284Y004597D01*
X004284Y004438D02*
X003684Y004438D01*
X003684Y004280D02*
X004284Y004280D01*
X004284Y004121D02*
X003684Y004121D01*
X003684Y003963D02*
X004284Y003963D01*
X004284Y003804D02*
X003684Y003804D01*
X003684Y003646D02*
X004284Y003646D01*
X004284Y003487D02*
X003684Y003487D01*
X003684Y003329D02*
X004284Y003329D01*
X004248Y003170D02*
X003721Y003170D01*
X003879Y003012D02*
X004089Y003012D01*
X003089Y003012D02*
X002936Y003012D01*
X002172Y002219D02*
X000230Y002219D01*
X000230Y002061D02*
X002082Y002061D01*
X001934Y001902D02*
X000230Y001902D01*
X000230Y001744D02*
X001934Y001744D01*
X001934Y001585D02*
X000230Y001585D01*
X000230Y001427D02*
X001965Y001427D01*
X002123Y001268D02*
X001051Y001268D01*
X000524Y001268D02*
X000230Y001268D01*
X000230Y001110D02*
X000339Y001110D01*
X000265Y000951D02*
X000230Y000951D01*
X000230Y000793D02*
X000242Y000793D01*
X000230Y000634D02*
X000261Y000634D01*
X000230Y000476D02*
X000329Y000476D01*
X000230Y000317D02*
X000499Y000317D01*
X000230Y002378D02*
X002014Y002378D01*
X001934Y002536D02*
X000230Y002536D01*
X000545Y003557D02*
X000591Y003544D01*
X000964Y003544D01*
X000964Y004074D01*
X000434Y004074D01*
X000434Y003701D01*
X000447Y003655D01*
X000470Y003614D01*
X000504Y003580D01*
X000545Y003557D01*
X000452Y003646D02*
X000230Y003646D01*
X000230Y003804D02*
X000434Y003804D01*
X000434Y003963D02*
X000230Y003963D01*
X000230Y004121D02*
X000434Y004121D01*
X000434Y004280D02*
X000230Y004280D01*
X000230Y004438D02*
X000434Y004438D01*
X000492Y004597D02*
X000230Y004597D01*
X000230Y004755D02*
X000602Y004755D01*
X000507Y004914D02*
X000230Y004914D01*
X000230Y005072D02*
X000474Y005072D01*
X000489Y005231D02*
X000230Y005231D01*
X000230Y005389D02*
X000558Y005389D01*
X000745Y005548D02*
X000230Y005548D01*
X000230Y005706D02*
X000651Y005706D01*
X000527Y005865D02*
X000230Y005865D01*
X000230Y006023D02*
X000474Y006023D01*
X000474Y006182D02*
X000230Y006182D01*
X000230Y006340D02*
X000534Y006340D01*
X000667Y006499D02*
X000230Y006499D01*
X000230Y006657D02*
X000708Y006657D01*
X000548Y006816D02*
X000230Y006816D01*
X000230Y006974D02*
X000482Y006974D01*
X000474Y007133D02*
X000230Y007133D01*
X000230Y007291D02*
X000514Y007291D01*
X000618Y007450D02*
X000230Y007450D01*
X000230Y007608D02*
X000826Y007608D01*
X000591Y007767D02*
X000230Y007767D01*
X000230Y007925D02*
X000502Y007925D01*
X000474Y008084D02*
X000230Y008084D01*
X000230Y008242D02*
X000493Y008242D01*
X000569Y008401D02*
X000230Y008401D01*
X000230Y008559D02*
X000773Y008559D01*
X000640Y008718D02*
X000230Y008718D01*
X000230Y008876D02*
X000523Y008876D01*
X000474Y009035D02*
X000230Y009035D01*
X000230Y009193D02*
X000474Y009193D01*
X000539Y009352D02*
X000230Y009352D01*
X000230Y009510D02*
X000679Y009510D01*
X000689Y009669D02*
X000230Y009669D01*
X000230Y009827D02*
X000543Y009827D01*
X000477Y009986D02*
X000230Y009986D01*
X000230Y010144D02*
X000474Y010144D01*
X000518Y010303D02*
X000230Y010303D01*
X000230Y010461D02*
X000630Y010461D01*
X000798Y010620D02*
X000230Y010620D01*
X000230Y010778D02*
X000579Y010778D01*
X000498Y010937D02*
X000230Y010937D01*
X000230Y011095D02*
X000474Y011095D01*
X000498Y011254D02*
X000230Y011254D01*
X000230Y011412D02*
X000581Y011412D01*
X000628Y011729D02*
X000230Y011729D01*
X000230Y011571D02*
X000801Y011571D01*
X000518Y011888D02*
X000230Y011888D01*
X000230Y012046D02*
X000474Y012046D01*
X000478Y012205D02*
X000230Y012205D01*
X000230Y012363D02*
X000543Y012363D01*
X000690Y012522D02*
X000230Y012522D01*
X000230Y012680D02*
X000677Y012680D01*
X000538Y012839D02*
X000230Y012839D01*
X000230Y012997D02*
X000474Y012997D01*
X000474Y013156D02*
X000230Y013156D01*
X000230Y013314D02*
X000523Y013314D01*
X000641Y013473D02*
X000230Y013473D01*
X000230Y013631D02*
X000770Y013631D01*
X000568Y013790D02*
X000230Y013790D01*
X000230Y013948D02*
X000493Y013948D01*
X000474Y014107D02*
X000230Y014107D01*
X000230Y014265D02*
X000503Y014265D01*
X000592Y014424D02*
X000230Y014424D01*
X000230Y014582D02*
X000829Y014582D01*
X000617Y014741D02*
X000230Y014741D01*
X000230Y014899D02*
X000513Y014899D01*
X000474Y015058D02*
X000230Y015058D01*
X000230Y015216D02*
X000483Y015216D01*
X000548Y015375D02*
X000230Y015375D01*
X000230Y015533D02*
X000710Y015533D01*
X000666Y015692D02*
X000230Y015692D01*
X000230Y015850D02*
X000533Y015850D01*
X000474Y016009D02*
X000230Y016009D01*
X000230Y016167D02*
X000474Y016167D01*
X000528Y016326D02*
X000230Y016326D01*
X000230Y016484D02*
X000653Y016484D01*
X000743Y016643D02*
X000230Y016643D01*
X000230Y016801D02*
X000556Y016801D01*
X000488Y016960D02*
X000230Y016960D01*
X000230Y017118D02*
X000474Y017118D01*
X000508Y017277D02*
X000230Y017277D01*
X000230Y017435D02*
X000604Y017435D01*
X000605Y017752D02*
X000230Y017752D01*
X000230Y017594D02*
X000856Y017594D01*
X000508Y017911D02*
X000230Y017911D01*
X000230Y018069D02*
X000474Y018069D01*
X000487Y018228D02*
X000230Y018228D01*
X000230Y018386D02*
X000555Y018386D01*
X000738Y018545D02*
X000230Y018545D01*
X000230Y018703D02*
X000654Y018703D01*
X000529Y018862D02*
X000230Y018862D01*
X000230Y019020D02*
X000474Y019020D01*
X000474Y019179D02*
X000230Y019179D01*
X000230Y019337D02*
X000533Y019337D01*
X000664Y019496D02*
X000230Y019496D01*
X000230Y019654D02*
X000715Y019654D01*
X000549Y019813D02*
X000230Y019813D01*
X000230Y019971D02*
X000483Y019971D01*
X000474Y020130D02*
X000230Y020130D01*
X000230Y020288D02*
X000512Y020288D01*
X001203Y021556D02*
X002155Y021556D01*
X002314Y021398D02*
X001402Y021398D01*
X001476Y021239D02*
X002472Y021239D01*
X002631Y021081D02*
X001494Y021081D01*
X001465Y020922D02*
X002789Y020922D01*
X002948Y020764D02*
X001375Y020764D01*
X001382Y021715D02*
X001997Y021715D01*
X001838Y021873D02*
X001489Y021873D01*
X001531Y022032D02*
X001680Y022032D01*
X000230Y023617D02*
X008727Y023617D01*
X008727Y023775D02*
X000230Y023775D01*
X000230Y023934D02*
X008727Y023934D01*
X008727Y024092D02*
X000230Y024092D01*
X000230Y024251D02*
X008727Y024251D01*
X008727Y024409D02*
X000230Y024409D01*
X000230Y024568D02*
X008727Y024568D01*
X008727Y024726D02*
X000230Y024726D01*
X000230Y024885D02*
X008727Y024885D01*
X008727Y025043D02*
X008043Y025043D01*
X008028Y025041D02*
X008113Y025054D01*
X008195Y025081D01*
X008273Y025120D01*
X008343Y025171D01*
X008404Y025232D01*
X008455Y025302D01*
X008494Y025379D01*
X008521Y025462D01*
X008534Y025547D01*
X008534Y025571D01*
X008004Y025571D01*
X008004Y025611D01*
X007964Y025611D01*
X007964Y026141D01*
X007964Y026571D01*
X007434Y026571D01*
X007434Y026547D01*
X007448Y026462D01*
X007475Y026379D01*
X007514Y026302D01*
X007565Y026232D01*
X007626Y026171D01*
X007696Y026120D01*
X007754Y026091D01*
X007696Y026061D01*
X007626Y026010D01*
X007565Y025949D01*
X007514Y025879D01*
X007475Y025802D01*
X007448Y025719D01*
X007434Y025634D01*
X007434Y025611D01*
X007964Y025611D01*
X007964Y025571D01*
X007434Y025571D01*
X007434Y025547D01*
X007448Y025462D01*
X007475Y025379D01*
X007514Y025302D01*
X007565Y025232D01*
X007626Y025171D01*
X007696Y025120D01*
X007773Y025081D01*
X007855Y025054D01*
X007941Y025041D01*
X007964Y025041D01*
X007964Y025571D01*
X008004Y025571D01*
X008004Y025041D01*
X008028Y025041D01*
X008004Y025043D02*
X007964Y025043D01*
X007925Y025043D02*
X000230Y025043D01*
X000230Y025202D02*
X000652Y025202D01*
X000695Y025158D02*
X000883Y025081D01*
X001086Y025081D01*
X001273Y025158D01*
X001417Y025302D01*
X001494Y025489D01*
X001494Y025692D01*
X001417Y025879D01*
X001284Y026012D01*
X001284Y026169D01*
X001417Y026302D01*
X001494Y026489D01*
X001494Y026692D01*
X001417Y026879D01*
X001284Y027012D01*
X001284Y027169D01*
X001417Y027302D01*
X001494Y027489D01*
X001494Y027692D01*
X001417Y027879D01*
X001273Y028023D01*
X001086Y028101D01*
X000883Y028101D01*
X000695Y028023D01*
X000552Y027879D01*
X000474Y027692D01*
X000474Y027489D01*
X000552Y027302D01*
X000684Y027169D01*
X000684Y027012D01*
X000552Y026879D01*
X000474Y026692D01*
X000474Y026489D01*
X000552Y026302D01*
X000684Y026169D01*
X000684Y026012D01*
X000552Y025879D01*
X000474Y025692D01*
X000474Y025489D01*
X000552Y025302D01*
X000695Y025158D01*
X000528Y025360D02*
X000230Y025360D01*
X000230Y025519D02*
X000474Y025519D01*
X000474Y025677D02*
X000230Y025677D01*
X000230Y025836D02*
X000534Y025836D01*
X000666Y025994D02*
X000230Y025994D01*
X000230Y026153D02*
X000684Y026153D01*
X000548Y026311D02*
X000230Y026311D01*
X000230Y026470D02*
X000482Y026470D01*
X000474Y026628D02*
X000230Y026628D01*
X000230Y026787D02*
X000513Y026787D01*
X000617Y026945D02*
X000230Y026945D01*
X000230Y027104D02*
X000684Y027104D01*
X000592Y027262D02*
X000230Y027262D01*
X000230Y027421D02*
X000503Y027421D01*
X000474Y027579D02*
X000230Y027579D01*
X000230Y027738D02*
X000493Y027738D01*
X000568Y027896D02*
X000230Y027896D01*
X000230Y028055D02*
X000772Y028055D01*
X000679Y028392D02*
X000896Y028392D01*
X001096Y028475D01*
X001249Y028628D01*
X001332Y028829D01*
X001332Y029045D01*
X001249Y029246D01*
X001096Y029399D01*
X000896Y029482D01*
X000679Y029482D01*
X000479Y029399D01*
X000325Y029246D01*
X000242Y029045D01*
X000242Y028829D01*
X000325Y028628D01*
X000479Y028475D01*
X000679Y028392D01*
X000424Y028530D02*
X000230Y028530D01*
X000230Y028372D02*
X008727Y028372D01*
X008727Y028530D02*
X008545Y028530D01*
X008490Y028475D02*
X008643Y028628D01*
X008726Y028829D01*
X008726Y029045D01*
X008643Y029246D01*
X008490Y029399D01*
X008290Y029482D01*
X008073Y029482D01*
X007872Y029399D01*
X007719Y029246D01*
X007636Y029045D01*
X007636Y028829D01*
X007719Y028628D01*
X007872Y028475D01*
X008073Y028392D01*
X008290Y028392D01*
X008490Y028475D01*
X008668Y028689D02*
X008727Y028689D01*
X008726Y028847D02*
X008727Y028847D01*
X008726Y029006D02*
X008727Y029006D01*
X008727Y029164D02*
X008677Y029164D01*
X008727Y029323D02*
X008566Y029323D01*
X008727Y029481D02*
X008292Y029481D01*
X008070Y029481D02*
X000898Y029481D01*
X000677Y029481D02*
X000230Y029481D01*
X000230Y029323D02*
X000402Y029323D01*
X000292Y029164D02*
X000230Y029164D01*
X000230Y029006D02*
X000242Y029006D01*
X000230Y028847D02*
X000242Y028847D01*
X000230Y028689D02*
X000300Y028689D01*
X000230Y028213D02*
X008727Y028213D01*
X008727Y028055D02*
X008281Y028055D01*
X008273Y028061D02*
X008195Y028100D01*
X008113Y028127D01*
X008028Y028141D01*
X008004Y028141D01*
X008004Y027611D01*
X007964Y027611D01*
X007964Y028141D01*
X007941Y028141D01*
X007855Y028127D01*
X007773Y028100D01*
X007696Y028061D01*
X007626Y028010D01*
X007565Y027949D01*
X007514Y027879D01*
X007475Y027802D01*
X007448Y027719D01*
X007434Y027634D01*
X007434Y027611D01*
X007964Y027611D01*
X007964Y027571D01*
X007434Y027571D01*
X007434Y027547D01*
X007448Y027462D01*
X007475Y027379D01*
X007514Y027302D01*
X007565Y027232D01*
X007626Y027171D01*
X007696Y027120D01*
X007754Y027091D01*
X007696Y027061D01*
X007626Y027010D01*
X007565Y026949D01*
X007514Y026879D01*
X007475Y026802D01*
X007448Y026719D01*
X007434Y026634D01*
X007434Y026611D01*
X007964Y026611D01*
X007964Y027141D01*
X007964Y027571D01*
X008004Y027571D01*
X008004Y027611D01*
X008534Y027611D01*
X008534Y027634D01*
X008521Y027719D01*
X008494Y027802D01*
X008455Y027879D01*
X008404Y027949D01*
X008343Y028010D01*
X008273Y028061D01*
X008442Y027896D02*
X008727Y027896D01*
X008727Y027738D02*
X008515Y027738D01*
X008534Y027571D02*
X008004Y027571D01*
X008004Y026611D01*
X007964Y026611D01*
X007964Y026571D01*
X008004Y026571D01*
X008004Y026611D01*
X008534Y026611D01*
X008534Y026634D01*
X008521Y026719D01*
X008494Y026802D01*
X008455Y026879D01*
X008404Y026949D01*
X008343Y027010D01*
X008273Y027061D01*
X008214Y027091D01*
X008273Y027120D01*
X008343Y027171D01*
X008404Y027232D01*
X008455Y027302D01*
X008494Y027379D01*
X008521Y027462D01*
X008534Y027547D01*
X008534Y027571D01*
X008507Y027421D02*
X008727Y027421D01*
X008727Y027579D02*
X008004Y027579D01*
X007964Y027579D02*
X001494Y027579D01*
X001475Y027738D02*
X007454Y027738D01*
X007526Y027896D02*
X001400Y027896D01*
X001197Y028055D02*
X007687Y028055D01*
X007964Y028055D02*
X008004Y028055D01*
X008004Y027896D02*
X007964Y027896D01*
X007964Y027738D02*
X008004Y027738D01*
X008004Y027421D02*
X007964Y027421D01*
X007964Y027262D02*
X008004Y027262D01*
X008004Y027104D02*
X007964Y027104D01*
X007964Y026945D02*
X008004Y026945D01*
X008004Y026787D02*
X007964Y026787D01*
X007964Y026628D02*
X008004Y026628D01*
X008004Y026571D02*
X008534Y026571D01*
X008534Y026547D01*
X008521Y026462D01*
X008494Y026379D01*
X008455Y026302D01*
X008404Y026232D01*
X008343Y026171D01*
X008273Y026120D01*
X008214Y026091D01*
X008273Y026061D01*
X008343Y026010D01*
X008404Y025949D01*
X008455Y025879D01*
X008494Y025802D01*
X008521Y025719D01*
X008534Y025634D01*
X008534Y025611D01*
X008004Y025611D01*
X008004Y026571D01*
X008004Y026470D02*
X007964Y026470D01*
X007964Y026311D02*
X008004Y026311D01*
X008004Y026153D02*
X007964Y026153D01*
X007964Y025994D02*
X008004Y025994D01*
X008004Y025836D02*
X007964Y025836D01*
X007964Y025677D02*
X008004Y025677D01*
X008004Y025519D02*
X007964Y025519D01*
X007964Y025360D02*
X008004Y025360D01*
X008004Y025202D02*
X007964Y025202D01*
X008373Y025202D02*
X008727Y025202D01*
X008727Y025360D02*
X008484Y025360D01*
X008530Y025519D02*
X008727Y025519D01*
X008727Y025677D02*
X008527Y025677D01*
X008477Y025836D02*
X008727Y025836D01*
X008727Y025994D02*
X008359Y025994D01*
X008317Y026153D02*
X008727Y026153D01*
X008727Y026311D02*
X008459Y026311D01*
X008522Y026470D02*
X008727Y026470D01*
X008727Y026628D02*
X008534Y026628D01*
X008499Y026787D02*
X008727Y026787D01*
X008727Y026945D02*
X008407Y026945D01*
X008240Y027104D02*
X008727Y027104D01*
X008727Y027262D02*
X008425Y027262D01*
X007729Y027104D02*
X001284Y027104D01*
X001351Y026945D02*
X007562Y026945D01*
X007470Y026787D02*
X001455Y026787D01*
X001494Y026628D02*
X007434Y026628D01*
X007447Y026470D02*
X001486Y026470D01*
X001420Y026311D02*
X007509Y026311D01*
X007651Y026153D02*
X001284Y026153D01*
X001302Y025994D02*
X007610Y025994D01*
X007492Y025836D02*
X001435Y025836D01*
X001494Y025677D02*
X007441Y025677D01*
X007439Y025519D02*
X001494Y025519D01*
X001441Y025360D02*
X007484Y025360D01*
X007595Y025202D02*
X001316Y025202D01*
X001377Y027262D02*
X007543Y027262D01*
X007461Y027421D02*
X001466Y027421D01*
X001151Y028530D02*
X007817Y028530D01*
X007694Y028689D02*
X001274Y028689D01*
X001332Y028847D02*
X007636Y028847D01*
X007636Y029006D02*
X001332Y029006D01*
X001283Y029164D02*
X007685Y029164D01*
X007796Y029323D02*
X001173Y029323D01*
X003841Y020605D02*
X007833Y020605D01*
X008135Y020605D02*
X008727Y020605D01*
X008727Y020447D02*
X008353Y020447D01*
X008456Y020288D02*
X008727Y020288D01*
X008727Y020130D02*
X008494Y020130D01*
X008485Y019971D02*
X008727Y019971D01*
X008727Y019813D02*
X008419Y019813D01*
X008254Y019654D02*
X008727Y019654D01*
X008727Y019496D02*
X008304Y019496D01*
X008436Y019337D02*
X008727Y019337D01*
X008727Y019179D02*
X008494Y019179D01*
X008494Y019020D02*
X008727Y019020D01*
X008727Y018862D02*
X008440Y018862D01*
X008314Y018703D02*
X008727Y018703D01*
X008727Y018545D02*
X008230Y018545D01*
X008414Y018386D02*
X008727Y018386D01*
X008727Y018228D02*
X008481Y018228D01*
X008494Y018069D02*
X008727Y018069D01*
X008727Y017911D02*
X008460Y017911D01*
X008363Y017752D02*
X008727Y017752D01*
X008727Y017594D02*
X008112Y017594D01*
X008365Y017435D02*
X008727Y017435D01*
X008727Y017277D02*
X008461Y017277D01*
X008494Y017118D02*
X008727Y017118D01*
X008727Y016960D02*
X008480Y016960D01*
X008546Y016801D02*
X008727Y016801D01*
X008727Y020764D02*
X008375Y020764D01*
X008465Y020922D02*
X008727Y020922D01*
X008727Y021081D02*
X008494Y021081D01*
X008476Y021239D02*
X008727Y021239D01*
X008727Y021398D02*
X008402Y021398D01*
X008203Y021556D02*
X008727Y021556D01*
X008727Y021715D02*
X008382Y021715D01*
X008489Y021873D02*
X008727Y021873D01*
X008727Y022032D02*
X008531Y022032D01*
X008526Y022190D02*
X008727Y022190D01*
X008727Y022349D02*
X008472Y022349D01*
X008350Y022507D02*
X008727Y022507D01*
X008727Y022666D02*
X008493Y022666D01*
X008494Y022824D02*
X008727Y022824D01*
X008727Y022983D02*
X008494Y022983D01*
X008494Y023141D02*
X008727Y023141D01*
X008727Y023300D02*
X008494Y023300D01*
X008494Y023458D02*
X008727Y023458D01*
X001004Y003963D02*
X000964Y003963D01*
X000964Y003804D02*
X001004Y003804D01*
X001004Y003646D02*
X000964Y003646D01*
X002464Y001268D02*
X002504Y001268D01*
D14*
X003780Y011378D03*
D15*
X003780Y020307D01*
X003772Y020307D01*
X000984Y023094D01*
X007984Y023094D01*
D16*
X007071Y022008D02*
X007984Y021094D01*
X007071Y022008D02*
X006024Y022008D01*
X007984Y018094D02*
X004492Y014602D01*
X004484Y014602D01*
X004484Y002685D01*
X005484Y002685D02*
X005484Y004992D01*
X005906Y005413D01*
X005453Y005866D02*
X006988Y011106D01*
X006996Y011106D01*
X007984Y012094D01*
X005106Y012217D02*
X007984Y015094D01*
X008563Y016524D02*
X008563Y005807D01*
X005008Y012118D02*
X005106Y012217D01*
X005008Y012118D02*
X005000Y012118D01*
X001673Y010433D02*
X003484Y008622D01*
X003484Y002685D01*
X001673Y010433D02*
X001673Y012697D01*
X001268Y013102D01*
X000992Y013102D01*
X000984Y013094D01*
D17*
X005000Y012110D02*
X005106Y012217D01*
X005000Y012110D02*
X005000Y002402D01*
X004563Y001965D01*
X004484Y001965D01*
X004484Y001685D01*
X005484Y001685D02*
X005484Y001862D01*
X005984Y002362D01*
X005984Y003524D01*
X005965Y004291D01*
X005906Y005413D02*
X007382Y005413D01*
X007559Y005591D01*
X008346Y005591D01*
X008563Y005807D01*
X005374Y008740D02*
X005374Y010406D01*
X007984Y013094D01*
X008555Y016524D02*
X007984Y017094D01*
X008555Y016524D02*
X008563Y016524D01*
D18*
X006024Y022008D03*
X005374Y008740D03*
X005453Y005866D03*
X005965Y004291D03*
D19*
X000984Y025591D02*
X000984Y026591D01*
X000984Y027591D01*
M02*
