G75*
%MOIN*%
%OFA0B0*%
%FSLAX24Y24*%
%IPPOS*%
%LPD*%
%AMOC8*
5,1,8,0,0,1.08239X$1,22.5*
%
%ADD10R,0.0394X0.0433*%
%ADD11R,0.0330X0.0110*%
%ADD12R,0.0110X0.0330*%
%ADD13R,0.1610X0.1610*%
%ADD14R,0.0217X0.0472*%
%ADD15R,0.0197X0.0394*%
%ADD16C,0.0740*%
%ADD17R,0.0315X0.0472*%
%ADD18R,0.0472X0.0472*%
%ADD19OC8,0.0740*%
%ADD20R,0.0740X0.0740*%
%ADD21C,0.0160*%
%ADD22C,0.0100*%
%ADD23C,0.0120*%
%ADD24C,0.0240*%
%ADD25R,0.0376X0.0376*%
%ADD26R,0.0337X0.0337*%
D10*
X003307Y020807D03*
X003307Y021476D03*
X004193Y021476D03*
X004193Y020807D03*
X003171Y025571D03*
X003171Y026240D03*
X005996Y026240D03*
X005996Y025571D03*
D11*
X005756Y018797D03*
X005756Y018607D03*
X005756Y018407D03*
X005756Y018207D03*
X005756Y018017D03*
X005756Y017817D03*
X005756Y017617D03*
X005756Y017417D03*
X005756Y017227D03*
X005756Y017027D03*
X005756Y016827D03*
X005756Y016637D03*
X003016Y016637D03*
X003016Y016827D03*
X003016Y017027D03*
X003016Y017227D03*
X003016Y017417D03*
X003016Y017617D03*
X003016Y017817D03*
X003016Y018017D03*
X003016Y018207D03*
X003016Y018407D03*
X003016Y018607D03*
X003016Y018797D03*
D12*
X003306Y019087D03*
X003496Y019087D03*
X003696Y019087D03*
X003896Y019087D03*
X004086Y019087D03*
X004286Y019087D03*
X004486Y019087D03*
X004686Y019087D03*
X004876Y019087D03*
X005076Y019087D03*
X005276Y019087D03*
X005466Y019087D03*
X005466Y016347D03*
X005276Y016347D03*
X005076Y016347D03*
X004876Y016347D03*
X004686Y016347D03*
X004486Y016347D03*
X004286Y016347D03*
X004086Y016347D03*
X003896Y016347D03*
X003696Y016347D03*
X003496Y016347D03*
X003306Y016347D03*
D13*
X004386Y017717D03*
D14*
X004110Y025571D03*
X004110Y026595D03*
X004484Y026595D03*
X004858Y026595D03*
X004858Y025571D03*
D15*
X003980Y020165D03*
X003547Y020165D03*
D16*
X000984Y020094D03*
X000984Y019094D03*
X000984Y018094D03*
X000984Y017094D03*
X000984Y016094D03*
X000984Y015094D03*
X000984Y014094D03*
X000984Y013094D03*
X000984Y012094D03*
X000984Y011094D03*
X000984Y010094D03*
X000984Y009094D03*
X000984Y008094D03*
X000984Y007094D03*
X000984Y006094D03*
X000984Y005094D03*
X007984Y005094D03*
X007984Y004094D03*
X007984Y006094D03*
X007984Y007094D03*
X007984Y008094D03*
X007984Y009094D03*
X007984Y010094D03*
X007984Y011094D03*
X007984Y012094D03*
X007984Y013094D03*
X007984Y014094D03*
X007984Y015094D03*
X007984Y016094D03*
X007984Y017094D03*
X007984Y018094D03*
X007984Y019094D03*
X007984Y020094D03*
X007984Y021094D03*
X007984Y022094D03*
X007984Y025591D03*
X007984Y026591D03*
X007984Y027591D03*
X000984Y027591D03*
X000984Y026591D03*
X000984Y025591D03*
X000984Y023094D03*
X000984Y022094D03*
X000984Y021094D03*
D17*
X002949Y022835D03*
X003657Y022835D03*
X005311Y022835D03*
X006020Y022835D03*
X005335Y028622D03*
X004626Y028622D03*
D18*
X003602Y028622D03*
X002776Y028622D03*
X002890Y023622D03*
X003717Y023622D03*
X005252Y023622D03*
X006079Y023622D03*
D19*
X006484Y002685D03*
X006484Y001685D03*
X005484Y001685D03*
X005484Y002685D03*
X004484Y002685D03*
X004484Y001685D03*
X003484Y001685D03*
X003484Y002685D03*
X002484Y002685D03*
X002484Y001685D03*
D20*
X000984Y004094D03*
X007984Y023094D03*
D21*
X000230Y021588D02*
X000230Y000230D01*
X008727Y000230D01*
X008727Y029494D01*
X000230Y029494D01*
X000230Y023648D01*
X000433Y023851D01*
X001654Y023851D01*
X001765Y023740D01*
X002480Y023025D01*
X002651Y023025D01*
X002651Y023129D01*
X002728Y023206D01*
X002630Y023206D01*
X002584Y023218D01*
X002543Y023242D01*
X002510Y023275D01*
X002486Y023316D01*
X002474Y023362D01*
X002474Y023584D01*
X002852Y023584D01*
X002852Y023660D01*
X002852Y024038D01*
X002630Y024038D01*
X002584Y024026D01*
X002543Y024002D01*
X002510Y023969D01*
X002486Y023928D01*
X002474Y023882D01*
X002474Y023660D01*
X002852Y023660D01*
X002928Y023660D01*
X003306Y023660D01*
X003306Y023882D01*
X003294Y023928D01*
X003270Y023969D01*
X003237Y024002D01*
X003195Y024026D01*
X003150Y024038D01*
X002928Y024038D01*
X002928Y023660D01*
X002928Y023584D01*
X003306Y023584D01*
X003306Y023362D01*
X003294Y023316D01*
X003270Y023275D01*
X003237Y023242D01*
X003195Y023218D01*
X003165Y023210D01*
X003246Y023129D01*
X003246Y022540D01*
X003164Y022458D01*
X002733Y022458D01*
X002651Y022540D01*
X002651Y022645D01*
X002323Y022645D01*
X001496Y023471D01*
X001329Y023471D01*
X001417Y023383D01*
X001494Y023196D01*
X001494Y022993D01*
X001457Y022904D01*
X002004Y022357D01*
X002012Y022357D01*
X002129Y022240D01*
X002129Y020851D01*
X003506Y019474D01*
X003506Y019432D01*
X003506Y019432D01*
X003506Y019749D01*
X003426Y019829D01*
X003391Y019829D01*
X003309Y019911D01*
X003309Y020135D01*
X003117Y020327D01*
X003117Y020451D01*
X003052Y020451D01*
X002970Y020533D01*
X002970Y021082D01*
X003003Y021114D01*
X003000Y021116D01*
X002966Y021149D01*
X002943Y021190D01*
X002930Y021236D01*
X002930Y021458D01*
X003289Y021458D01*
X003289Y021495D01*
X003289Y021873D01*
X003087Y021873D01*
X003041Y021861D01*
X003000Y021837D01*
X002966Y021803D01*
X002943Y021762D01*
X002930Y021717D01*
X002930Y021495D01*
X003289Y021495D01*
X003326Y021495D01*
X003684Y021495D01*
X003684Y021717D01*
X003672Y021762D01*
X003648Y021803D01*
X003614Y021837D01*
X003573Y021861D01*
X003528Y021873D01*
X003326Y021873D01*
X003326Y021495D01*
X003326Y021458D01*
X003684Y021458D01*
X003684Y021236D01*
X003672Y021190D01*
X003648Y021149D01*
X003614Y021116D01*
X003611Y021114D01*
X003644Y021082D01*
X003644Y020533D01*
X003614Y020502D01*
X003704Y020502D01*
X003764Y020442D01*
X003824Y020502D01*
X003886Y020502D01*
X003856Y020533D01*
X003856Y021082D01*
X003889Y021114D01*
X003886Y021116D01*
X003852Y021149D01*
X003828Y021190D01*
X003816Y021236D01*
X003816Y021458D01*
X004174Y021458D01*
X004174Y021495D01*
X003816Y021495D01*
X003816Y021717D01*
X003828Y021762D01*
X003852Y021803D01*
X003886Y021837D01*
X003927Y021861D01*
X003972Y021873D01*
X004174Y021873D01*
X004174Y021495D01*
X004211Y021495D01*
X004211Y021873D01*
X004413Y021873D01*
X004459Y021861D01*
X004500Y021837D01*
X004534Y021803D01*
X004557Y021762D01*
X004570Y021717D01*
X004570Y021495D01*
X004211Y021495D01*
X004211Y021458D01*
X004570Y021458D01*
X004570Y021236D01*
X004557Y021190D01*
X004534Y021149D01*
X004500Y021116D01*
X004497Y021114D01*
X004530Y021082D01*
X004530Y020533D01*
X004448Y020451D01*
X004383Y020451D01*
X004383Y020299D01*
X004219Y020135D01*
X004219Y019911D01*
X004170Y019862D01*
X004170Y019846D01*
X004086Y019762D01*
X004086Y019315D01*
X004086Y019315D01*
X004086Y019432D01*
X004165Y019432D01*
X004210Y019419D01*
X004251Y019396D01*
X004255Y019392D01*
X004516Y019392D01*
X004520Y019396D01*
X004561Y019419D01*
X004607Y019432D01*
X004686Y019432D01*
X004686Y019315D01*
X004686Y019315D01*
X004686Y019432D01*
X004765Y019432D01*
X004810Y019419D01*
X004851Y019396D01*
X004855Y019392D01*
X005266Y019392D01*
X005266Y020667D01*
X005383Y020784D01*
X005391Y020784D01*
X007474Y022867D01*
X007474Y023245D01*
X005776Y024943D01*
X005736Y025039D01*
X005736Y025219D01*
X005659Y025296D01*
X005659Y025311D01*
X005107Y025311D01*
X005107Y025277D01*
X005025Y025195D01*
X004692Y025195D01*
X004610Y025277D01*
X004610Y025491D01*
X004598Y025519D01*
X004598Y025623D01*
X004610Y025651D01*
X004610Y025865D01*
X004692Y025947D01*
X004952Y025947D01*
X005135Y026130D01*
X005135Y028246D01*
X005119Y028246D01*
X005037Y028328D01*
X005037Y028916D01*
X005119Y028998D01*
X005550Y028998D01*
X005632Y028916D01*
X005632Y028328D01*
X005550Y028246D01*
X005535Y028246D01*
X005535Y025964D01*
X005401Y025831D01*
X005659Y025831D01*
X005659Y025845D01*
X005692Y025878D01*
X005689Y025880D01*
X005655Y025913D01*
X005631Y025954D01*
X005619Y026000D01*
X005619Y026222D01*
X005978Y026222D01*
X005978Y026259D01*
X005978Y026637D01*
X005776Y026637D01*
X005730Y026624D01*
X005689Y026601D01*
X005655Y026567D01*
X005631Y026526D01*
X005619Y026480D01*
X005619Y026259D01*
X005978Y026259D01*
X006014Y026259D01*
X006014Y026637D01*
X006217Y026637D01*
X006262Y026624D01*
X006303Y026601D01*
X006337Y026567D01*
X006361Y026526D01*
X006373Y026480D01*
X006373Y026259D01*
X006014Y026259D01*
X006014Y026222D01*
X006373Y026222D01*
X006373Y026000D01*
X006361Y025954D01*
X006337Y025913D01*
X006303Y025880D01*
X006300Y025878D01*
X006333Y025845D01*
X006333Y025296D01*
X006256Y025219D01*
X006256Y025198D01*
X007850Y023604D01*
X008412Y023604D01*
X008494Y023522D01*
X008494Y022666D01*
X008412Y022584D01*
X008234Y022584D01*
X008273Y022565D01*
X008343Y022514D01*
X008404Y022453D01*
X008455Y022383D01*
X008494Y022306D01*
X008521Y022223D01*
X008534Y022138D01*
X008534Y022114D01*
X008004Y022114D01*
X008004Y022074D01*
X008534Y022074D01*
X008534Y022051D01*
X008521Y021966D01*
X008494Y021883D01*
X008455Y021806D01*
X008404Y021736D01*
X008343Y021675D01*
X008273Y021624D01*
X008195Y021585D01*
X008161Y021573D01*
X008273Y021527D01*
X008417Y021383D01*
X008494Y021196D01*
X008494Y020993D01*
X008417Y020806D01*
X008273Y020662D01*
X008110Y020594D01*
X008273Y020527D01*
X008417Y020383D01*
X008494Y020196D01*
X008494Y019993D01*
X008417Y019806D01*
X008273Y019662D01*
X008110Y019594D01*
X008273Y019527D01*
X008417Y019383D01*
X008494Y019196D01*
X008494Y018993D01*
X008417Y018806D01*
X008273Y018662D01*
X008110Y018594D01*
X008273Y018527D01*
X008417Y018383D01*
X008494Y018196D01*
X008494Y017993D01*
X008417Y017806D01*
X008273Y017662D01*
X008110Y017594D01*
X008273Y017527D01*
X008417Y017383D01*
X008494Y017196D01*
X008494Y016993D01*
X008417Y016806D01*
X008273Y016662D01*
X008110Y016594D01*
X008273Y016527D01*
X008417Y016383D01*
X008494Y016196D01*
X008494Y015993D01*
X008417Y015806D01*
X008273Y015662D01*
X008110Y015594D01*
X008273Y015527D01*
X008417Y015383D01*
X008494Y015196D01*
X008494Y014993D01*
X008417Y014806D01*
X008273Y014662D01*
X008110Y014594D01*
X008273Y014527D01*
X008417Y014383D01*
X008494Y014196D01*
X008494Y013993D01*
X008417Y013806D01*
X008273Y013662D01*
X008110Y013594D01*
X008273Y013527D01*
X008417Y013383D01*
X008494Y013196D01*
X008494Y012993D01*
X008417Y012806D01*
X008273Y012662D01*
X008110Y012594D01*
X008273Y012527D01*
X008417Y012383D01*
X008494Y012196D01*
X008494Y011993D01*
X008417Y011806D01*
X008273Y011662D01*
X008110Y011594D01*
X008273Y011527D01*
X008417Y011383D01*
X008494Y011196D01*
X008494Y010993D01*
X008417Y010806D01*
X008273Y010662D01*
X008110Y010594D01*
X008273Y010527D01*
X008417Y010383D01*
X008494Y010196D01*
X008494Y009993D01*
X008417Y009806D01*
X008273Y009662D01*
X008110Y009594D01*
X008273Y009527D01*
X008417Y009383D01*
X008494Y009196D01*
X008494Y008993D01*
X008417Y008806D01*
X008273Y008662D01*
X008110Y008594D01*
X008273Y008527D01*
X008417Y008383D01*
X008494Y008196D01*
X008494Y007993D01*
X008417Y007806D01*
X008273Y007662D01*
X008110Y007594D01*
X008273Y007527D01*
X008417Y007383D01*
X008494Y007196D01*
X008494Y006993D01*
X008417Y006806D01*
X008273Y006662D01*
X008110Y006594D01*
X008273Y006527D01*
X008417Y006383D01*
X008494Y006196D01*
X008494Y005993D01*
X008417Y005806D01*
X008273Y005662D01*
X008110Y005594D01*
X008273Y005527D01*
X008417Y005383D01*
X008494Y005196D01*
X008494Y004993D01*
X008417Y004806D01*
X008273Y004662D01*
X008110Y004594D01*
X008273Y004527D01*
X008417Y004383D01*
X008494Y004196D01*
X008494Y003993D01*
X008417Y003806D01*
X008273Y003662D01*
X008086Y003584D01*
X007883Y003584D01*
X007695Y003662D01*
X007552Y003806D01*
X007474Y003993D01*
X007474Y004196D01*
X007515Y004295D01*
X006417Y005393D01*
X006362Y005448D01*
X006362Y005265D01*
X006705Y004923D01*
X006744Y004827D01*
X006744Y003146D01*
X006994Y002896D01*
X006994Y002474D01*
X006744Y002224D01*
X006744Y002146D01*
X006994Y001896D01*
X006994Y001474D01*
X006695Y001175D01*
X006273Y001175D01*
X005984Y001464D01*
X005695Y001175D01*
X005273Y001175D01*
X004984Y001464D01*
X004695Y001175D01*
X004273Y001175D01*
X003984Y001464D01*
X003695Y001175D01*
X003273Y001175D01*
X003013Y001436D01*
X002712Y001135D01*
X002504Y001135D01*
X002504Y001665D01*
X002464Y001665D01*
X001934Y001665D01*
X001934Y001457D01*
X002256Y001135D01*
X002464Y001135D01*
X002464Y001665D01*
X002464Y001705D01*
X001934Y001705D01*
X001934Y001913D01*
X002206Y002185D01*
X001934Y002457D01*
X001934Y002665D01*
X002464Y002665D01*
X002464Y002705D01*
X001934Y002705D01*
X001934Y002913D01*
X002256Y003235D01*
X002464Y003235D01*
X002464Y002705D01*
X002504Y002705D01*
X002504Y003235D01*
X002712Y003235D01*
X002802Y003145D01*
X002802Y007933D01*
X003688Y008819D01*
X003799Y008930D01*
X005066Y008930D01*
X005066Y008967D01*
X005148Y009049D01*
X005600Y009049D01*
X005606Y009043D01*
X005606Y009538D01*
X004060Y011084D01*
X004026Y011050D01*
X003533Y011050D01*
X003451Y011132D01*
X003451Y011624D01*
X003533Y011706D01*
X004026Y011706D01*
X004094Y011638D01*
X004186Y011638D01*
X004281Y011598D01*
X006013Y009866D01*
X006087Y009793D01*
X006126Y009697D01*
X006126Y006486D01*
X006306Y006306D01*
X006306Y009803D01*
X004096Y012013D01*
X004096Y014811D01*
X003418Y014134D01*
X003418Y009409D01*
X002040Y008032D01*
X002040Y005882D01*
X001453Y005295D01*
X001494Y005196D01*
X001494Y004993D01*
X001417Y004806D01*
X001273Y004662D01*
X001231Y004644D01*
X001378Y004644D01*
X001424Y004632D01*
X001465Y004609D01*
X001498Y004575D01*
X001522Y004534D01*
X001534Y004488D01*
X001534Y004114D01*
X001004Y004114D01*
X001004Y004074D01*
X001004Y003544D01*
X001378Y003544D01*
X001424Y003557D01*
X001465Y003580D01*
X001498Y003614D01*
X001522Y003655D01*
X001534Y003701D01*
X001534Y004074D01*
X001004Y004074D01*
X000964Y004074D01*
X000964Y003544D01*
X000591Y003544D01*
X000545Y003557D01*
X000504Y003580D01*
X000470Y003614D01*
X000447Y003655D01*
X000434Y003701D01*
X000434Y004074D01*
X000964Y004074D01*
X000964Y004114D01*
X000434Y004114D01*
X000434Y004488D01*
X000447Y004534D01*
X000470Y004575D01*
X000504Y004609D01*
X000545Y004632D01*
X000591Y004644D01*
X000738Y004644D01*
X000695Y004662D01*
X000552Y004806D01*
X000474Y004993D01*
X000474Y005196D01*
X000552Y005383D01*
X000695Y005527D01*
X000859Y005594D01*
X000695Y005662D01*
X000552Y005806D01*
X000474Y005993D01*
X000474Y006196D01*
X000552Y006383D01*
X000695Y006527D01*
X000859Y006594D01*
X000695Y006662D01*
X000552Y006806D01*
X000474Y006993D01*
X000474Y007196D01*
X000552Y007383D01*
X000695Y007527D01*
X000859Y007594D01*
X000695Y007662D01*
X000552Y007806D01*
X000474Y007993D01*
X000474Y008196D01*
X000552Y008383D01*
X000695Y008527D01*
X000859Y008594D01*
X000695Y008662D01*
X000552Y008806D01*
X000474Y008993D01*
X000474Y009196D01*
X000552Y009383D01*
X000695Y009527D01*
X000859Y009594D01*
X000695Y009662D01*
X000552Y009806D01*
X000474Y009993D01*
X000474Y010196D01*
X000552Y010383D01*
X000695Y010527D01*
X000859Y010594D01*
X000695Y010662D01*
X000552Y010806D01*
X000474Y010993D01*
X000474Y011196D01*
X000552Y011383D01*
X000695Y011527D01*
X000859Y011594D01*
X000695Y011662D01*
X000552Y011806D01*
X000474Y011993D01*
X000474Y012196D01*
X000552Y012383D01*
X000695Y012527D01*
X000859Y012594D01*
X000695Y012662D01*
X000552Y012806D01*
X000474Y012993D01*
X000474Y013196D01*
X000552Y013383D01*
X000695Y013527D01*
X000859Y013594D01*
X000695Y013662D01*
X000552Y013806D01*
X000474Y013993D01*
X000474Y014196D01*
X000552Y014383D01*
X000695Y014527D01*
X000859Y014594D01*
X000695Y014662D01*
X000552Y014806D01*
X000474Y014993D01*
X000474Y015196D01*
X000552Y015383D01*
X000695Y015527D01*
X000859Y015594D01*
X000695Y015662D01*
X000552Y015806D01*
X000474Y015993D01*
X000474Y016196D01*
X000552Y016383D01*
X000695Y016527D01*
X000859Y016594D01*
X000695Y016662D01*
X000552Y016806D01*
X000474Y016993D01*
X000474Y017196D01*
X000552Y017383D01*
X000695Y017527D01*
X000859Y017594D01*
X000695Y017662D01*
X000552Y017806D01*
X000474Y017993D01*
X000474Y018196D01*
X000552Y018383D01*
X000695Y018527D01*
X000859Y018594D01*
X000695Y018662D01*
X000552Y018806D01*
X000474Y018993D01*
X000474Y019196D01*
X000552Y019383D01*
X000695Y019527D01*
X000859Y019594D01*
X000695Y019662D01*
X000552Y019806D01*
X000474Y019993D01*
X000474Y020196D01*
X000552Y020383D01*
X000695Y020527D01*
X000859Y020594D01*
X000695Y020662D01*
X000552Y020806D01*
X000474Y020993D01*
X000474Y021196D01*
X000518Y021300D01*
X000276Y021542D01*
X000230Y021588D01*
X000230Y021556D02*
X000262Y021556D01*
X000230Y021398D02*
X000420Y021398D01*
X000492Y021239D02*
X000230Y021239D01*
X000230Y021081D02*
X000474Y021081D01*
X000504Y020922D02*
X000230Y020922D01*
X000230Y020764D02*
X000594Y020764D01*
X000615Y020447D02*
X000230Y020447D01*
X000230Y020605D02*
X000833Y020605D01*
X000512Y020288D02*
X000230Y020288D01*
X000230Y020130D02*
X000474Y020130D01*
X000483Y019971D02*
X000230Y019971D01*
X000230Y019813D02*
X000549Y019813D01*
X000715Y019654D02*
X000230Y019654D01*
X000230Y019496D02*
X000664Y019496D01*
X000533Y019337D02*
X000230Y019337D01*
X000230Y019179D02*
X000474Y019179D01*
X000474Y019020D02*
X000230Y019020D01*
X000230Y018862D02*
X000529Y018862D01*
X000654Y018703D02*
X000230Y018703D01*
X000230Y018545D02*
X000738Y018545D01*
X000555Y018386D02*
X000230Y018386D01*
X000230Y018228D02*
X000487Y018228D01*
X000474Y018069D02*
X000230Y018069D01*
X000230Y017911D02*
X000508Y017911D01*
X000605Y017752D02*
X000230Y017752D01*
X000230Y017594D02*
X000856Y017594D01*
X000604Y017435D02*
X000230Y017435D01*
X000230Y017277D02*
X000508Y017277D01*
X000474Y017118D02*
X000230Y017118D01*
X000230Y016960D02*
X000488Y016960D01*
X000556Y016801D02*
X000230Y016801D01*
X000230Y016643D02*
X000743Y016643D01*
X000653Y016484D02*
X000230Y016484D01*
X000230Y016326D02*
X000528Y016326D01*
X000474Y016167D02*
X000230Y016167D01*
X000230Y016009D02*
X000474Y016009D01*
X000533Y015850D02*
X000230Y015850D01*
X000230Y015692D02*
X000666Y015692D01*
X000710Y015533D02*
X000230Y015533D01*
X000230Y015375D02*
X000548Y015375D01*
X000483Y015216D02*
X000230Y015216D01*
X000230Y015058D02*
X000474Y015058D01*
X000513Y014899D02*
X000230Y014899D01*
X000230Y014741D02*
X000617Y014741D01*
X000592Y014424D02*
X000230Y014424D01*
X000230Y014582D02*
X000829Y014582D01*
X000503Y014265D02*
X000230Y014265D01*
X000230Y014107D02*
X000474Y014107D01*
X000493Y013948D02*
X000230Y013948D01*
X000230Y013790D02*
X000568Y013790D01*
X000770Y013631D02*
X000230Y013631D01*
X000230Y013473D02*
X000641Y013473D01*
X000523Y013314D02*
X000230Y013314D01*
X000230Y013156D02*
X000474Y013156D01*
X000474Y012997D02*
X000230Y012997D01*
X000230Y012839D02*
X000538Y012839D01*
X000677Y012680D02*
X000230Y012680D01*
X000230Y012522D02*
X000690Y012522D01*
X000543Y012363D02*
X000230Y012363D01*
X000230Y012205D02*
X000478Y012205D01*
X000474Y012046D02*
X000230Y012046D01*
X000230Y011888D02*
X000518Y011888D01*
X000628Y011729D02*
X000230Y011729D01*
X000230Y011571D02*
X000801Y011571D01*
X000581Y011412D02*
X000230Y011412D01*
X000230Y011254D02*
X000498Y011254D01*
X000474Y011095D02*
X000230Y011095D01*
X000230Y010937D02*
X000498Y010937D01*
X000579Y010778D02*
X000230Y010778D01*
X000230Y010620D02*
X000798Y010620D01*
X000630Y010461D02*
X000230Y010461D01*
X000230Y010303D02*
X000518Y010303D01*
X000474Y010144D02*
X000230Y010144D01*
X000230Y009986D02*
X000477Y009986D01*
X000543Y009827D02*
X000230Y009827D01*
X000230Y009669D02*
X000689Y009669D01*
X000679Y009510D02*
X000230Y009510D01*
X000230Y009352D02*
X000539Y009352D01*
X000474Y009193D02*
X000230Y009193D01*
X000230Y009035D02*
X000474Y009035D01*
X000523Y008876D02*
X000230Y008876D01*
X000230Y008718D02*
X000640Y008718D01*
X000773Y008559D02*
X000230Y008559D01*
X000230Y008401D02*
X000569Y008401D01*
X000493Y008242D02*
X000230Y008242D01*
X000230Y008084D02*
X000474Y008084D01*
X000502Y007925D02*
X000230Y007925D01*
X000230Y007767D02*
X000591Y007767D01*
X000618Y007450D02*
X000230Y007450D01*
X000230Y007608D02*
X000826Y007608D01*
X000514Y007291D02*
X000230Y007291D01*
X000230Y007133D02*
X000474Y007133D01*
X000482Y006974D02*
X000230Y006974D01*
X000230Y006816D02*
X000548Y006816D01*
X000708Y006657D02*
X000230Y006657D01*
X000230Y006499D02*
X000667Y006499D01*
X000534Y006340D02*
X000230Y006340D01*
X000230Y006182D02*
X000474Y006182D01*
X000474Y006023D02*
X000230Y006023D01*
X000230Y005865D02*
X000527Y005865D01*
X000651Y005706D02*
X000230Y005706D01*
X000230Y005548D02*
X000745Y005548D01*
X000558Y005389D02*
X000230Y005389D01*
X000230Y005231D02*
X000489Y005231D01*
X000474Y005072D02*
X000230Y005072D01*
X000230Y004914D02*
X000507Y004914D01*
X000602Y004755D02*
X000230Y004755D01*
X000230Y004597D02*
X000492Y004597D01*
X000434Y004438D02*
X000230Y004438D01*
X000230Y004280D02*
X000434Y004280D01*
X000434Y004121D02*
X000230Y004121D01*
X000230Y003963D02*
X000434Y003963D01*
X000434Y003804D02*
X000230Y003804D01*
X000230Y003646D02*
X000452Y003646D01*
X000230Y003487D02*
X002802Y003487D01*
X002802Y003329D02*
X000230Y003329D01*
X000230Y003170D02*
X002191Y003170D01*
X002033Y003012D02*
X000230Y003012D01*
X000230Y002853D02*
X001934Y002853D01*
X001934Y002536D02*
X000230Y002536D01*
X000230Y002378D02*
X002014Y002378D01*
X002172Y002219D02*
X000230Y002219D01*
X000230Y002061D02*
X002082Y002061D01*
X001934Y001902D02*
X000230Y001902D01*
X000230Y001744D02*
X001934Y001744D01*
X001934Y001585D02*
X000230Y001585D01*
X000230Y001427D02*
X001965Y001427D01*
X002123Y001268D02*
X001051Y001268D01*
X001096Y001249D02*
X000896Y001332D01*
X000679Y001332D01*
X000479Y001249D01*
X000325Y001096D01*
X000242Y000896D01*
X000242Y000679D01*
X000325Y000479D01*
X000479Y000325D01*
X000679Y000242D01*
X000896Y000242D01*
X001096Y000325D01*
X001249Y000479D01*
X001332Y000679D01*
X001332Y000896D01*
X001249Y001096D01*
X001096Y001249D01*
X001236Y001110D02*
X007733Y001110D01*
X007719Y001096D02*
X007636Y000896D01*
X007636Y000679D01*
X007719Y000479D01*
X007872Y000325D01*
X008073Y000242D01*
X008290Y000242D01*
X008490Y000325D01*
X008643Y000479D01*
X008726Y000679D01*
X008726Y000896D01*
X008643Y001096D01*
X008490Y001249D01*
X008290Y001332D01*
X008073Y001332D01*
X007872Y001249D01*
X007719Y001096D01*
X007659Y000951D02*
X001309Y000951D01*
X001332Y000793D02*
X007636Y000793D01*
X007655Y000634D02*
X001314Y000634D01*
X001246Y000476D02*
X007722Y000476D01*
X007893Y000317D02*
X001076Y000317D01*
X000499Y000317D02*
X000230Y000317D01*
X000230Y000476D02*
X000329Y000476D01*
X000261Y000634D02*
X000230Y000634D01*
X000230Y000793D02*
X000242Y000793D01*
X000230Y000951D02*
X000265Y000951D01*
X000230Y001110D02*
X000339Y001110D01*
X000230Y001268D02*
X000524Y001268D01*
X000230Y002695D02*
X002464Y002695D01*
X002464Y002665D02*
X002504Y002665D01*
X002504Y001705D01*
X002464Y001705D01*
X002464Y002235D01*
X002464Y002665D01*
X002464Y002536D02*
X002504Y002536D01*
X002504Y002378D02*
X002464Y002378D01*
X002464Y002219D02*
X002504Y002219D01*
X002504Y002061D02*
X002464Y002061D01*
X002464Y001902D02*
X002504Y001902D01*
X002504Y001744D02*
X002464Y001744D01*
X002464Y001585D02*
X002504Y001585D01*
X002504Y001427D02*
X002464Y001427D01*
X002464Y001268D02*
X002504Y001268D01*
X002845Y001268D02*
X003180Y001268D01*
X003022Y001427D02*
X003004Y001427D01*
X003788Y001268D02*
X004180Y001268D01*
X004022Y001427D02*
X003947Y001427D01*
X004788Y001268D02*
X005180Y001268D01*
X005022Y001427D02*
X004947Y001427D01*
X005788Y001268D02*
X006180Y001268D01*
X006022Y001427D02*
X005947Y001427D01*
X006788Y001268D02*
X007917Y001268D01*
X008445Y001268D02*
X008727Y001268D01*
X008727Y001110D02*
X008630Y001110D01*
X008703Y000951D02*
X008727Y000951D01*
X008726Y000793D02*
X008727Y000793D01*
X008727Y000634D02*
X008707Y000634D01*
X008727Y000476D02*
X008640Y000476D01*
X008727Y000317D02*
X008470Y000317D01*
X008727Y001427D02*
X006947Y001427D01*
X006994Y001585D02*
X008727Y001585D01*
X008727Y001744D02*
X006994Y001744D01*
X006989Y001902D02*
X008727Y001902D01*
X008727Y002061D02*
X006830Y002061D01*
X006744Y002219D02*
X008727Y002219D01*
X008727Y002378D02*
X006898Y002378D01*
X006994Y002536D02*
X008727Y002536D01*
X008727Y002695D02*
X006994Y002695D01*
X006994Y002853D02*
X008727Y002853D01*
X008727Y003012D02*
X006879Y003012D01*
X006744Y003170D02*
X008727Y003170D01*
X008727Y003329D02*
X006744Y003329D01*
X006744Y003487D02*
X008727Y003487D01*
X008727Y003646D02*
X008233Y003646D01*
X008415Y003804D02*
X008727Y003804D01*
X008727Y003963D02*
X008482Y003963D01*
X008494Y004121D02*
X008727Y004121D01*
X008727Y004280D02*
X008460Y004280D01*
X008362Y004438D02*
X008727Y004438D01*
X008727Y004597D02*
X008115Y004597D01*
X008366Y004755D02*
X008727Y004755D01*
X008727Y004914D02*
X008461Y004914D01*
X008494Y005072D02*
X008727Y005072D01*
X008727Y005231D02*
X008480Y005231D01*
X008411Y005389D02*
X008727Y005389D01*
X008727Y005548D02*
X008223Y005548D01*
X008317Y005706D02*
X008727Y005706D01*
X008727Y005865D02*
X008441Y005865D01*
X008494Y006023D02*
X008727Y006023D01*
X008727Y006182D02*
X008494Y006182D01*
X008435Y006340D02*
X008727Y006340D01*
X008727Y006499D02*
X008301Y006499D01*
X008261Y006657D02*
X008727Y006657D01*
X008727Y006816D02*
X008421Y006816D01*
X008486Y006974D02*
X008727Y006974D01*
X008727Y007133D02*
X008494Y007133D01*
X008455Y007291D02*
X008727Y007291D01*
X008727Y007450D02*
X008350Y007450D01*
X008142Y007608D02*
X008727Y007608D01*
X008727Y007767D02*
X008378Y007767D01*
X008466Y007925D02*
X008727Y007925D01*
X008727Y008084D02*
X008494Y008084D01*
X008475Y008242D02*
X008727Y008242D01*
X008727Y008401D02*
X008399Y008401D01*
X008195Y008559D02*
X008727Y008559D01*
X008727Y008718D02*
X008329Y008718D01*
X008446Y008876D02*
X008727Y008876D01*
X008727Y009035D02*
X008494Y009035D01*
X008494Y009193D02*
X008727Y009193D01*
X008727Y009352D02*
X008430Y009352D01*
X008290Y009510D02*
X008727Y009510D01*
X008727Y009669D02*
X008280Y009669D01*
X008425Y009827D02*
X008727Y009827D01*
X008727Y009986D02*
X008491Y009986D01*
X008494Y010144D02*
X008727Y010144D01*
X008727Y010303D02*
X008450Y010303D01*
X008339Y010461D02*
X008727Y010461D01*
X008727Y010620D02*
X008170Y010620D01*
X008389Y010778D02*
X008727Y010778D01*
X008727Y010937D02*
X008471Y010937D01*
X008494Y011095D02*
X008727Y011095D01*
X008727Y011254D02*
X008470Y011254D01*
X008388Y011412D02*
X008727Y011412D01*
X008727Y011571D02*
X008168Y011571D01*
X008340Y011729D02*
X008727Y011729D01*
X008727Y011888D02*
X008451Y011888D01*
X008494Y012046D02*
X008727Y012046D01*
X008727Y012205D02*
X008491Y012205D01*
X008425Y012363D02*
X008727Y012363D01*
X008727Y012522D02*
X008278Y012522D01*
X008291Y012680D02*
X008727Y012680D01*
X008727Y012839D02*
X008430Y012839D01*
X008494Y012997D02*
X008727Y012997D01*
X008727Y013156D02*
X008494Y013156D01*
X008445Y013314D02*
X008727Y013314D01*
X008727Y013473D02*
X008327Y013473D01*
X008198Y013631D02*
X008727Y013631D01*
X008727Y013790D02*
X008401Y013790D01*
X008476Y013948D02*
X008727Y013948D01*
X008727Y014107D02*
X008494Y014107D01*
X008466Y014265D02*
X008727Y014265D01*
X008727Y014424D02*
X008376Y014424D01*
X008140Y014582D02*
X008727Y014582D01*
X008727Y014741D02*
X008352Y014741D01*
X008455Y014899D02*
X008727Y014899D01*
X008727Y015058D02*
X008494Y015058D01*
X008486Y015216D02*
X008727Y015216D01*
X008727Y015375D02*
X008420Y015375D01*
X008258Y015533D02*
X008727Y015533D01*
X008727Y015692D02*
X008303Y015692D01*
X008435Y015850D02*
X008727Y015850D01*
X008727Y016009D02*
X008494Y016009D01*
X008494Y016167D02*
X008727Y016167D01*
X008727Y016326D02*
X008441Y016326D01*
X008316Y016484D02*
X008727Y016484D01*
X008727Y016643D02*
X008226Y016643D01*
X008412Y016801D02*
X008727Y016801D01*
X008727Y016960D02*
X008480Y016960D01*
X008494Y017118D02*
X008727Y017118D01*
X008727Y017277D02*
X008461Y017277D01*
X008365Y017435D02*
X008727Y017435D01*
X008727Y017594D02*
X008112Y017594D01*
X008363Y017752D02*
X008727Y017752D01*
X008727Y017911D02*
X008460Y017911D01*
X008494Y018069D02*
X008727Y018069D01*
X008727Y018228D02*
X008481Y018228D01*
X008414Y018386D02*
X008727Y018386D01*
X008727Y018545D02*
X008230Y018545D01*
X008314Y018703D02*
X008727Y018703D01*
X008727Y018862D02*
X008440Y018862D01*
X008494Y019020D02*
X008727Y019020D01*
X008727Y019179D02*
X008494Y019179D01*
X008436Y019337D02*
X008727Y019337D01*
X008727Y019496D02*
X008304Y019496D01*
X008254Y019654D02*
X008727Y019654D01*
X008727Y019813D02*
X008419Y019813D01*
X008485Y019971D02*
X008727Y019971D01*
X008727Y020130D02*
X008494Y020130D01*
X008456Y020288D02*
X008727Y020288D01*
X008727Y020447D02*
X008353Y020447D01*
X008135Y020605D02*
X008727Y020605D01*
X008727Y020764D02*
X008375Y020764D01*
X008465Y020922D02*
X008727Y020922D01*
X008727Y021081D02*
X008494Y021081D01*
X008476Y021239D02*
X008727Y021239D01*
X008727Y021398D02*
X008402Y021398D01*
X008203Y021556D02*
X008727Y021556D01*
X008727Y021715D02*
X008382Y021715D01*
X008489Y021873D02*
X008727Y021873D01*
X008727Y022032D02*
X008531Y022032D01*
X008526Y022190D02*
X008727Y022190D01*
X008727Y022349D02*
X008472Y022349D01*
X008350Y022507D02*
X008727Y022507D01*
X008727Y022666D02*
X008493Y022666D01*
X008494Y022824D02*
X008727Y022824D01*
X008727Y022983D02*
X008494Y022983D01*
X008494Y023141D02*
X008727Y023141D01*
X008727Y023300D02*
X008494Y023300D01*
X008494Y023458D02*
X008727Y023458D01*
X008727Y023617D02*
X007838Y023617D01*
X007679Y023775D02*
X008727Y023775D01*
X008727Y023934D02*
X007521Y023934D01*
X007362Y024092D02*
X008727Y024092D01*
X008727Y024251D02*
X007204Y024251D01*
X007045Y024409D02*
X008727Y024409D01*
X008727Y024568D02*
X006887Y024568D01*
X006728Y024726D02*
X008727Y024726D01*
X008727Y024885D02*
X006570Y024885D01*
X006411Y025043D02*
X007925Y025043D01*
X007941Y025041D02*
X007855Y025054D01*
X007773Y025081D01*
X007696Y025120D01*
X007626Y025171D01*
X007565Y025232D01*
X007514Y025302D01*
X007475Y025379D01*
X007448Y025462D01*
X007434Y025547D01*
X007434Y025571D01*
X007964Y025571D01*
X007964Y025611D01*
X007964Y026141D01*
X007964Y026571D01*
X007434Y026571D01*
X007434Y026547D01*
X007448Y026462D01*
X007475Y026379D01*
X007514Y026302D01*
X007565Y026232D01*
X007626Y026171D01*
X007696Y026120D01*
X007754Y026091D01*
X007696Y026061D01*
X007626Y026010D01*
X007565Y025949D01*
X007514Y025879D01*
X007475Y025802D01*
X007448Y025719D01*
X007434Y025634D01*
X007434Y025611D01*
X007964Y025611D01*
X008004Y025611D01*
X008004Y026571D01*
X008004Y026611D01*
X007964Y026611D01*
X007964Y027141D01*
X007964Y027571D01*
X007434Y027571D01*
X007434Y027547D01*
X007448Y027462D01*
X007475Y027379D01*
X007514Y027302D01*
X007565Y027232D01*
X007626Y027171D01*
X007696Y027120D01*
X007754Y027091D01*
X007696Y027061D01*
X007626Y027010D01*
X007565Y026949D01*
X007514Y026879D01*
X007475Y026802D01*
X007448Y026719D01*
X007434Y026634D01*
X007434Y026611D01*
X007964Y026611D01*
X007964Y026571D01*
X008004Y026571D01*
X008534Y026571D01*
X008534Y026547D01*
X008521Y026462D01*
X008494Y026379D01*
X008455Y026302D01*
X008404Y026232D01*
X008343Y026171D01*
X008273Y026120D01*
X008214Y026091D01*
X008273Y026061D01*
X008343Y026010D01*
X008404Y025949D01*
X008455Y025879D01*
X008494Y025802D01*
X008521Y025719D01*
X008534Y025634D01*
X008534Y025611D01*
X008004Y025611D01*
X008004Y025571D01*
X008534Y025571D01*
X008534Y025547D01*
X008521Y025462D01*
X008494Y025379D01*
X008455Y025302D01*
X008404Y025232D01*
X008343Y025171D01*
X008273Y025120D01*
X008195Y025081D01*
X008113Y025054D01*
X008028Y025041D01*
X008004Y025041D01*
X008004Y025571D01*
X007964Y025571D01*
X007964Y025041D01*
X007941Y025041D01*
X007964Y025043D02*
X008004Y025043D01*
X008043Y025043D02*
X008727Y025043D01*
X008727Y025202D02*
X008373Y025202D01*
X008484Y025360D02*
X008727Y025360D01*
X008727Y025519D02*
X008530Y025519D01*
X008527Y025677D02*
X008727Y025677D01*
X008727Y025836D02*
X008477Y025836D01*
X008359Y025994D02*
X008727Y025994D01*
X008727Y026153D02*
X008317Y026153D01*
X008459Y026311D02*
X008727Y026311D01*
X008727Y026470D02*
X008522Y026470D01*
X008534Y026611D02*
X008534Y026634D01*
X008521Y026719D01*
X008494Y026802D01*
X008455Y026879D01*
X008404Y026949D01*
X008343Y027010D01*
X008273Y027061D01*
X008214Y027091D01*
X008273Y027120D01*
X008343Y027171D01*
X008404Y027232D01*
X008455Y027302D01*
X008494Y027379D01*
X008521Y027462D01*
X008534Y027547D01*
X008534Y027571D01*
X008004Y027571D01*
X008004Y027611D01*
X007964Y027611D01*
X007964Y028141D01*
X007941Y028141D01*
X007855Y028127D01*
X007773Y028100D01*
X007696Y028061D01*
X007626Y028010D01*
X007565Y027949D01*
X007514Y027879D01*
X007475Y027802D01*
X007448Y027719D01*
X007434Y027634D01*
X007434Y027611D01*
X007964Y027611D01*
X007964Y027571D01*
X008004Y027571D01*
X008004Y026611D01*
X008534Y026611D01*
X008534Y026628D02*
X008727Y026628D01*
X008727Y026787D02*
X008499Y026787D01*
X008407Y026945D02*
X008727Y026945D01*
X008727Y027104D02*
X008240Y027104D01*
X008004Y027104D02*
X007964Y027104D01*
X007964Y027262D02*
X008004Y027262D01*
X008004Y027421D02*
X007964Y027421D01*
X007964Y027579D02*
X005535Y027579D01*
X005535Y027421D02*
X007461Y027421D01*
X007543Y027262D02*
X005535Y027262D01*
X005535Y027104D02*
X007729Y027104D01*
X007562Y026945D02*
X005535Y026945D01*
X005535Y026787D02*
X007470Y026787D01*
X007434Y026628D02*
X006249Y026628D01*
X006373Y026470D02*
X007447Y026470D01*
X007509Y026311D02*
X006373Y026311D01*
X006373Y026153D02*
X007651Y026153D01*
X007610Y025994D02*
X006371Y025994D01*
X006333Y025836D02*
X007492Y025836D01*
X007441Y025677D02*
X006333Y025677D01*
X006333Y025519D02*
X007439Y025519D01*
X007484Y025360D02*
X006333Y025360D01*
X006256Y025202D02*
X007595Y025202D01*
X007964Y025202D02*
X008004Y025202D01*
X008004Y025360D02*
X007964Y025360D01*
X007964Y025519D02*
X008004Y025519D01*
X008004Y025677D02*
X007964Y025677D01*
X007964Y025836D02*
X008004Y025836D01*
X008004Y025994D02*
X007964Y025994D01*
X007964Y026153D02*
X008004Y026153D01*
X008004Y026311D02*
X007964Y026311D01*
X007964Y026470D02*
X008004Y026470D01*
X008004Y026628D02*
X007964Y026628D01*
X007964Y026787D02*
X008004Y026787D01*
X008004Y026945D02*
X007964Y026945D01*
X008425Y027262D02*
X008727Y027262D01*
X008727Y027421D02*
X008507Y027421D01*
X008534Y027611D02*
X008534Y027634D01*
X008521Y027719D01*
X008494Y027802D01*
X008455Y027879D01*
X008404Y027949D01*
X008343Y028010D01*
X008273Y028061D01*
X008195Y028100D01*
X008113Y028127D01*
X008028Y028141D01*
X008004Y028141D01*
X008004Y027611D01*
X008534Y027611D01*
X008515Y027738D02*
X008727Y027738D01*
X008727Y027896D02*
X008442Y027896D01*
X008281Y028055D02*
X008727Y028055D01*
X008727Y028213D02*
X005535Y028213D01*
X005535Y028055D02*
X007687Y028055D01*
X007526Y027896D02*
X005535Y027896D01*
X005535Y027738D02*
X007454Y027738D01*
X007872Y028475D02*
X007719Y028628D01*
X007636Y028829D01*
X007636Y029045D01*
X007719Y029246D01*
X007872Y029399D01*
X008073Y029482D01*
X008290Y029482D01*
X008490Y029399D01*
X008643Y029246D01*
X008726Y029045D01*
X008726Y028829D01*
X008643Y028628D01*
X008490Y028475D01*
X008290Y028392D01*
X008073Y028392D01*
X007872Y028475D01*
X007817Y028530D02*
X005632Y028530D01*
X005632Y028372D02*
X008727Y028372D01*
X008727Y028530D02*
X008545Y028530D01*
X008668Y028689D02*
X008727Y028689D01*
X008726Y028847D02*
X008727Y028847D01*
X008726Y029006D02*
X008727Y029006D01*
X008727Y029164D02*
X008677Y029164D01*
X008727Y029323D02*
X008566Y029323D01*
X008727Y029481D02*
X008292Y029481D01*
X008070Y029481D02*
X000898Y029481D01*
X000896Y029482D02*
X000679Y029482D01*
X000479Y029399D01*
X000325Y029246D01*
X000242Y029045D01*
X000242Y028829D01*
X000325Y028628D01*
X000479Y028475D01*
X000679Y028392D01*
X000896Y028392D01*
X001096Y028475D01*
X001249Y028628D01*
X001332Y028829D01*
X001332Y029045D01*
X001249Y029246D01*
X001096Y029399D01*
X000896Y029482D01*
X000677Y029481D02*
X000230Y029481D01*
X000230Y029323D02*
X000402Y029323D01*
X000292Y029164D02*
X000230Y029164D01*
X000230Y029006D02*
X000242Y029006D01*
X000230Y028847D02*
X000242Y028847D01*
X000230Y028689D02*
X000300Y028689D01*
X000230Y028530D02*
X000424Y028530D01*
X000230Y028372D02*
X002359Y028372D01*
X002359Y028362D02*
X002372Y028316D01*
X002395Y028275D01*
X002429Y028242D01*
X002470Y028218D01*
X002516Y028206D01*
X002737Y028206D01*
X002737Y028584D01*
X002359Y028584D01*
X002359Y028362D01*
X002359Y028530D02*
X001151Y028530D01*
X001274Y028689D02*
X002359Y028689D01*
X002359Y028660D02*
X002359Y028882D01*
X002372Y028928D01*
X002395Y028969D01*
X002429Y029002D01*
X002470Y029026D01*
X002516Y029038D01*
X002737Y029038D01*
X002737Y028660D01*
X002737Y028584D01*
X002814Y028584D01*
X002814Y028660D01*
X003192Y028660D01*
X003192Y028882D01*
X003180Y028928D01*
X003156Y028969D01*
X003122Y029002D01*
X003081Y029026D01*
X003036Y029038D01*
X002814Y029038D01*
X002814Y028660D01*
X002737Y028660D01*
X002359Y028660D01*
X002359Y028847D02*
X001332Y028847D01*
X001332Y029006D02*
X002434Y029006D01*
X002737Y029006D02*
X002814Y029006D01*
X002814Y028847D02*
X002737Y028847D01*
X002737Y028689D02*
X002814Y028689D01*
X002814Y028584D02*
X003192Y028584D01*
X003192Y028362D01*
X003180Y028316D01*
X003156Y028275D01*
X003122Y028242D01*
X003081Y028218D01*
X003036Y028206D01*
X002814Y028206D01*
X002814Y028584D01*
X002814Y028530D02*
X002737Y028530D01*
X002737Y028372D02*
X002814Y028372D01*
X002814Y028213D02*
X002737Y028213D01*
X002489Y028213D02*
X000230Y028213D01*
X000230Y028055D02*
X000772Y028055D01*
X000695Y028023D02*
X000552Y027879D01*
X000474Y027692D01*
X000474Y027489D01*
X000552Y027302D01*
X000695Y027158D01*
X000859Y027091D01*
X000695Y027023D01*
X000552Y026879D01*
X000474Y026692D01*
X000474Y026489D01*
X000552Y026302D01*
X000695Y026158D01*
X000859Y026091D01*
X000695Y026023D01*
X000552Y025879D01*
X000474Y025692D01*
X000474Y025489D01*
X000552Y025302D01*
X000695Y025158D01*
X000883Y025081D01*
X001086Y025081D01*
X001273Y025158D01*
X001417Y025302D01*
X001494Y025489D01*
X001494Y025692D01*
X001417Y025879D01*
X001273Y026023D01*
X001110Y026091D01*
X001273Y026158D01*
X001417Y026302D01*
X001494Y026489D01*
X001494Y026692D01*
X001417Y026879D01*
X001273Y027023D01*
X001110Y027091D01*
X001273Y027158D01*
X001417Y027302D01*
X001429Y027331D01*
X003632Y027331D01*
X003850Y027113D01*
X003850Y026543D01*
X003862Y026514D01*
X003862Y026300D01*
X003944Y026218D01*
X004261Y026218D01*
X004265Y026214D01*
X004307Y026191D01*
X004352Y026178D01*
X004484Y026178D01*
X004484Y026595D01*
X004484Y027011D01*
X004370Y027011D01*
X004370Y027272D01*
X004346Y027331D01*
X004388Y027331D01*
X004598Y027121D01*
X004598Y027011D01*
X004484Y027011D01*
X004484Y026595D01*
X004484Y026595D01*
X004484Y026595D01*
X004484Y026178D01*
X004616Y026178D01*
X004662Y026191D01*
X004703Y026214D01*
X004707Y026218D01*
X005025Y026218D01*
X005107Y026300D01*
X005107Y026514D01*
X005118Y026543D01*
X005118Y027280D01*
X005079Y027376D01*
X004716Y027738D01*
X004643Y027811D01*
X004548Y027851D01*
X001429Y027851D01*
X001417Y027879D01*
X001273Y028023D01*
X001086Y028101D01*
X000883Y028101D01*
X000695Y028023D01*
X000568Y027896D02*
X000230Y027896D01*
X000230Y027738D02*
X000493Y027738D01*
X000474Y027579D02*
X000230Y027579D01*
X000230Y027421D02*
X000503Y027421D01*
X000592Y027262D02*
X000230Y027262D01*
X000230Y027104D02*
X000827Y027104D01*
X000617Y026945D02*
X000230Y026945D01*
X000230Y026787D02*
X000513Y026787D01*
X000474Y026628D02*
X000230Y026628D01*
X000230Y026470D02*
X000482Y026470D01*
X000548Y026311D02*
X000230Y026311D01*
X000230Y026153D02*
X000709Y026153D01*
X000666Y025994D02*
X000230Y025994D01*
X000230Y025836D02*
X000534Y025836D01*
X000474Y025677D02*
X000230Y025677D01*
X000230Y025519D02*
X000474Y025519D01*
X000528Y025360D02*
X000230Y025360D01*
X000230Y025202D02*
X000652Y025202D01*
X000230Y025043D02*
X005736Y025043D01*
X005736Y025202D02*
X005031Y025202D01*
X004685Y025202D02*
X004283Y025202D01*
X004276Y025195D02*
X004359Y025277D01*
X004359Y025491D01*
X004370Y025519D01*
X004370Y025623D01*
X004359Y025651D01*
X004359Y025865D01*
X004276Y025947D01*
X003944Y025947D01*
X003862Y025865D01*
X003862Y025831D01*
X003508Y025831D01*
X003508Y025845D01*
X003476Y025878D01*
X003479Y025880D01*
X003512Y025913D01*
X003536Y025954D01*
X003548Y026000D01*
X003548Y026222D01*
X003190Y026222D01*
X003190Y026259D01*
X003153Y026259D01*
X003153Y026637D01*
X002951Y026637D01*
X002905Y026624D01*
X002864Y026601D01*
X002830Y026567D01*
X002807Y026526D01*
X002794Y026480D01*
X002794Y026259D01*
X003153Y026259D01*
X003153Y026222D01*
X002794Y026222D01*
X002794Y026000D01*
X002807Y025954D01*
X002830Y025913D01*
X002864Y025880D01*
X002867Y025878D01*
X002834Y025845D01*
X002834Y025296D01*
X002916Y025214D01*
X003426Y025214D01*
X003508Y025296D01*
X003508Y025311D01*
X003862Y025311D01*
X003862Y025277D01*
X003944Y025195D01*
X004276Y025195D01*
X004359Y025360D02*
X004610Y025360D01*
X004599Y025519D02*
X004370Y025519D01*
X004359Y025677D02*
X004610Y025677D01*
X004610Y025836D02*
X004359Y025836D01*
X004484Y026311D02*
X004484Y026311D01*
X004484Y026470D02*
X004484Y026470D01*
X004484Y026628D02*
X004484Y026628D01*
X004484Y026787D02*
X004484Y026787D01*
X004484Y026945D02*
X004484Y026945D01*
X004370Y027104D02*
X004598Y027104D01*
X004457Y027262D02*
X004370Y027262D01*
X004717Y027738D02*
X005135Y027738D01*
X005135Y027896D02*
X001400Y027896D01*
X001197Y028055D02*
X005135Y028055D01*
X005135Y028213D02*
X003062Y028213D01*
X003226Y028328D02*
X003308Y028246D01*
X003897Y028246D01*
X003979Y028328D01*
X003979Y028362D01*
X004329Y028362D01*
X004329Y028328D01*
X004411Y028246D01*
X004841Y028246D01*
X004923Y028328D01*
X004923Y028916D01*
X004841Y028998D01*
X004411Y028998D01*
X004329Y028916D01*
X004329Y028882D01*
X003979Y028882D01*
X003979Y028916D01*
X003897Y028998D01*
X003308Y028998D01*
X003226Y028916D01*
X003226Y028328D01*
X003226Y028372D02*
X003192Y028372D01*
X003192Y028530D02*
X003226Y028530D01*
X003226Y028689D02*
X003192Y028689D01*
X003192Y028847D02*
X003226Y028847D01*
X003117Y029006D02*
X007636Y029006D01*
X007636Y028847D02*
X005632Y028847D01*
X005632Y028689D02*
X007694Y028689D01*
X007685Y029164D02*
X001283Y029164D01*
X001173Y029323D02*
X007796Y029323D01*
X007964Y028055D02*
X008004Y028055D01*
X008004Y027896D02*
X007964Y027896D01*
X007964Y027738D02*
X008004Y027738D01*
X008004Y027579D02*
X008727Y027579D01*
X006785Y023934D02*
X006479Y023934D01*
X006483Y023928D02*
X006459Y023969D01*
X006425Y024002D01*
X006384Y024026D01*
X006339Y024038D01*
X006117Y024038D01*
X006117Y023660D01*
X006495Y023660D01*
X006495Y023882D01*
X006483Y023928D01*
X006495Y023775D02*
X006944Y023775D01*
X007102Y023617D02*
X006117Y023617D01*
X006117Y023584D02*
X006117Y023660D01*
X006041Y023660D01*
X006041Y024038D01*
X005819Y024038D01*
X005773Y024026D01*
X005732Y024002D01*
X005698Y023969D01*
X005675Y023928D01*
X005663Y023882D01*
X005663Y023660D01*
X006041Y023660D01*
X006041Y023584D01*
X005663Y023584D01*
X005663Y023362D01*
X005675Y023316D01*
X005698Y023275D01*
X005732Y023242D01*
X005773Y023218D01*
X005803Y023210D01*
X005722Y023129D01*
X005722Y022540D01*
X005804Y022458D01*
X005824Y022458D01*
X005824Y022316D01*
X005797Y022316D01*
X005715Y022234D01*
X005715Y021781D01*
X005797Y021699D01*
X006250Y021699D01*
X006332Y021781D01*
X006332Y022234D01*
X006250Y022316D01*
X006224Y022316D01*
X006224Y022458D01*
X006235Y022458D01*
X006317Y022540D01*
X006317Y023129D01*
X006240Y023206D01*
X006339Y023206D01*
X006384Y023218D01*
X006425Y023242D01*
X006459Y023275D01*
X006483Y023316D01*
X006495Y023362D01*
X006495Y023584D01*
X006117Y023584D01*
X006041Y023617D02*
X005628Y023617D01*
X005628Y023775D02*
X005663Y023775D01*
X005628Y023916D02*
X005546Y023998D01*
X004958Y023998D01*
X004876Y023916D01*
X004876Y023328D01*
X004958Y023246D01*
X005111Y023246D01*
X005111Y023211D01*
X005096Y023211D01*
X005014Y023129D01*
X005014Y022540D01*
X005096Y022458D01*
X005526Y022458D01*
X005609Y022540D01*
X005609Y023129D01*
X005526Y023211D01*
X005511Y023211D01*
X005511Y023246D01*
X005546Y023246D01*
X005628Y023328D01*
X005628Y023916D01*
X005611Y023934D02*
X005678Y023934D01*
X005663Y023458D02*
X005628Y023458D01*
X005600Y023300D02*
X005684Y023300D01*
X005734Y023141D02*
X005596Y023141D01*
X005609Y022983D02*
X005722Y022983D01*
X005722Y022824D02*
X005609Y022824D01*
X005609Y022666D02*
X005722Y022666D01*
X005756Y022507D02*
X005575Y022507D01*
X005824Y022349D02*
X002021Y022349D01*
X002129Y022190D02*
X005715Y022190D01*
X005715Y022032D02*
X002129Y022032D01*
X002129Y021873D02*
X005715Y021873D01*
X005782Y021715D02*
X004570Y021715D01*
X004570Y021556D02*
X006163Y021556D01*
X006265Y021715D02*
X006321Y021715D01*
X006332Y021873D02*
X006480Y021873D01*
X006332Y022032D02*
X006638Y022032D01*
X006797Y022190D02*
X006332Y022190D01*
X006224Y022349D02*
X006955Y022349D01*
X007114Y022507D02*
X006284Y022507D01*
X006317Y022666D02*
X007272Y022666D01*
X007431Y022824D02*
X006317Y022824D01*
X006317Y022983D02*
X007474Y022983D01*
X007474Y023141D02*
X006305Y023141D01*
X006473Y023300D02*
X007419Y023300D01*
X007261Y023458D02*
X006495Y023458D01*
X006117Y023775D02*
X006041Y023775D01*
X006041Y023934D02*
X006117Y023934D01*
X006310Y024409D02*
X000230Y024409D01*
X000230Y024251D02*
X006468Y024251D01*
X006627Y024092D02*
X000230Y024092D01*
X000230Y023934D02*
X002489Y023934D01*
X002474Y023775D02*
X001730Y023775D01*
X001888Y023617D02*
X002852Y023617D01*
X002928Y023617D02*
X003340Y023617D01*
X003340Y023775D02*
X003306Y023775D01*
X003340Y023916D02*
X003340Y023328D01*
X003422Y023246D01*
X003517Y023246D01*
X003517Y023211D01*
X003442Y023211D01*
X003360Y023129D01*
X003360Y022540D01*
X003442Y022458D01*
X003873Y022458D01*
X003955Y022540D01*
X003955Y023129D01*
X003917Y023167D01*
X003917Y023246D01*
X004011Y023246D01*
X004093Y023328D01*
X004093Y023916D01*
X004011Y023998D01*
X003422Y023998D01*
X003340Y023916D01*
X003358Y023934D02*
X003290Y023934D01*
X002928Y023934D02*
X002852Y023934D01*
X002852Y023775D02*
X002928Y023775D01*
X003306Y023458D02*
X003340Y023458D01*
X003369Y023300D02*
X003284Y023300D01*
X003234Y023141D02*
X003372Y023141D01*
X003360Y022983D02*
X003246Y022983D01*
X003246Y022824D02*
X003360Y022824D01*
X003360Y022666D02*
X003246Y022666D01*
X003213Y022507D02*
X003393Y022507D01*
X003922Y022507D02*
X005047Y022507D01*
X005014Y022666D02*
X003955Y022666D01*
X003955Y022824D02*
X005014Y022824D01*
X005014Y022983D02*
X003955Y022983D01*
X003943Y023141D02*
X005026Y023141D01*
X004904Y023300D02*
X004064Y023300D01*
X004093Y023458D02*
X004876Y023458D01*
X004876Y023617D02*
X004093Y023617D01*
X004093Y023775D02*
X004876Y023775D01*
X004893Y023934D02*
X004075Y023934D01*
X003937Y025202D02*
X001316Y025202D01*
X001441Y025360D02*
X002834Y025360D01*
X002834Y025519D02*
X001494Y025519D01*
X001494Y025677D02*
X002834Y025677D01*
X002834Y025836D02*
X001435Y025836D01*
X001302Y025994D02*
X002796Y025994D01*
X002794Y026153D02*
X001259Y026153D01*
X001420Y026311D02*
X002794Y026311D01*
X002794Y026470D02*
X001486Y026470D01*
X001494Y026628D02*
X002918Y026628D01*
X003153Y026628D02*
X003190Y026628D01*
X003190Y026637D02*
X003190Y026259D01*
X003548Y026259D01*
X003548Y026480D01*
X003536Y026526D01*
X003512Y026567D01*
X003479Y026601D01*
X003438Y026624D01*
X003392Y026637D01*
X003190Y026637D01*
X003190Y026470D02*
X003153Y026470D01*
X003153Y026311D02*
X003190Y026311D01*
X003424Y026628D02*
X003850Y026628D01*
X003850Y026787D02*
X001455Y026787D01*
X001351Y026945D02*
X003850Y026945D01*
X003850Y027104D02*
X001141Y027104D01*
X001377Y027262D02*
X003701Y027262D01*
X003548Y026470D02*
X003862Y026470D01*
X003862Y026311D02*
X003548Y026311D01*
X003548Y026153D02*
X005135Y026153D01*
X005135Y026311D02*
X005107Y026311D01*
X005107Y026470D02*
X005135Y026470D01*
X005118Y026628D02*
X005135Y026628D01*
X005118Y026787D02*
X005135Y026787D01*
X005118Y026945D02*
X005135Y026945D01*
X005118Y027104D02*
X005135Y027104D01*
X005118Y027262D02*
X005135Y027262D01*
X005135Y027421D02*
X005034Y027421D01*
X005135Y027579D02*
X004875Y027579D01*
X004923Y028372D02*
X005037Y028372D01*
X005037Y028530D02*
X004923Y028530D01*
X004923Y028689D02*
X005037Y028689D01*
X005037Y028847D02*
X004923Y028847D01*
X005535Y026628D02*
X005743Y026628D01*
X005619Y026470D02*
X005535Y026470D01*
X005535Y026311D02*
X005619Y026311D01*
X005619Y026153D02*
X005535Y026153D01*
X005535Y025994D02*
X005621Y025994D01*
X005659Y025836D02*
X005406Y025836D01*
X004999Y025994D02*
X003547Y025994D01*
X003508Y025836D02*
X003862Y025836D01*
X002474Y023458D02*
X002047Y023458D01*
X002205Y023300D02*
X002496Y023300D01*
X002364Y023141D02*
X002664Y023141D01*
X002302Y022666D02*
X001696Y022666D01*
X001538Y022824D02*
X002143Y022824D01*
X001985Y022983D02*
X001490Y022983D01*
X001494Y023141D02*
X001826Y023141D01*
X001668Y023300D02*
X001451Y023300D01*
X001509Y023458D02*
X001342Y023458D01*
X001855Y022507D02*
X002685Y022507D01*
X002930Y021715D02*
X002129Y021715D01*
X002129Y021556D02*
X002930Y021556D01*
X002930Y021398D02*
X002129Y021398D01*
X002129Y021239D02*
X002930Y021239D01*
X002970Y021081D02*
X002129Y021081D01*
X002129Y020922D02*
X002970Y020922D01*
X002970Y020764D02*
X002216Y020764D01*
X002375Y020605D02*
X002970Y020605D01*
X003117Y020447D02*
X002533Y020447D01*
X002692Y020288D02*
X003156Y020288D01*
X003309Y020130D02*
X002850Y020130D01*
X003009Y019971D02*
X003309Y019971D01*
X003442Y019813D02*
X003167Y019813D01*
X003326Y019654D02*
X003506Y019654D01*
X003506Y019496D02*
X003484Y019496D01*
X003106Y019308D02*
X003106Y019004D01*
X003111Y018999D01*
X003111Y018992D01*
X002793Y018992D01*
X002788Y018987D01*
X002640Y018987D01*
X001863Y019764D01*
X001863Y020492D01*
X001456Y020900D01*
X001494Y020993D01*
X001494Y021196D01*
X001417Y021383D01*
X001273Y021527D01*
X001161Y021573D01*
X001195Y021585D01*
X001273Y021624D01*
X001343Y021675D01*
X001404Y021736D01*
X001455Y021806D01*
X001494Y021883D01*
X001521Y021966D01*
X001534Y022051D01*
X001534Y022074D01*
X001004Y022074D01*
X001004Y022114D01*
X001534Y022114D01*
X001534Y022138D01*
X001521Y022223D01*
X001496Y022300D01*
X001729Y022067D01*
X001729Y020685D01*
X001846Y020568D01*
X003106Y019308D01*
X003077Y019337D02*
X002290Y019337D01*
X002448Y019179D02*
X003106Y019179D01*
X003106Y019020D02*
X002607Y019020D01*
X002918Y019496D02*
X002131Y019496D01*
X001973Y019654D02*
X002760Y019654D01*
X002601Y019813D02*
X001863Y019813D01*
X001863Y019971D02*
X002443Y019971D01*
X002284Y020130D02*
X001863Y020130D01*
X001863Y020288D02*
X002126Y020288D01*
X001967Y020447D02*
X001863Y020447D01*
X001809Y020605D02*
X001750Y020605D01*
X001729Y020764D02*
X001592Y020764D01*
X001465Y020922D02*
X001729Y020922D01*
X001729Y021081D02*
X001494Y021081D01*
X001476Y021239D02*
X001729Y021239D01*
X001729Y021398D02*
X001402Y021398D01*
X001203Y021556D02*
X001729Y021556D01*
X001729Y021715D02*
X001382Y021715D01*
X001489Y021873D02*
X001729Y021873D01*
X001729Y022032D02*
X001531Y022032D01*
X001526Y022190D02*
X001606Y022190D01*
X000357Y023775D02*
X000230Y023775D01*
X000230Y024568D02*
X006151Y024568D01*
X005993Y024726D02*
X000230Y024726D01*
X000230Y024885D02*
X005834Y024885D01*
X005978Y026311D02*
X006014Y026311D01*
X006014Y026470D02*
X005978Y026470D01*
X005978Y026628D02*
X006014Y026628D01*
X007473Y022300D02*
X007448Y022223D01*
X007434Y022138D01*
X007434Y022114D01*
X007964Y022114D01*
X007964Y022074D01*
X007434Y022074D01*
X007434Y022051D01*
X007448Y021966D01*
X007475Y021883D01*
X007514Y021806D01*
X007565Y021736D01*
X007626Y021675D01*
X007696Y021624D01*
X007773Y021585D01*
X007808Y021573D01*
X007695Y021527D01*
X007552Y021383D01*
X007474Y021196D01*
X007474Y020993D01*
X007484Y020969D01*
X006897Y020382D01*
X006897Y019272D01*
X006422Y018797D01*
X005984Y018797D01*
X005984Y018797D01*
X006101Y018797D01*
X006101Y018875D01*
X006089Y018921D01*
X006065Y018962D01*
X006031Y018996D01*
X005990Y019019D01*
X005945Y019032D01*
X005756Y019032D01*
X005756Y018802D01*
X005756Y018802D01*
X005756Y019032D01*
X005666Y019032D01*
X005666Y020493D01*
X007473Y022300D01*
X007443Y022190D02*
X007363Y022190D01*
X007437Y022032D02*
X007204Y022032D01*
X007046Y021873D02*
X007480Y021873D01*
X007586Y021715D02*
X006887Y021715D01*
X006729Y021556D02*
X007766Y021556D01*
X007566Y021398D02*
X006570Y021398D01*
X006412Y021239D02*
X007492Y021239D01*
X007474Y021081D02*
X006253Y021081D01*
X006095Y020922D02*
X007437Y020922D01*
X007278Y020764D02*
X005936Y020764D01*
X005778Y020605D02*
X007120Y020605D01*
X006961Y020447D02*
X005666Y020447D01*
X005666Y020288D02*
X006897Y020288D01*
X006897Y020130D02*
X005666Y020130D01*
X005666Y019971D02*
X006897Y019971D01*
X006897Y019813D02*
X005666Y019813D01*
X005666Y019654D02*
X006897Y019654D01*
X006897Y019496D02*
X005666Y019496D01*
X005666Y019337D02*
X006897Y019337D01*
X006804Y019179D02*
X005666Y019179D01*
X005756Y019020D02*
X005756Y019020D01*
X005756Y018862D02*
X005756Y018862D01*
X005987Y019020D02*
X006645Y019020D01*
X006487Y018862D02*
X006101Y018862D01*
X005266Y019496D02*
X004086Y019496D01*
X004086Y019654D02*
X005266Y019654D01*
X005266Y019813D02*
X004136Y019813D01*
X004219Y019971D02*
X005266Y019971D01*
X005266Y020130D02*
X004219Y020130D01*
X004372Y020288D02*
X005266Y020288D01*
X005266Y020447D02*
X004383Y020447D01*
X004530Y020605D02*
X005266Y020605D01*
X005363Y020764D02*
X004530Y020764D01*
X004530Y020922D02*
X005529Y020922D01*
X005687Y021081D02*
X004530Y021081D01*
X004570Y021239D02*
X005846Y021239D01*
X006004Y021398D02*
X004570Y021398D01*
X004211Y021556D02*
X004174Y021556D01*
X004174Y021715D02*
X004211Y021715D01*
X003816Y021715D02*
X003684Y021715D01*
X003684Y021556D02*
X003816Y021556D01*
X003816Y021398D02*
X003684Y021398D01*
X003684Y021239D02*
X003816Y021239D01*
X003856Y021081D02*
X003644Y021081D01*
X003644Y020922D02*
X003856Y020922D01*
X003856Y020764D02*
X003644Y020764D01*
X003644Y020605D02*
X003856Y020605D01*
X003768Y020447D02*
X003759Y020447D01*
X004086Y019337D02*
X004086Y019337D01*
X004686Y019337D02*
X004686Y019337D01*
X003326Y021556D02*
X003289Y021556D01*
X003289Y021715D02*
X003326Y021715D01*
X004025Y014741D02*
X004096Y014741D01*
X004096Y014582D02*
X003866Y014582D01*
X003708Y014424D02*
X004096Y014424D01*
X004096Y014265D02*
X003549Y014265D01*
X003418Y014107D02*
X004096Y014107D01*
X004096Y013948D02*
X003418Y013948D01*
X003418Y013790D02*
X004096Y013790D01*
X004096Y013631D02*
X003418Y013631D01*
X003418Y013473D02*
X004096Y013473D01*
X004096Y013314D02*
X003418Y013314D01*
X003418Y013156D02*
X004096Y013156D01*
X004096Y012997D02*
X003418Y012997D01*
X003418Y012839D02*
X004096Y012839D01*
X004096Y012680D02*
X003418Y012680D01*
X003418Y012522D02*
X004096Y012522D01*
X004096Y012363D02*
X003418Y012363D01*
X003418Y012205D02*
X004096Y012205D01*
X004096Y012046D02*
X003418Y012046D01*
X003418Y011888D02*
X004222Y011888D01*
X004380Y011729D02*
X003418Y011729D01*
X003418Y011571D02*
X003451Y011571D01*
X003451Y011412D02*
X003418Y011412D01*
X003418Y011254D02*
X003451Y011254D01*
X003418Y011095D02*
X003488Y011095D01*
X003418Y010937D02*
X004208Y010937D01*
X004366Y010778D02*
X003418Y010778D01*
X003418Y010620D02*
X004525Y010620D01*
X004683Y010461D02*
X003418Y010461D01*
X003418Y010303D02*
X004842Y010303D01*
X005000Y010144D02*
X003418Y010144D01*
X003418Y009986D02*
X005159Y009986D01*
X005317Y009827D02*
X003418Y009827D01*
X003418Y009669D02*
X005476Y009669D01*
X005606Y009510D02*
X003418Y009510D01*
X003360Y009352D02*
X005606Y009352D01*
X005606Y009193D02*
X003202Y009193D01*
X003043Y009035D02*
X005134Y009035D01*
X005735Y010144D02*
X005965Y010144D01*
X005894Y009986D02*
X006124Y009986D01*
X006052Y009827D02*
X006282Y009827D01*
X006306Y009669D02*
X006126Y009669D01*
X006126Y009510D02*
X006306Y009510D01*
X006306Y009352D02*
X006126Y009352D01*
X006126Y009193D02*
X006306Y009193D01*
X006306Y009035D02*
X006126Y009035D01*
X006126Y008876D02*
X006306Y008876D01*
X006306Y008718D02*
X006126Y008718D01*
X006126Y008559D02*
X006306Y008559D01*
X006306Y008401D02*
X006126Y008401D01*
X006126Y008242D02*
X006306Y008242D01*
X006306Y008084D02*
X006126Y008084D01*
X006126Y007925D02*
X006306Y007925D01*
X006306Y007767D02*
X006126Y007767D01*
X006126Y007608D02*
X006306Y007608D01*
X006306Y007450D02*
X006126Y007450D01*
X006126Y007291D02*
X006306Y007291D01*
X006306Y007133D02*
X006126Y007133D01*
X006126Y006974D02*
X006306Y006974D01*
X006306Y006816D02*
X006126Y006816D01*
X006126Y006657D02*
X006306Y006657D01*
X006306Y006499D02*
X006126Y006499D01*
X006272Y006340D02*
X006306Y006340D01*
X006362Y005389D02*
X006421Y005389D01*
X006397Y005231D02*
X006580Y005231D01*
X006556Y005072D02*
X006738Y005072D01*
X006709Y004914D02*
X006897Y004914D01*
X006744Y004755D02*
X007055Y004755D01*
X007214Y004597D02*
X006744Y004597D01*
X006744Y004438D02*
X007372Y004438D01*
X007509Y004280D02*
X006744Y004280D01*
X006744Y004121D02*
X007474Y004121D01*
X007487Y003963D02*
X006744Y003963D01*
X006744Y003804D02*
X007553Y003804D01*
X007735Y003646D02*
X006744Y003646D01*
X003745Y008876D02*
X002885Y008876D01*
X002726Y008718D02*
X003587Y008718D01*
X003428Y008559D02*
X002568Y008559D01*
X002409Y008401D02*
X003270Y008401D01*
X003111Y008242D02*
X002251Y008242D01*
X002092Y008084D02*
X002953Y008084D01*
X002802Y007925D02*
X002040Y007925D01*
X002040Y007767D02*
X002802Y007767D01*
X002802Y007608D02*
X002040Y007608D01*
X002040Y007450D02*
X002802Y007450D01*
X002802Y007291D02*
X002040Y007291D01*
X002040Y007133D02*
X002802Y007133D01*
X002802Y006974D02*
X002040Y006974D01*
X002040Y006816D02*
X002802Y006816D01*
X002802Y006657D02*
X002040Y006657D01*
X002040Y006499D02*
X002802Y006499D01*
X002802Y006340D02*
X002040Y006340D01*
X002040Y006182D02*
X002802Y006182D01*
X002802Y006023D02*
X002040Y006023D01*
X002023Y005865D02*
X002802Y005865D01*
X002802Y005706D02*
X001864Y005706D01*
X001706Y005548D02*
X002802Y005548D01*
X002802Y005389D02*
X001547Y005389D01*
X001480Y005231D02*
X002802Y005231D01*
X002802Y005072D02*
X001494Y005072D01*
X001461Y004914D02*
X002802Y004914D01*
X002802Y004755D02*
X001366Y004755D01*
X001477Y004597D02*
X002802Y004597D01*
X002802Y004438D02*
X001534Y004438D01*
X001534Y004280D02*
X002802Y004280D01*
X002802Y004121D02*
X001534Y004121D01*
X001534Y003963D02*
X002802Y003963D01*
X002802Y003804D02*
X001534Y003804D01*
X001516Y003646D02*
X002802Y003646D01*
X002777Y003170D02*
X002802Y003170D01*
X002504Y003170D02*
X002464Y003170D01*
X002464Y003012D02*
X002504Y003012D01*
X002504Y002853D02*
X002464Y002853D01*
X001004Y003646D02*
X000964Y003646D01*
X000964Y003804D02*
X001004Y003804D01*
X001004Y003963D02*
X000964Y003963D01*
X004784Y011095D02*
X005014Y011095D01*
X004943Y010937D02*
X005173Y010937D01*
X005101Y010778D02*
X005331Y010778D01*
X005260Y010620D02*
X005490Y010620D01*
X005418Y010461D02*
X005648Y010461D01*
X005577Y010303D02*
X005807Y010303D01*
X004856Y011254D02*
X004626Y011254D01*
X004697Y011412D02*
X004467Y011412D01*
X004539Y011571D02*
X004309Y011571D01*
D22*
X004286Y012092D02*
X006496Y009882D01*
X006496Y005583D01*
X007984Y004094D01*
X007984Y005094D02*
X006693Y006386D01*
X006693Y009961D01*
X004486Y012168D01*
X004486Y016347D01*
X004686Y016347D02*
X004686Y012243D01*
X006890Y010039D01*
X006890Y007244D01*
X007984Y006150D01*
X007984Y006094D01*
X007984Y007094D02*
X007984Y007102D01*
X007087Y008000D01*
X007087Y010138D01*
X004876Y012349D01*
X004876Y016347D01*
X005076Y016347D02*
X005076Y012444D01*
X007283Y010236D01*
X007283Y008803D01*
X007984Y008102D01*
X007984Y008094D01*
X007984Y009094D02*
X007984Y009102D01*
X007480Y009606D01*
X007480Y010335D01*
X005276Y012539D01*
X005276Y016347D01*
X005466Y016347D02*
X005466Y012613D01*
X007984Y010094D01*
X007984Y011094D02*
X007976Y011102D01*
X007587Y011102D01*
X006693Y011996D01*
X006693Y014764D01*
X006299Y015157D01*
X006299Y016437D01*
X006100Y016637D01*
X005756Y016637D01*
X005756Y016827D02*
X006303Y016827D01*
X006496Y016634D01*
X006496Y015256D01*
X006890Y014862D01*
X006890Y012799D01*
X007587Y012102D01*
X007976Y012102D01*
X007984Y012094D01*
X007984Y013094D02*
X007976Y013102D01*
X007587Y013102D01*
X007087Y013602D01*
X007087Y014961D01*
X006693Y015354D01*
X006693Y016732D01*
X006399Y017027D01*
X005756Y017027D01*
X005756Y017227D02*
X006494Y017227D01*
X006890Y016831D01*
X006890Y015453D01*
X007283Y015059D01*
X007283Y014406D01*
X007587Y014102D01*
X007976Y014102D01*
X007984Y014094D01*
X007984Y015094D02*
X007976Y015102D01*
X007587Y015102D01*
X007087Y015602D01*
X007087Y016929D01*
X006599Y017417D01*
X005756Y017417D01*
X005756Y017617D02*
X006694Y017617D01*
X007283Y017028D01*
X007283Y016406D01*
X007587Y016102D01*
X007976Y016102D01*
X007984Y016094D01*
X007984Y017094D02*
X007976Y017102D01*
X007587Y017102D01*
X006872Y017817D01*
X005756Y017817D01*
X005756Y018017D02*
X007898Y018017D01*
X007096Y018207D02*
X007984Y019094D01*
X007283Y019500D02*
X007878Y020094D01*
X007984Y020094D01*
X007087Y020303D02*
X007878Y021094D01*
X007984Y021094D01*
X007283Y019500D02*
X007283Y019094D01*
X006596Y018407D01*
X005756Y018407D01*
X005756Y018607D02*
X006500Y018607D01*
X007087Y019193D01*
X007087Y020303D01*
X007096Y018207D02*
X005756Y018207D01*
X004686Y019087D02*
X004686Y019625D01*
X004429Y019882D01*
X004086Y019539D01*
X004086Y019087D01*
X003896Y019087D02*
X003896Y019841D01*
X003980Y019925D01*
X003980Y020165D01*
X004193Y020378D01*
X004193Y020807D01*
X003547Y019976D02*
X003696Y019828D01*
X003696Y019087D01*
X003496Y019087D02*
X003496Y019713D01*
X003150Y020059D01*
X003307Y020406D02*
X003547Y020165D01*
X003547Y019976D01*
X003307Y020406D02*
X003307Y020807D01*
X001673Y019685D02*
X002562Y018797D01*
X003016Y018797D01*
X003016Y018607D02*
X002480Y018607D01*
X000992Y020094D01*
X000984Y020094D01*
X001673Y020413D02*
X000992Y021094D01*
X000984Y021094D01*
X000984Y021102D01*
X000354Y021732D01*
X000354Y023504D01*
X000512Y023661D01*
X001575Y023661D01*
X002402Y022835D01*
X002949Y022835D01*
X001673Y020413D02*
X001673Y019685D01*
X000984Y019094D02*
X001672Y018407D01*
X003016Y018407D01*
X003016Y018207D02*
X001088Y018207D01*
X001088Y018199D01*
X000984Y018094D01*
X001867Y018017D02*
X000984Y017134D01*
X000984Y017094D01*
X001476Y017224D02*
X001476Y016626D01*
X000984Y016134D01*
X000984Y016094D01*
X001476Y017224D02*
X002069Y017817D01*
X003016Y017817D01*
X003016Y018017D02*
X001867Y018017D01*
X002164Y017617D02*
X001673Y017126D01*
X001673Y015823D01*
X000984Y015134D01*
X000984Y015094D01*
X001476Y015059D02*
X001476Y014626D01*
X000984Y014134D01*
X000984Y014094D01*
X001673Y013823D02*
X000984Y013134D01*
X000984Y013094D01*
X001870Y013020D02*
X000984Y012134D01*
X000984Y012094D01*
X000984Y011134D02*
X002067Y012217D01*
X002067Y014764D01*
X002461Y015157D01*
X002461Y016732D01*
X002555Y016827D01*
X003016Y016827D01*
X003016Y016637D02*
X003016Y015417D01*
X002264Y014665D01*
X002264Y011413D01*
X000984Y010134D01*
X000984Y010094D01*
X000984Y011094D02*
X000984Y011134D01*
X001870Y013020D02*
X001870Y014862D01*
X002264Y015256D01*
X002264Y016831D01*
X002460Y017027D01*
X003016Y017027D01*
X003016Y017227D02*
X002364Y017227D01*
X002067Y016929D01*
X002067Y015354D01*
X001673Y014961D01*
X001673Y013823D01*
X001476Y015059D02*
X001870Y015453D01*
X001870Y017028D01*
X002259Y017417D01*
X003016Y017417D01*
X003016Y017617D02*
X002164Y017617D01*
X003306Y016347D02*
X003306Y015412D01*
X002461Y014567D01*
X002461Y010610D01*
X000984Y009134D01*
X000984Y009094D01*
X000984Y008134D02*
X002657Y009807D01*
X002657Y014469D01*
X003496Y015307D01*
X003496Y016347D01*
X003696Y016347D02*
X003696Y015212D01*
X002854Y014370D01*
X002854Y009646D01*
X001476Y008268D01*
X001476Y007626D01*
X000984Y007134D01*
X000984Y007094D01*
X000984Y008094D02*
X000984Y008134D01*
X001673Y008169D02*
X001673Y006823D01*
X000984Y006134D01*
X000984Y006094D01*
X001850Y005961D02*
X000984Y005094D01*
X001850Y005961D02*
X001850Y008110D01*
X003228Y009488D01*
X003228Y014213D01*
X004086Y015070D01*
X004086Y016347D01*
X003896Y016347D02*
X003896Y015116D01*
X003051Y014272D01*
X003051Y009547D01*
X001673Y008169D01*
X002992Y007854D02*
X003878Y008740D01*
X005374Y008740D01*
X004286Y012092D02*
X004286Y016347D01*
X002992Y007854D02*
X002992Y002283D01*
X003445Y001831D01*
X003484Y001831D01*
D23*
X005965Y004291D02*
X005453Y005866D01*
X005466Y019087D02*
X005466Y020584D01*
X005474Y020584D01*
X007984Y023094D01*
X006024Y022831D02*
X006024Y022008D01*
X006024Y022831D02*
X006020Y022835D01*
X005311Y022835D02*
X005311Y023563D01*
X005252Y023622D01*
X004858Y025571D02*
X005335Y026047D01*
X005335Y028622D01*
X003717Y023622D02*
X003717Y022894D01*
X003657Y022835D01*
X001929Y022157D02*
X001929Y020768D01*
X003306Y019391D01*
X003306Y019087D01*
X001929Y022157D02*
X001921Y022157D01*
X000984Y023094D01*
D24*
X003128Y025571D02*
X003171Y025571D01*
X004110Y025571D01*
X004110Y026595D02*
X004110Y027220D01*
X003740Y027591D01*
X000984Y027591D01*
X003602Y028622D02*
X004626Y028622D01*
X004496Y027591D02*
X003740Y027591D01*
X004496Y027591D02*
X004858Y027228D01*
X004858Y026595D01*
X004858Y025571D02*
X005996Y025571D01*
X005996Y025091D01*
X007984Y023102D01*
X007984Y023094D01*
X005996Y025571D02*
X005996Y025571D01*
X004134Y011378D02*
X003780Y011378D01*
X004134Y011378D02*
X005866Y009646D01*
X005866Y006378D01*
X006102Y006142D01*
X006102Y005157D01*
X006484Y004776D01*
X006484Y002685D01*
X006484Y001685D01*
D25*
X003780Y011378D03*
D26*
X005374Y008740D03*
X005453Y005866D03*
X005965Y004291D03*
X006024Y022008D03*
M02*
