%
M48
M72
T01C0.0197
T02C0.0236
T03C0.0400
T04C0.0630
%
T01
X5374Y8740
X5453Y5866
X5965Y4291
X6024Y22008
T02
X3780Y11378
T03
X984Y11094
X984Y10094
X984Y9094
X984Y8094
X984Y7094
X984Y6094
X984Y5094
X984Y4094
X2484Y2685
X2484Y1685
X3484Y1685
X3484Y2685
X4484Y2685
X4484Y1685
X5484Y1685
X5484Y2685
X6484Y2685
X6484Y1685
X7984Y4094
X7984Y5094
X7984Y6094
X7984Y7094
X7984Y8094
X7984Y9094
X7984Y10094
X7984Y11094
X7984Y12094
X7984Y13094
X7984Y14094
X7984Y15094
X7984Y16094
X7984Y17094
X7984Y18094
X7984Y19094
X7984Y20094
X7984Y21094
X7984Y22094
X7984Y23094
X7984Y25591
X7984Y26591
X7984Y27591
X984Y27591
X984Y26591
X984Y25591
X984Y23094
X984Y22094
X984Y21094
X984Y20094
X984Y19094
X984Y18094
X984Y17094
X984Y16094
X984Y15094
X984Y14094
X984Y13094
X984Y12094
T04
X787Y787
X8181Y787
X8181Y28937
X787Y28937
M30
