G75*
%MOIN*%
%OFA0B0*%
%FSLAX24Y24*%
%IPPOS*%
%LPD*%
%AMOC8*
5,1,8,0,0,1.08239X$1,22.5*
%
%ADD10C,0.0000*%
D10*
X000000Y000000D02*
X000000Y029724D01*
X008957Y029724D01*
X008957Y000000D01*
X008969Y000000D01*
X008957Y000000D02*
X000000Y000000D01*
X000472Y000787D02*
X000474Y000822D01*
X000480Y000857D01*
X000490Y000891D01*
X000503Y000924D01*
X000520Y000955D01*
X000541Y000983D01*
X000564Y001010D01*
X000591Y001033D01*
X000619Y001054D01*
X000650Y001071D01*
X000683Y001084D01*
X000717Y001094D01*
X000752Y001100D01*
X000787Y001102D01*
X000822Y001100D01*
X000857Y001094D01*
X000891Y001084D01*
X000924Y001071D01*
X000955Y001054D01*
X000983Y001033D01*
X001010Y001010D01*
X001033Y000983D01*
X001054Y000955D01*
X001071Y000924D01*
X001084Y000891D01*
X001094Y000857D01*
X001100Y000822D01*
X001102Y000787D01*
X001100Y000752D01*
X001094Y000717D01*
X001084Y000683D01*
X001071Y000650D01*
X001054Y000619D01*
X001033Y000591D01*
X001010Y000564D01*
X000983Y000541D01*
X000955Y000520D01*
X000924Y000503D01*
X000891Y000490D01*
X000857Y000480D01*
X000822Y000474D01*
X000787Y000472D01*
X000752Y000474D01*
X000717Y000480D01*
X000683Y000490D01*
X000650Y000503D01*
X000619Y000520D01*
X000591Y000541D01*
X000564Y000564D01*
X000541Y000591D01*
X000520Y000619D01*
X000503Y000650D01*
X000490Y000683D01*
X000480Y000717D01*
X000474Y000752D01*
X000472Y000787D01*
X007866Y000787D02*
X007868Y000822D01*
X007874Y000857D01*
X007884Y000891D01*
X007897Y000924D01*
X007914Y000955D01*
X007935Y000983D01*
X007958Y001010D01*
X007985Y001033D01*
X008013Y001054D01*
X008044Y001071D01*
X008077Y001084D01*
X008111Y001094D01*
X008146Y001100D01*
X008181Y001102D01*
X008216Y001100D01*
X008251Y001094D01*
X008285Y001084D01*
X008318Y001071D01*
X008349Y001054D01*
X008377Y001033D01*
X008404Y001010D01*
X008427Y000983D01*
X008448Y000955D01*
X008465Y000924D01*
X008478Y000891D01*
X008488Y000857D01*
X008494Y000822D01*
X008496Y000787D01*
X008494Y000752D01*
X008488Y000717D01*
X008478Y000683D01*
X008465Y000650D01*
X008448Y000619D01*
X008427Y000591D01*
X008404Y000564D01*
X008377Y000541D01*
X008349Y000520D01*
X008318Y000503D01*
X008285Y000490D01*
X008251Y000480D01*
X008216Y000474D01*
X008181Y000472D01*
X008146Y000474D01*
X008111Y000480D01*
X008077Y000490D01*
X008044Y000503D01*
X008013Y000520D01*
X007985Y000541D01*
X007958Y000564D01*
X007935Y000591D01*
X007914Y000619D01*
X007897Y000650D01*
X007884Y000683D01*
X007874Y000717D01*
X007868Y000752D01*
X007866Y000787D01*
X007866Y028937D02*
X007868Y028972D01*
X007874Y029007D01*
X007884Y029041D01*
X007897Y029074D01*
X007914Y029105D01*
X007935Y029133D01*
X007958Y029160D01*
X007985Y029183D01*
X008013Y029204D01*
X008044Y029221D01*
X008077Y029234D01*
X008111Y029244D01*
X008146Y029250D01*
X008181Y029252D01*
X008216Y029250D01*
X008251Y029244D01*
X008285Y029234D01*
X008318Y029221D01*
X008349Y029204D01*
X008377Y029183D01*
X008404Y029160D01*
X008427Y029133D01*
X008448Y029105D01*
X008465Y029074D01*
X008478Y029041D01*
X008488Y029007D01*
X008494Y028972D01*
X008496Y028937D01*
X008494Y028902D01*
X008488Y028867D01*
X008478Y028833D01*
X008465Y028800D01*
X008448Y028769D01*
X008427Y028741D01*
X008404Y028714D01*
X008377Y028691D01*
X008349Y028670D01*
X008318Y028653D01*
X008285Y028640D01*
X008251Y028630D01*
X008216Y028624D01*
X008181Y028622D01*
X008146Y028624D01*
X008111Y028630D01*
X008077Y028640D01*
X008044Y028653D01*
X008013Y028670D01*
X007985Y028691D01*
X007958Y028714D01*
X007935Y028741D01*
X007914Y028769D01*
X007897Y028800D01*
X007884Y028833D01*
X007874Y028867D01*
X007868Y028902D01*
X007866Y028937D01*
X008957Y029724D02*
X008969Y029724D01*
X000472Y028937D02*
X000474Y028972D01*
X000480Y029007D01*
X000490Y029041D01*
X000503Y029074D01*
X000520Y029105D01*
X000541Y029133D01*
X000564Y029160D01*
X000591Y029183D01*
X000619Y029204D01*
X000650Y029221D01*
X000683Y029234D01*
X000717Y029244D01*
X000752Y029250D01*
X000787Y029252D01*
X000822Y029250D01*
X000857Y029244D01*
X000891Y029234D01*
X000924Y029221D01*
X000955Y029204D01*
X000983Y029183D01*
X001010Y029160D01*
X001033Y029133D01*
X001054Y029105D01*
X001071Y029074D01*
X001084Y029041D01*
X001094Y029007D01*
X001100Y028972D01*
X001102Y028937D01*
X001100Y028902D01*
X001094Y028867D01*
X001084Y028833D01*
X001071Y028800D01*
X001054Y028769D01*
X001033Y028741D01*
X001010Y028714D01*
X000983Y028691D01*
X000955Y028670D01*
X000924Y028653D01*
X000891Y028640D01*
X000857Y028630D01*
X000822Y028624D01*
X000787Y028622D01*
X000752Y028624D01*
X000717Y028630D01*
X000683Y028640D01*
X000650Y028653D01*
X000619Y028670D01*
X000591Y028691D01*
X000564Y028714D01*
X000541Y028741D01*
X000520Y028769D01*
X000503Y028800D01*
X000490Y028833D01*
X000480Y028867D01*
X000474Y028902D01*
X000472Y028937D01*
M02*
