G75*
%MOIN*%
%OFA0B0*%
%FSLAX24Y24*%
%IPPOS*%
%LPD*%
%AMOC8*
5,1,8,0,0,1.08239X$1,22.5*
%
%ADD10C,0.0030*%
%ADD11R,0.0217X0.0020*%
%ADD12R,0.0256X0.0020*%
%ADD13R,0.0315X0.0020*%
%ADD14R,0.0335X0.0020*%
%ADD15R,0.0236X0.0020*%
%ADD16R,0.0276X0.0020*%
%ADD17R,0.0354X0.0020*%
%ADD18R,0.0630X0.0020*%
%ADD19R,0.0374X0.0020*%
%ADD20R,0.0610X0.0020*%
%ADD21R,0.0787X0.0020*%
%ADD22R,0.0039X0.0020*%
%ADD23R,0.0098X0.0020*%
%ADD24R,0.0157X0.0020*%
%ADD25R,0.0768X0.0020*%
%ADD26R,0.0846X0.0020*%
%ADD27R,0.0748X0.0020*%
%ADD28R,0.0866X0.0020*%
%ADD29R,0.0886X0.0020*%
%ADD30R,0.0295X0.0020*%
%ADD31R,0.0453X0.0020*%
%ADD32R,0.0827X0.0020*%
%ADD33R,0.0413X0.0020*%
%ADD34R,0.0177X0.0020*%
%ADD35R,0.1732X0.0020*%
%ADD36R,0.1713X0.0020*%
%ADD37R,0.0591X0.0020*%
%ADD38R,0.0059X0.0020*%
%ADD39R,0.0551X0.0020*%
%ADD40R,0.0079X0.0020*%
%ADD41R,0.0531X0.0020*%
%ADD42R,0.0197X0.0020*%
%ADD43R,0.0571X0.0020*%
%ADD44R,0.0492X0.0020*%
%ADD45R,0.0472X0.0020*%
%ADD46R,0.0669X0.0020*%
%ADD47R,0.0650X0.0020*%
%ADD48R,0.0394X0.0020*%
%ADD49R,0.0138X0.0020*%
%ADD50R,0.0118X0.0020*%
%ADD51R,0.0433X0.0020*%
%ADD52R,0.0020X0.0020*%
%ADD53R,0.0512X0.0020*%
%ADD54R,0.1358X0.0020*%
%ADD55R,0.1339X0.0020*%
%ADD56R,0.1319X0.0020*%
%ADD57R,0.0807X0.0020*%
%ADD58R,0.0709X0.0020*%
%ADD59R,0.1398X0.0020*%
%ADD60R,0.1457X0.0020*%
%ADD61R,0.1535X0.0020*%
%ADD62R,0.1594X0.0020*%
%ADD63R,0.2087X0.0020*%
%ADD64R,0.2106X0.0020*%
%ADD65R,0.2126X0.0020*%
%ADD66R,0.2067X0.0020*%
%ADD67R,0.2047X0.0020*%
%ADD68R,0.2028X0.0020*%
%ADD69R,0.1004X0.0020*%
%ADD70R,0.0689X0.0020*%
%ADD71R,0.0906X0.0020*%
%ADD72R,0.0728X0.0020*%
%ADD73R,0.0925X0.0020*%
%ADD74R,0.0965X0.0020*%
%ADD75R,0.0984X0.0020*%
%ADD76R,0.1634X0.0020*%
%ADD77R,0.1024X0.0020*%
%ADD78R,0.2697X0.0020*%
%ADD79R,0.1555X0.0020*%
%ADD80R,0.1516X0.0020*%
%ADD81R,0.1201X0.0020*%
%ADD82R,0.1240X0.0020*%
%ADD83R,0.1260X0.0020*%
%ADD84R,0.1299X0.0020*%
%ADD85R,0.1280X0.0020*%
D10*
X001747Y005232D02*
X001747Y005425D01*
X001796Y005526D02*
X001844Y005575D01*
X001844Y005720D01*
X001892Y005720D02*
X001747Y005720D01*
X001747Y005575D01*
X001796Y005526D01*
X001941Y005575D02*
X001941Y005671D01*
X001892Y005720D01*
X001941Y005821D02*
X001796Y005821D01*
X001747Y005869D01*
X001747Y006014D01*
X001941Y006014D01*
X001941Y006115D02*
X001941Y006261D01*
X001892Y006309D01*
X001747Y006309D01*
X001796Y006410D02*
X001747Y006459D01*
X001747Y006604D01*
X001747Y006705D02*
X002038Y006705D01*
X002131Y006752D02*
X002131Y006801D01*
X002179Y006849D01*
X002421Y006849D01*
X002421Y006656D02*
X002276Y006656D01*
X002227Y006704D01*
X002227Y006849D01*
X002227Y006555D02*
X002372Y006555D01*
X002421Y006506D01*
X002372Y006458D01*
X002227Y006458D01*
X002227Y006361D02*
X002421Y006361D01*
X002421Y006409D01*
X002372Y006458D01*
X002372Y006260D02*
X002324Y006260D01*
X002324Y006066D01*
X002276Y006066D02*
X002372Y006066D01*
X002421Y006115D01*
X002421Y006212D01*
X002372Y006260D01*
X002227Y006212D02*
X002227Y006115D01*
X002276Y006066D01*
X002421Y005966D02*
X002421Y005918D01*
X002324Y005821D01*
X002227Y005821D02*
X002421Y005821D01*
X002372Y005720D02*
X002324Y005720D01*
X002324Y005526D01*
X002276Y005526D02*
X002372Y005526D01*
X002421Y005575D01*
X002421Y005671D01*
X002372Y005720D01*
X002227Y005671D02*
X002227Y005575D01*
X002276Y005526D01*
X002276Y005377D02*
X002518Y005377D01*
X002518Y005425D02*
X002518Y005328D01*
X002276Y005377D02*
X002227Y005328D01*
X002227Y005280D01*
X002276Y005232D01*
X002038Y005232D02*
X001747Y005232D01*
X001747Y006115D02*
X001941Y006115D01*
X001892Y006410D02*
X001796Y006410D01*
X001892Y006410D02*
X001941Y006459D01*
X001941Y006604D01*
X001892Y006705D02*
X001941Y006753D01*
X001941Y006850D01*
X001892Y006898D01*
X001747Y006898D01*
X001747Y006999D02*
X001747Y007145D01*
X001796Y007193D01*
X001892Y007193D01*
X001941Y007145D01*
X001941Y006999D01*
X001651Y006999D01*
X001796Y007294D02*
X001844Y007342D01*
X001844Y007488D01*
X001892Y007488D02*
X001747Y007488D01*
X001747Y007342D01*
X001796Y007294D01*
X001941Y007342D02*
X001941Y007439D01*
X001892Y007488D01*
X001892Y007589D02*
X001796Y007589D01*
X001747Y007637D01*
X001747Y007782D01*
X002038Y007782D01*
X001941Y007782D02*
X001941Y007637D01*
X001892Y007589D01*
X001941Y008178D02*
X002038Y008275D01*
X001747Y008275D01*
X001747Y008178D02*
X001747Y008372D01*
X001747Y008473D02*
X001747Y008521D01*
X001796Y008521D01*
X001796Y008473D01*
X001747Y008473D01*
X001747Y008620D02*
X001941Y008814D01*
X001989Y008814D01*
X002038Y008765D01*
X002038Y008668D01*
X001989Y008620D01*
X001747Y008620D02*
X001747Y008814D01*
X002227Y008522D02*
X002421Y008522D01*
X002421Y008619D02*
X002421Y008667D01*
X002421Y008619D02*
X002324Y008522D01*
X002324Y008421D02*
X002324Y008227D01*
X002276Y008227D02*
X002372Y008227D01*
X002421Y008276D01*
X002421Y008372D01*
X002372Y008421D01*
X002324Y008421D01*
X002227Y008372D02*
X002227Y008276D01*
X002276Y008227D01*
X002227Y008126D02*
X002227Y007981D01*
X002276Y007933D01*
X002372Y007933D01*
X002421Y007981D01*
X002421Y008126D01*
X002518Y008126D02*
X002227Y008126D01*
X002227Y007833D02*
X002227Y007736D01*
X002227Y007784D02*
X002518Y007784D01*
X002518Y007736D01*
X002611Y007636D02*
X002611Y007587D01*
X002566Y007588D02*
X002518Y007588D01*
X002421Y007588D02*
X002227Y007588D01*
X002227Y007540D02*
X002227Y007636D01*
X002227Y007438D02*
X002518Y007438D01*
X002421Y007540D02*
X002421Y007588D01*
X002611Y007636D02*
X002659Y007684D01*
X002901Y007684D01*
X002901Y007785D02*
X002852Y007785D01*
X002852Y007834D01*
X002901Y007834D01*
X002901Y007785D01*
X002756Y007785D02*
X002707Y007785D01*
X002707Y007834D01*
X002756Y007834D01*
X002756Y007785D01*
X002707Y007684D02*
X002707Y007539D01*
X002756Y007491D01*
X002901Y007491D01*
X002852Y007389D02*
X002901Y007341D01*
X002901Y007196D01*
X002998Y007196D02*
X002707Y007196D01*
X002707Y007341D01*
X002756Y007389D01*
X002852Y007389D01*
X002852Y006800D02*
X002707Y006800D01*
X002852Y006800D02*
X002901Y006752D01*
X002901Y006607D01*
X002707Y006607D01*
X002707Y006505D02*
X002707Y006360D01*
X002756Y006312D01*
X002852Y006312D01*
X002901Y006360D01*
X002901Y006505D01*
X002659Y006505D01*
X002611Y006457D01*
X002611Y006409D01*
X002707Y006212D02*
X002707Y006115D01*
X002707Y006164D02*
X002901Y006164D01*
X002901Y006115D01*
X002901Y006014D02*
X002901Y005869D01*
X002852Y005821D01*
X002804Y005869D01*
X002804Y005966D01*
X002756Y006014D01*
X002707Y005966D01*
X002707Y005821D01*
X002804Y005720D02*
X002804Y005526D01*
X002756Y005526D02*
X002852Y005526D01*
X002901Y005575D01*
X002901Y005671D01*
X002852Y005720D01*
X002804Y005720D01*
X002707Y005671D02*
X002707Y005575D01*
X002756Y005526D01*
X002756Y005425D02*
X002949Y005425D01*
X002998Y005377D01*
X002998Y005232D01*
X002707Y005232D01*
X002707Y005377D01*
X002756Y005425D01*
X002998Y006164D02*
X003046Y006164D01*
X002518Y007245D02*
X002227Y007245D01*
X002324Y007342D01*
X002227Y007438D01*
D11*
X003819Y021476D03*
X003720Y022067D03*
X003839Y024567D03*
X003839Y024941D03*
X003386Y026004D03*
X002854Y025846D03*
X002598Y025846D03*
X002618Y025650D03*
X002638Y025630D03*
X002382Y025315D03*
X002362Y025335D03*
X002362Y025354D03*
X002343Y025394D03*
X002323Y025453D03*
X002303Y025512D03*
X002756Y024941D03*
X002972Y025177D03*
X002972Y025197D03*
X002972Y025217D03*
X002972Y025236D03*
X002972Y025256D03*
X002972Y025276D03*
X002972Y025295D03*
X002953Y025335D03*
X006102Y026398D03*
X006535Y026732D03*
X007028Y026673D03*
X007402Y026299D03*
X007343Y025433D03*
X006909Y025098D03*
X006594Y025020D03*
X006417Y025157D03*
X006535Y025925D03*
X006752Y022953D03*
D12*
X006752Y022972D03*
X005846Y024134D03*
X005098Y024882D03*
X005059Y022776D03*
X004823Y022165D03*
X004823Y022047D03*
X004311Y022421D03*
X003937Y022441D03*
X003937Y022461D03*
X004173Y021496D03*
X004173Y021476D03*
X005512Y022776D03*
X002854Y024075D03*
X002953Y025138D03*
X002677Y025335D03*
X002657Y025315D03*
X002146Y024075D03*
X000866Y024075D03*
D13*
X002825Y025453D03*
X002785Y025531D03*
X003967Y022402D03*
X003711Y022126D03*
X004144Y021516D03*
X004419Y021791D03*
X005030Y021476D03*
X005699Y022087D03*
X005699Y022106D03*
X005699Y022126D03*
X005699Y022146D03*
X005699Y022165D03*
X005758Y022028D03*
X005030Y022756D03*
X005856Y023858D03*
X005108Y024862D03*
X006191Y025906D03*
X006211Y026043D03*
X007254Y025925D03*
X006742Y022992D03*
D14*
X005768Y022008D03*
X005512Y021516D03*
X005531Y021496D03*
X005531Y021476D03*
X005039Y021496D03*
X004803Y022205D03*
X004469Y022067D03*
X004469Y022047D03*
X005039Y022717D03*
X005039Y022736D03*
X005177Y022815D03*
X005256Y022874D03*
X005531Y022736D03*
X005512Y022697D03*
X006594Y024980D03*
X006398Y025197D03*
X006201Y026063D03*
X006496Y026693D03*
X007047Y026634D03*
X003661Y021831D03*
X003642Y021870D03*
X003642Y021890D03*
X003642Y021909D03*
X003642Y021929D03*
X002854Y024094D03*
X002756Y024961D03*
X002500Y025177D03*
X002146Y024744D03*
X002146Y024094D03*
X003406Y025315D03*
D15*
X003396Y025295D03*
X002963Y025315D03*
X002963Y025157D03*
X002726Y025984D03*
X002333Y025020D03*
X003711Y022087D03*
X003691Y021969D03*
X003809Y021496D03*
X004400Y021831D03*
X004833Y022067D03*
X004833Y022087D03*
X004833Y022106D03*
X004833Y022126D03*
X004833Y022146D03*
X003927Y022480D03*
X003927Y022500D03*
X003848Y025315D03*
X004754Y025394D03*
D16*
X005246Y022854D03*
X004301Y022402D03*
X004419Y021811D03*
X003809Y021516D03*
X003671Y021949D03*
X003711Y022106D03*
X003947Y022421D03*
X002943Y025118D03*
X002805Y025492D03*
X002785Y025512D03*
X001506Y024764D03*
X001486Y024075D03*
X006211Y025925D03*
X006211Y025945D03*
X006211Y025965D03*
X006211Y025984D03*
X006211Y026004D03*
X006407Y025177D03*
X007234Y025827D03*
X007234Y025846D03*
X007234Y025866D03*
X007037Y026654D03*
D17*
X007274Y025945D03*
X006959Y025138D03*
X006171Y025886D03*
X005108Y024843D03*
X005148Y022795D03*
X005049Y022697D03*
X005522Y022717D03*
X005719Y022185D03*
X005502Y021535D03*
X005049Y021516D03*
X004459Y022087D03*
X004459Y022106D03*
X004439Y022126D03*
X003691Y022146D03*
X003652Y021850D03*
X003671Y021811D03*
X002470Y025157D03*
X002510Y025197D03*
X002825Y025433D03*
X002766Y025551D03*
X002766Y025571D03*
X002726Y025945D03*
X003927Y026004D03*
X001486Y024094D03*
X000876Y024094D03*
D18*
X004104Y022323D03*
X004026Y021614D03*
X004006Y021594D03*
X003986Y021535D03*
X004498Y021732D03*
X005364Y023386D03*
X006604Y023465D03*
X006604Y023681D03*
X006250Y026260D03*
D19*
X006161Y025866D03*
X006516Y026614D03*
X006496Y026654D03*
X006496Y026673D03*
X007067Y026614D03*
X006949Y025177D03*
X006949Y025157D03*
X006594Y024961D03*
X006732Y023012D03*
X005256Y022894D03*
X004783Y022224D03*
X005059Y021535D03*
X004429Y022146D03*
X003681Y021791D03*
X003681Y021772D03*
X002441Y025138D03*
X003937Y025965D03*
D20*
X004961Y025374D03*
X005236Y024370D03*
X005846Y024941D03*
X006220Y025591D03*
X006220Y026240D03*
X007224Y026240D03*
X007244Y025610D03*
X007224Y025591D03*
X006673Y024311D03*
X006496Y024449D03*
X006614Y023484D03*
X006004Y022913D03*
X006004Y022894D03*
X005669Y022421D03*
X005689Y021850D03*
X005669Y021811D03*
X005669Y021791D03*
X004134Y022362D03*
X004134Y022382D03*
X004114Y022343D03*
X003996Y021575D03*
X003996Y021555D03*
D21*
X004990Y023681D03*
X004990Y023701D03*
X004951Y024016D03*
X004951Y024035D03*
X005285Y022657D03*
X005285Y022638D03*
X005285Y021693D03*
X005285Y021594D03*
X005285Y021575D03*
X005285Y021555D03*
X006585Y023406D03*
X006860Y024154D03*
X006407Y024508D03*
D22*
X006152Y023681D03*
X006152Y023661D03*
X006152Y023524D03*
X005443Y023957D03*
X005423Y024016D03*
X005423Y024035D03*
X005423Y024055D03*
X005423Y024075D03*
X005423Y024094D03*
X005423Y024114D03*
X005423Y024134D03*
X005423Y024154D03*
X005384Y022402D03*
X005305Y022185D03*
X005305Y022087D03*
X005207Y022106D03*
X004656Y022520D03*
X004498Y021575D03*
X003533Y021713D03*
X002667Y024154D03*
X002274Y024941D03*
X003396Y025276D03*
X003612Y025394D03*
X004341Y025295D03*
X004341Y026004D03*
X006427Y025787D03*
X006427Y025768D03*
X006427Y025748D03*
X006604Y025689D03*
X006624Y025728D03*
X006624Y025787D03*
X006703Y025728D03*
X006703Y025709D03*
X006821Y025650D03*
X006919Y025709D03*
X006919Y025728D03*
X006919Y025748D03*
X006919Y025787D03*
X006919Y025807D03*
X006998Y025728D03*
X007018Y025925D03*
X006939Y026102D03*
X006939Y026122D03*
X006821Y026122D03*
X006821Y026142D03*
X006821Y025906D03*
X006624Y025886D03*
X006526Y026063D03*
X006526Y026161D03*
X000699Y024705D03*
D23*
X000709Y024724D03*
X000728Y024370D03*
X000709Y024134D03*
X001004Y024508D03*
X001024Y024528D03*
X001004Y024724D03*
X001358Y024724D03*
X001654Y024724D03*
X001654Y024134D03*
X001969Y024134D03*
X002303Y024134D03*
X002343Y024685D03*
X002323Y024705D03*
X002736Y024724D03*
X003012Y024724D03*
X003051Y024705D03*
X003445Y024980D03*
X003445Y025039D03*
X003602Y025374D03*
X003917Y025335D03*
X003524Y025728D03*
X003543Y025748D03*
X003563Y025768D03*
X003248Y025591D03*
X003228Y025571D03*
X003209Y025551D03*
X003071Y024173D03*
X003051Y024154D03*
X003031Y024134D03*
X003642Y022323D03*
X004469Y021594D03*
X004685Y021713D03*
X005098Y022205D03*
X005256Y022224D03*
X005256Y022047D03*
X005276Y021850D03*
X005433Y021870D03*
X005453Y022205D03*
X005256Y022421D03*
X005256Y022776D03*
X005886Y021713D03*
X006142Y023543D03*
X006142Y023622D03*
X006594Y025079D03*
X006811Y025689D03*
X006516Y025728D03*
X006516Y025748D03*
X005984Y025512D03*
D24*
X006486Y025945D03*
X006781Y025768D03*
X006880Y025079D03*
X007018Y026693D03*
X005089Y024921D03*
X004695Y025433D03*
X004675Y025453D03*
X004793Y025866D03*
X004715Y026122D03*
X004734Y026142D03*
X003455Y025689D03*
X003356Y025650D03*
X003317Y025630D03*
X002963Y024744D03*
X002785Y024744D03*
X002313Y024980D03*
X001604Y024744D03*
X000955Y024744D03*
X000797Y024409D03*
X004459Y021614D03*
X005266Y022126D03*
X005266Y022146D03*
X005266Y022165D03*
X006762Y022933D03*
D25*
X006890Y023819D03*
X006890Y023976D03*
X006890Y023996D03*
X005906Y024882D03*
X005433Y023346D03*
X004980Y023720D03*
X004980Y023740D03*
X004980Y023760D03*
X004961Y023799D03*
X004961Y023819D03*
X004961Y023839D03*
X004961Y023858D03*
X004961Y023957D03*
X004961Y023976D03*
X004961Y023996D03*
X004961Y024055D03*
X005276Y022618D03*
X005276Y022598D03*
X005276Y021614D03*
D26*
X005039Y023563D03*
X005020Y023583D03*
X005276Y024469D03*
X006575Y023386D03*
X006811Y024291D03*
X004134Y021654D03*
X004134Y021634D03*
X003976Y022244D03*
X003976Y022264D03*
X002638Y025079D03*
D27*
X004951Y023937D03*
X004970Y023780D03*
X005246Y024429D03*
X005285Y022579D03*
X005285Y022559D03*
X005285Y022539D03*
X005285Y021673D03*
X005285Y021654D03*
X005285Y021634D03*
D28*
X005285Y021732D03*
X004144Y021673D03*
X002628Y025098D03*
X006663Y025354D03*
X006781Y026457D03*
X006781Y026476D03*
X006565Y023720D03*
D29*
X006673Y025374D03*
X006772Y026437D03*
X004134Y021693D03*
X003976Y022224D03*
D30*
X004291Y022205D03*
X004823Y022185D03*
X005217Y022835D03*
X005531Y022756D03*
X005709Y022067D03*
X005728Y022047D03*
X005846Y023681D03*
X005846Y023701D03*
X005846Y023720D03*
X005846Y023740D03*
X005846Y023760D03*
X005846Y023780D03*
X005846Y023799D03*
X005846Y023839D03*
X005846Y023937D03*
X005846Y023957D03*
X005846Y024016D03*
X005846Y024035D03*
X005846Y024055D03*
X005846Y024075D03*
X005846Y024094D03*
X005846Y024114D03*
X006594Y025000D03*
X006929Y025118D03*
X007224Y025807D03*
X007244Y025886D03*
X007244Y025906D03*
X006516Y026713D03*
X006220Y026024D03*
X003839Y021713D03*
X002874Y024764D03*
X002815Y025472D03*
X002736Y025965D03*
X003386Y025984D03*
X002146Y024764D03*
X000866Y024764D03*
D31*
X002441Y025118D03*
X002520Y025256D03*
X002736Y025866D03*
X003740Y022205D03*
X004370Y021713D03*
X004764Y022264D03*
X004783Y022303D03*
X005787Y022283D03*
X005787Y021949D03*
X005787Y021929D03*
X006713Y023051D03*
X006673Y023642D03*
X006594Y024921D03*
X006122Y025827D03*
X006181Y026122D03*
X005138Y024803D03*
X005157Y024154D03*
D32*
X005010Y023622D03*
X005010Y023602D03*
X005285Y022500D03*
X005285Y021713D03*
X003986Y022283D03*
X002628Y025059D03*
X006821Y024272D03*
X006821Y024252D03*
X006841Y024232D03*
X006841Y024213D03*
D33*
X006594Y024941D03*
X006398Y025256D03*
X006142Y025846D03*
X006181Y026102D03*
X006535Y026575D03*
X007047Y026575D03*
X007185Y025787D03*
X006713Y023031D03*
X005787Y022244D03*
X005787Y021969D03*
X004783Y022244D03*
X003720Y022185D03*
X003701Y021752D03*
X003720Y021732D03*
X004134Y025039D03*
X005039Y026260D03*
X002736Y025906D03*
X002756Y025610D03*
X002520Y025236D03*
X002756Y024980D03*
D34*
X002874Y024783D03*
X002894Y025689D03*
X002894Y025709D03*
X002894Y025728D03*
X002894Y025748D03*
X002894Y025768D03*
X002598Y025689D03*
X002579Y025709D03*
X002579Y025728D03*
X002579Y025748D03*
X002579Y025768D03*
X002579Y025787D03*
X002579Y025807D03*
X002579Y025827D03*
X003406Y025669D03*
X003799Y024921D03*
X003799Y024587D03*
X004724Y025413D03*
X004744Y025748D03*
X006437Y025138D03*
X006594Y025039D03*
X006555Y025709D03*
X006575Y025906D03*
X006870Y026161D03*
X005846Y021732D03*
X004409Y021909D03*
X003957Y022520D03*
X003661Y022303D03*
X000886Y024449D03*
X000846Y024429D03*
X000768Y024744D03*
D35*
X005089Y021752D03*
D36*
X005098Y021772D03*
D37*
X004892Y021791D03*
X005344Y023406D03*
X005325Y023425D03*
X005069Y024114D03*
X005837Y024961D03*
X005837Y024980D03*
X005837Y025000D03*
X005837Y025020D03*
X006211Y025610D03*
X006211Y026220D03*
X006526Y024429D03*
X006014Y022874D03*
X006014Y022854D03*
X006014Y022835D03*
X006014Y022815D03*
X004970Y025768D03*
X004970Y026181D03*
X004045Y024961D03*
X004045Y024547D03*
X002904Y024449D03*
X002904Y024429D03*
X001526Y024429D03*
X001526Y024449D03*
D38*
X001260Y024488D03*
X001260Y024508D03*
X001260Y024528D03*
X001280Y024567D03*
X001280Y024587D03*
X001280Y024606D03*
X001299Y024646D03*
X001063Y024626D03*
X001063Y024606D03*
X001083Y024173D03*
X000689Y024154D03*
X000669Y024193D03*
X000669Y024311D03*
X001732Y024213D03*
X001752Y024252D03*
X001772Y024291D03*
X001772Y024311D03*
X001791Y024370D03*
X001791Y024390D03*
X001791Y024488D03*
X001772Y024547D03*
X001772Y024567D03*
X001752Y024606D03*
X001732Y024646D03*
X002382Y024626D03*
X002402Y024587D03*
X002421Y024528D03*
X002421Y024508D03*
X002421Y024331D03*
X002421Y024311D03*
X002402Y024252D03*
X002638Y024469D03*
X002638Y024488D03*
X002638Y024508D03*
X002638Y024547D03*
X002638Y024567D03*
X002598Y024567D03*
X002657Y024606D03*
X002657Y024626D03*
X002677Y024665D03*
X003110Y024626D03*
X003130Y024587D03*
X003150Y024547D03*
X003150Y024528D03*
X003150Y024508D03*
X003150Y024488D03*
X003150Y024350D03*
X003150Y024331D03*
X003150Y024311D03*
X003130Y024272D03*
X003445Y024272D03*
X003445Y024291D03*
X003445Y024311D03*
X003445Y024331D03*
X003445Y024350D03*
X003445Y024370D03*
X003445Y024390D03*
X003445Y024409D03*
X003445Y024429D03*
X003445Y024449D03*
X003445Y024469D03*
X003445Y024488D03*
X003445Y024508D03*
X003445Y024528D03*
X003445Y024547D03*
X003445Y024567D03*
X003445Y024587D03*
X003445Y024606D03*
X003445Y024626D03*
X003445Y024646D03*
X003445Y024665D03*
X003445Y024685D03*
X003445Y024705D03*
X003445Y024724D03*
X003445Y024744D03*
X003445Y024764D03*
X003445Y024252D03*
X003445Y024232D03*
X003445Y024213D03*
X003445Y024193D03*
X003445Y024173D03*
X003445Y024154D03*
X003445Y024134D03*
X003445Y024114D03*
X003445Y024094D03*
X003445Y024075D03*
X003760Y025335D03*
X003976Y025413D03*
X003976Y025433D03*
X003976Y025453D03*
X003976Y025472D03*
X003976Y025492D03*
X003976Y025512D03*
X003976Y025531D03*
X003976Y025551D03*
X003976Y025571D03*
X003976Y025591D03*
X003976Y025610D03*
X003976Y025630D03*
X003976Y025650D03*
X003976Y025669D03*
X003976Y025689D03*
X003976Y025709D03*
X003976Y025728D03*
X003976Y025748D03*
X003976Y025768D03*
X003976Y025787D03*
X003976Y025807D03*
X003976Y025827D03*
X003976Y025846D03*
X003976Y025866D03*
X003976Y025886D03*
X003976Y025906D03*
X003976Y025925D03*
X003976Y026024D03*
X003976Y026043D03*
X003976Y026063D03*
X003976Y026083D03*
X003976Y026102D03*
X003976Y026122D03*
X003976Y026142D03*
X003976Y026161D03*
X003976Y026181D03*
X003976Y026201D03*
X004350Y025984D03*
X004350Y025965D03*
X004350Y025945D03*
X004350Y025925D03*
X004350Y025906D03*
X004350Y025886D03*
X004350Y025866D03*
X004350Y025846D03*
X004350Y025827D03*
X004350Y025807D03*
X004350Y025787D03*
X004350Y025768D03*
X004350Y025748D03*
X004350Y025728D03*
X004350Y025709D03*
X004350Y025689D03*
X004350Y025669D03*
X004350Y025650D03*
X004350Y025630D03*
X004350Y025610D03*
X004350Y025591D03*
X004350Y025571D03*
X004350Y025551D03*
X004350Y025531D03*
X004350Y025512D03*
X004350Y025492D03*
X004350Y025472D03*
X004350Y025453D03*
X004350Y025433D03*
X004350Y025413D03*
X004350Y025394D03*
X004350Y025374D03*
X004350Y025354D03*
X004350Y025335D03*
X004350Y025315D03*
X005059Y024961D03*
X005433Y023996D03*
X005433Y023976D03*
X006161Y023701D03*
X006142Y023642D03*
X006772Y022894D03*
X005433Y022185D03*
X005433Y022165D03*
X005433Y022146D03*
X005433Y022126D03*
X005433Y022106D03*
X005433Y022087D03*
X005315Y022106D03*
X005217Y022087D03*
X005217Y022185D03*
X005256Y022244D03*
X005256Y021811D03*
X005256Y021791D03*
X005394Y021831D03*
X005079Y022087D03*
X005079Y022106D03*
X005079Y022126D03*
X005079Y022146D03*
X005079Y022165D03*
X005079Y022185D03*
X005256Y022756D03*
X004567Y022205D03*
X004272Y022500D03*
X003189Y025433D03*
X003189Y025453D03*
X003189Y025472D03*
X003189Y025492D03*
X003189Y025512D03*
X003228Y025925D03*
X003583Y025886D03*
X003583Y025866D03*
X003583Y025846D03*
X003583Y025827D03*
X003583Y025807D03*
X002736Y026004D03*
X006437Y025807D03*
X006516Y025886D03*
X006516Y025965D03*
X006614Y025945D03*
X006516Y026083D03*
X006516Y026102D03*
X006614Y026122D03*
X006614Y026142D03*
X006811Y026102D03*
X006831Y026181D03*
X006713Y025748D03*
X006634Y025748D03*
X006516Y025689D03*
X006594Y025098D03*
X007028Y025945D03*
X006988Y026732D03*
X006594Y026772D03*
D39*
X006171Y026181D03*
X006171Y025650D03*
X006191Y025630D03*
X005817Y025177D03*
X005817Y025157D03*
X005817Y025138D03*
X005817Y025118D03*
X004990Y025335D03*
X004990Y025787D03*
X004065Y025000D03*
X005266Y023484D03*
X005285Y023465D03*
X006014Y022736D03*
X006565Y024390D03*
X007274Y025650D03*
X007274Y026142D03*
X007274Y026161D03*
X007274Y026181D03*
X004852Y021831D03*
X004872Y021811D03*
D40*
X005089Y022224D03*
X005266Y022402D03*
X005443Y022224D03*
X005266Y021870D03*
X005266Y021831D03*
X005463Y022835D03*
X005463Y023937D03*
X006447Y025098D03*
X006526Y025768D03*
X006624Y025768D03*
X006624Y025965D03*
X006624Y025984D03*
X006624Y026102D03*
X006624Y026161D03*
X006821Y025965D03*
X006821Y025945D03*
X006821Y025925D03*
X006821Y025748D03*
X006821Y025728D03*
X006821Y025709D03*
X006821Y025669D03*
X007018Y025906D03*
X007018Y025965D03*
X006919Y026142D03*
X006407Y025965D03*
X006053Y026437D03*
X006860Y025059D03*
X007392Y025394D03*
X007451Y026319D03*
X004341Y026280D03*
X004341Y026201D03*
X003986Y025945D03*
X003967Y025394D03*
X003967Y025374D03*
X003947Y025354D03*
X003573Y025787D03*
X003573Y025906D03*
X003553Y025925D03*
X003533Y025945D03*
X003238Y025945D03*
X003199Y025531D03*
X003199Y025413D03*
X003199Y025394D03*
X003219Y025374D03*
X003238Y025354D03*
X003435Y025059D03*
X003061Y024685D03*
X003081Y024665D03*
X003100Y024646D03*
X003120Y024606D03*
X003140Y024567D03*
X003159Y024469D03*
X003159Y024409D03*
X003159Y024390D03*
X003159Y024370D03*
X003140Y024291D03*
X003120Y024252D03*
X003120Y024232D03*
X003100Y024213D03*
X003081Y024193D03*
X002707Y024705D03*
X002687Y024685D03*
X002667Y024646D03*
X002648Y024587D03*
X002411Y024567D03*
X002411Y024547D03*
X002431Y024488D03*
X002431Y024469D03*
X002431Y024449D03*
X002431Y024429D03*
X002431Y024409D03*
X002431Y024390D03*
X002431Y024370D03*
X002431Y024350D03*
X002411Y024291D03*
X002411Y024272D03*
X002392Y024232D03*
X002372Y024213D03*
X002372Y024193D03*
X002352Y024173D03*
X002333Y024154D03*
X002687Y024134D03*
X002372Y024646D03*
X002352Y024665D03*
X002156Y024685D03*
X001978Y024705D03*
X001762Y024587D03*
X001742Y024626D03*
X001722Y024665D03*
X001703Y024685D03*
X001683Y024705D03*
X001781Y024528D03*
X001781Y024508D03*
X001781Y024469D03*
X001781Y024409D03*
X001781Y024350D03*
X001781Y024331D03*
X001762Y024272D03*
X001742Y024232D03*
X001722Y024193D03*
X001703Y024173D03*
X001683Y024154D03*
X001959Y024154D03*
X001309Y024134D03*
X001270Y024469D03*
X001270Y024547D03*
X001289Y024626D03*
X001309Y024665D03*
X001329Y024685D03*
X001348Y024705D03*
X001053Y024665D03*
X001053Y024646D03*
X001033Y024685D03*
X001033Y024705D03*
X001053Y024587D03*
X001053Y024567D03*
X001033Y024547D03*
X000699Y024350D03*
X000679Y024331D03*
X000659Y024291D03*
X000659Y024272D03*
X000659Y024252D03*
X000659Y024232D03*
X000659Y024213D03*
X000679Y024173D03*
X001073Y024154D03*
X003986Y022539D03*
D41*
X004862Y022402D03*
X004843Y021870D03*
X005709Y021831D03*
X005709Y022402D03*
X006024Y022657D03*
X006024Y022677D03*
X006024Y022697D03*
X006024Y022717D03*
X006614Y023524D03*
X006594Y024350D03*
X006575Y024370D03*
X006161Y025669D03*
X006161Y025689D03*
X006161Y026161D03*
X005236Y024331D03*
X005217Y024272D03*
X005217Y024252D03*
X005236Y023524D03*
X004075Y024508D03*
X005000Y025846D03*
X005000Y026220D03*
X007264Y025689D03*
X007283Y025669D03*
X002736Y025020D03*
D42*
X002884Y025630D03*
X002884Y025650D03*
X002884Y025669D03*
X002884Y025787D03*
X002884Y025807D03*
X002884Y025827D03*
X002608Y025669D03*
X002313Y025492D03*
X002313Y025472D03*
X002333Y025433D03*
X002333Y025413D03*
X002352Y025374D03*
X002333Y025000D03*
X002136Y024783D03*
X001506Y024783D03*
X000856Y024783D03*
X003711Y022047D03*
X003711Y022028D03*
X003711Y022008D03*
X003711Y021988D03*
X004400Y021890D03*
X004400Y021870D03*
X004400Y021850D03*
X004419Y021929D03*
X004301Y022441D03*
X005502Y022795D03*
X005876Y022579D03*
X005089Y024902D03*
X004754Y026161D03*
X003829Y025295D03*
D43*
X004055Y024980D03*
X004055Y024528D03*
X004980Y025354D03*
X004980Y026201D03*
X005827Y025098D03*
X005827Y025079D03*
X005827Y025059D03*
X005827Y025039D03*
X006161Y025709D03*
X006161Y025728D03*
X006181Y026201D03*
X006594Y024882D03*
X006535Y024409D03*
X006614Y023504D03*
X006024Y022795D03*
X006024Y022776D03*
X006024Y022756D03*
X005295Y023445D03*
X005236Y024350D03*
X004882Y022421D03*
X004862Y021850D03*
X007264Y025630D03*
X007283Y026122D03*
X007264Y026201D03*
X007244Y026220D03*
D44*
X007205Y025748D03*
X006594Y024902D03*
X006654Y023602D03*
X006634Y023563D03*
X005748Y022362D03*
X005768Y021890D03*
X005748Y021870D03*
X004823Y022362D03*
X004803Y022343D03*
X004094Y024488D03*
X004094Y025020D03*
X005020Y025315D03*
X005020Y025807D03*
X005020Y025827D03*
X005020Y026240D03*
X002815Y025354D03*
D45*
X002825Y025374D03*
X002746Y025000D03*
X002530Y025276D03*
X004793Y022323D03*
X004774Y022283D03*
X004774Y021929D03*
X004793Y021909D03*
X004793Y021890D03*
X005246Y022933D03*
X005758Y022343D03*
X005778Y022323D03*
X005778Y022303D03*
X005778Y021909D03*
X006644Y023583D03*
X006663Y023622D03*
X006683Y023661D03*
X007333Y026004D03*
D46*
X006604Y023445D03*
X004636Y022028D03*
X004656Y021969D03*
X004656Y021949D03*
D47*
X004646Y021988D03*
X004646Y022008D03*
X004094Y022303D03*
X005039Y024094D03*
X005236Y024390D03*
X005846Y024921D03*
X006240Y025571D03*
X006476Y024469D03*
X006594Y023701D03*
X005984Y022933D03*
X007205Y025571D03*
X007205Y026260D03*
D48*
X007293Y025965D03*
X007057Y026594D03*
X006526Y026594D03*
X006506Y026634D03*
X006191Y026083D03*
X006388Y025236D03*
X006388Y025217D03*
X006919Y025236D03*
X006939Y025217D03*
X006939Y025197D03*
X005876Y025256D03*
X005128Y024823D03*
X005049Y025295D03*
X003927Y025984D03*
X002726Y025925D03*
X002766Y025591D03*
X002825Y025413D03*
X002510Y025217D03*
X003711Y022165D03*
X004419Y022165D03*
X005738Y022205D03*
X005758Y022224D03*
X005778Y021988D03*
D49*
X005433Y022047D03*
X005433Y022067D03*
X005256Y022205D03*
X005079Y022067D03*
X005079Y022047D03*
X005472Y022815D03*
X005866Y022500D03*
X006594Y025059D03*
X005984Y025276D03*
X006083Y026417D03*
X006575Y026752D03*
X007008Y026713D03*
X007362Y025413D03*
X005197Y025413D03*
X005197Y025394D03*
X005197Y025433D03*
X005197Y025453D03*
X005197Y025472D03*
X005197Y025492D03*
X005197Y025512D03*
X005197Y025531D03*
X005197Y025551D03*
X005197Y025571D03*
X005197Y025591D03*
X005197Y025610D03*
X005197Y025630D03*
X005197Y025650D03*
X005197Y025669D03*
X005197Y025689D03*
X005197Y025709D03*
X005197Y025728D03*
X005197Y025748D03*
X005197Y025866D03*
X005197Y025886D03*
X005197Y025906D03*
X005197Y025925D03*
X005197Y025945D03*
X005197Y025965D03*
X005197Y025984D03*
X005197Y026004D03*
X005197Y026024D03*
X005197Y026043D03*
X005197Y026063D03*
X005197Y026083D03*
X005197Y026102D03*
X005197Y026122D03*
X005197Y026142D03*
X005197Y026161D03*
X004705Y026102D03*
X004705Y025945D03*
X004705Y025728D03*
X004685Y025709D03*
X004665Y025689D03*
X004646Y025650D03*
X004646Y025512D03*
X004665Y025472D03*
X004272Y024941D03*
X004272Y024567D03*
X004272Y024449D03*
X003780Y024606D03*
X003760Y024626D03*
X003760Y024646D03*
X003740Y024685D03*
X003740Y024705D03*
X003740Y024823D03*
X003760Y024882D03*
X003780Y024902D03*
X003524Y025335D03*
X003268Y025965D03*
X002992Y024114D03*
X002854Y024055D03*
X002264Y024114D03*
X001417Y024744D03*
X001339Y024114D03*
X001004Y024114D03*
X000866Y024055D03*
X000748Y024390D03*
X000925Y024469D03*
X004291Y022461D03*
D50*
X004281Y022480D03*
X004695Y022500D03*
X005266Y022067D03*
X006152Y023563D03*
X006152Y023583D03*
X006152Y023602D03*
X006762Y022913D03*
X006447Y025118D03*
X005069Y024941D03*
X004656Y025492D03*
X004636Y025531D03*
X004636Y025551D03*
X004636Y025571D03*
X004636Y025591D03*
X004636Y025610D03*
X004636Y025630D03*
X004656Y025669D03*
X004754Y025886D03*
X004734Y025906D03*
X004715Y025925D03*
X004695Y025965D03*
X004695Y025984D03*
X004695Y026004D03*
X004695Y026024D03*
X004695Y026043D03*
X004695Y026063D03*
X004695Y026083D03*
X004341Y026220D03*
X004341Y026240D03*
X004341Y026260D03*
X004281Y024921D03*
X004281Y024902D03*
X004281Y024882D03*
X004281Y024862D03*
X004281Y024843D03*
X004281Y024823D03*
X004281Y024803D03*
X004281Y024783D03*
X004281Y024764D03*
X004281Y024744D03*
X004281Y024724D03*
X004281Y024705D03*
X004281Y024685D03*
X004281Y024665D03*
X004281Y024646D03*
X004281Y024626D03*
X004281Y024606D03*
X004281Y024587D03*
X004281Y024429D03*
X004281Y024409D03*
X004281Y024390D03*
X004281Y024370D03*
X004281Y024350D03*
X004281Y024331D03*
X004281Y024311D03*
X004281Y024291D03*
X004281Y024272D03*
X004281Y024252D03*
X004281Y024232D03*
X004281Y024213D03*
X004281Y024193D03*
X004281Y024173D03*
X004281Y024154D03*
X004281Y024134D03*
X004281Y024114D03*
X004281Y024094D03*
X004281Y024075D03*
X003750Y024665D03*
X003730Y024724D03*
X003730Y024744D03*
X003730Y024764D03*
X003730Y024783D03*
X003730Y024803D03*
X003750Y024843D03*
X003750Y024862D03*
X003573Y025354D03*
X003435Y025020D03*
X003435Y025000D03*
X003278Y025335D03*
X003278Y025610D03*
X003494Y025709D03*
X003494Y025965D03*
X002707Y024114D03*
X002293Y024724D03*
X002293Y024961D03*
X001998Y024724D03*
X002018Y024114D03*
X002136Y024055D03*
X001624Y024114D03*
X001486Y024055D03*
X001053Y024134D03*
X000974Y024488D03*
X000738Y024114D03*
D51*
X002825Y025394D03*
X002726Y025886D03*
X004124Y024469D03*
X004400Y022185D03*
X005246Y022913D03*
X005797Y022264D03*
X005994Y022598D03*
X006900Y025256D03*
X007254Y025728D03*
X007313Y025984D03*
D52*
X007047Y025886D03*
X006988Y025886D03*
X006909Y025689D03*
X006713Y025689D03*
X006713Y025787D03*
X006713Y025807D03*
X006614Y026004D03*
X006516Y026122D03*
X006516Y026142D03*
X006516Y026181D03*
X006437Y025906D03*
X006437Y025886D03*
X006890Y026102D03*
X006890Y026122D03*
X007008Y026102D03*
X006457Y025079D03*
X005906Y022520D03*
X005433Y022244D03*
X003839Y025276D03*
X003445Y024961D03*
X003445Y024783D03*
X003622Y022343D03*
X001969Y024685D03*
X001673Y024213D03*
X001299Y024154D03*
D53*
X002530Y025295D03*
X004833Y022382D03*
X005246Y022953D03*
X005246Y023504D03*
X005108Y024134D03*
X005187Y024173D03*
X005187Y024193D03*
X005207Y024213D03*
X005207Y024232D03*
X005226Y024291D03*
X005226Y024311D03*
X005817Y025197D03*
X005817Y025217D03*
X005817Y025236D03*
X006132Y025748D03*
X006112Y025768D03*
X006112Y025787D03*
X006112Y025807D03*
X006171Y026142D03*
X006604Y024331D03*
X006624Y023543D03*
X006033Y022638D03*
X006033Y022618D03*
X005719Y022382D03*
X007234Y025709D03*
X007156Y025768D03*
X007333Y026024D03*
X007333Y026043D03*
X007333Y026063D03*
X007313Y026083D03*
X007313Y026102D03*
D54*
X005276Y022441D03*
D55*
X005285Y022461D03*
X005640Y022972D03*
D56*
X005276Y022480D03*
X006614Y026299D03*
D57*
X006850Y024193D03*
X006850Y024173D03*
X005256Y024449D03*
X005000Y023661D03*
X005000Y023642D03*
X005276Y022677D03*
X005276Y022520D03*
X002618Y025039D03*
D58*
X004990Y024075D03*
X005876Y024902D03*
X006447Y024488D03*
X005955Y022953D03*
D59*
X005650Y022992D03*
X006201Y024862D03*
D60*
X006191Y024843D03*
X005659Y023012D03*
D61*
X005659Y023031D03*
D62*
X005669Y023051D03*
D63*
X005915Y023071D03*
X005935Y023091D03*
X005955Y023130D03*
X005974Y023150D03*
X005797Y024567D03*
X005915Y024764D03*
X005935Y024783D03*
D64*
X005906Y024744D03*
X005886Y024724D03*
X005866Y024705D03*
X005866Y024685D03*
X005846Y024665D03*
X005827Y024646D03*
X006043Y023268D03*
X006043Y023248D03*
X006004Y023189D03*
X005984Y023169D03*
X005945Y023110D03*
D65*
X006014Y023209D03*
X006033Y023228D03*
X005797Y024587D03*
X005797Y024606D03*
X005817Y024626D03*
D66*
X005807Y024547D03*
X006043Y023287D03*
D67*
X006033Y023307D03*
D68*
X006043Y023327D03*
X005807Y024528D03*
D69*
X006535Y023346D03*
X006772Y023858D03*
X006772Y023937D03*
D70*
X007165Y025551D03*
X007165Y026280D03*
X006280Y026280D03*
X006280Y025551D03*
X005236Y024409D03*
X005138Y023543D03*
X005394Y023366D03*
D71*
X005285Y024488D03*
X006663Y025295D03*
X006663Y025315D03*
X006663Y025335D03*
X006683Y025394D03*
X006703Y025413D03*
X006742Y026417D03*
X006781Y026496D03*
X006781Y026516D03*
X006781Y026535D03*
X006565Y023366D03*
D72*
X006594Y023425D03*
D73*
X006614Y023740D03*
X006654Y025276D03*
X006713Y025433D03*
X006732Y026398D03*
X006791Y026555D03*
D74*
X006772Y024134D03*
X006772Y024114D03*
X006772Y024094D03*
X006772Y024075D03*
X006772Y024055D03*
X006772Y024035D03*
X006772Y024016D03*
X006752Y023780D03*
X006673Y023760D03*
D75*
X006781Y023799D03*
X006781Y023839D03*
X006781Y023957D03*
D76*
X005394Y023878D03*
D77*
X005325Y024508D03*
X006762Y023878D03*
D78*
X005925Y023898D03*
X005925Y023917D03*
D79*
X006181Y024803D03*
X006713Y025531D03*
D80*
X006181Y024823D03*
D81*
X006850Y025453D03*
X006594Y026378D03*
D82*
X006594Y026358D03*
X006850Y025472D03*
D83*
X006841Y025492D03*
X006604Y026339D03*
D84*
X006841Y025512D03*
D85*
X006594Y026319D03*
M02*
