G75*
%MOIN*%
%OFA0B0*%
%FSLAX24Y24*%
%IPPOS*%
%LPD*%
%AMOC8*
5,1,8,0,0,1.08239X$1,22.5*
%
%ADD10R,0.0394X0.0433*%
%ADD11R,0.0330X0.0110*%
%ADD12R,0.0110X0.0330*%
%ADD13R,0.1610X0.1610*%
%ADD14C,0.0060*%
%ADD15R,0.0217X0.0472*%
%ADD16R,0.0197X0.0394*%
%ADD17R,0.0315X0.0472*%
%ADD18R,0.0472X0.0472*%
D10*
X003307Y020807D03*
X003307Y021476D03*
X004193Y021476D03*
X004193Y020807D03*
X003171Y025571D03*
X003171Y026240D03*
X005996Y026240D03*
X005996Y025571D03*
D11*
X005756Y018797D03*
X005756Y018607D03*
X005756Y018407D03*
X005756Y018207D03*
X005756Y018017D03*
X005756Y017817D03*
X005756Y017617D03*
X005756Y017417D03*
X005756Y017227D03*
X005756Y017027D03*
X005756Y016827D03*
X005756Y016637D03*
X003016Y016637D03*
X003016Y016827D03*
X003016Y017027D03*
X003016Y017227D03*
X003016Y017417D03*
X003016Y017617D03*
X003016Y017817D03*
X003016Y018017D03*
X003016Y018207D03*
X003016Y018407D03*
X003016Y018607D03*
X003016Y018797D03*
D12*
X003306Y019087D03*
X003496Y019087D03*
X003696Y019087D03*
X003896Y019087D03*
X004086Y019087D03*
X004286Y019087D03*
X004486Y019087D03*
X004686Y019087D03*
X004876Y019087D03*
X005076Y019087D03*
X005276Y019087D03*
X005466Y019087D03*
X005466Y016347D03*
X005276Y016347D03*
X005076Y016347D03*
X004876Y016347D03*
X004686Y016347D03*
X004486Y016347D03*
X004286Y016347D03*
X004086Y016347D03*
X003896Y016347D03*
X003696Y016347D03*
X003496Y016347D03*
X003306Y016347D03*
D13*
X004386Y017717D03*
D14*
X003346Y016187D02*
X003256Y016187D01*
X003256Y016507D01*
X003346Y016507D01*
X003346Y016187D01*
X003456Y016187D02*
X003546Y016187D01*
X003546Y016507D01*
X003456Y016507D01*
X003456Y016187D01*
X003176Y016587D02*
X003176Y016677D01*
X002856Y016677D01*
X002856Y016587D01*
X003176Y016587D01*
X003176Y016787D02*
X003176Y016877D01*
X002856Y016877D01*
X002856Y016787D01*
X003176Y016787D01*
X003176Y016987D02*
X003176Y017077D01*
X002856Y017077D01*
X002856Y016987D01*
X003176Y016987D01*
X003176Y017177D02*
X003176Y017267D01*
X002856Y017267D01*
X002856Y017177D01*
X003176Y017177D01*
X003176Y017377D02*
X003176Y017467D01*
X002856Y017467D01*
X002856Y017377D01*
X003176Y017377D01*
X003176Y017577D02*
X003176Y017667D01*
X002856Y017667D01*
X002856Y017577D01*
X003176Y017577D01*
X003176Y017767D02*
X003176Y017857D01*
X002856Y017857D01*
X002856Y017767D01*
X003176Y017767D01*
X003176Y017967D02*
X003176Y018057D01*
X002856Y018057D01*
X002856Y017967D01*
X003176Y017967D01*
X003176Y018167D02*
X003176Y018257D01*
X002856Y018257D01*
X002856Y018167D01*
X003176Y018167D01*
X003176Y018357D02*
X003176Y018447D01*
X002856Y018447D01*
X002856Y018357D01*
X003176Y018357D01*
X003176Y018557D02*
X003176Y018647D01*
X002856Y018647D01*
X002856Y018557D01*
X003176Y018557D01*
X003176Y018757D02*
X003176Y018847D01*
X002856Y018847D01*
X002856Y018757D01*
X003176Y018757D01*
X003256Y018927D02*
X003346Y018927D01*
X003346Y019247D01*
X003256Y019247D01*
X003256Y018927D01*
X003456Y018927D02*
X003456Y019247D01*
X003546Y019247D01*
X003546Y018927D01*
X003456Y018927D01*
X003606Y018497D02*
X003726Y018497D01*
X003806Y018497D02*
X003806Y018437D01*
X003806Y018497D02*
X004036Y018497D01*
X004116Y018497D02*
X004346Y018497D01*
X004426Y018497D02*
X004426Y018437D01*
X004436Y018927D02*
X004526Y018927D01*
X004526Y019247D01*
X004436Y019247D01*
X004436Y018927D01*
X004336Y018927D02*
X004336Y019247D01*
X004246Y019247D01*
X004246Y018927D01*
X004336Y018927D01*
X004136Y018927D02*
X004136Y019247D01*
X004046Y019247D01*
X004046Y018927D01*
X004136Y018927D01*
X003936Y018927D02*
X003936Y019247D01*
X003846Y019247D01*
X003846Y018927D01*
X003936Y018927D01*
X003746Y018927D02*
X003746Y019247D01*
X003656Y019247D01*
X003656Y018927D01*
X003746Y018927D01*
X003606Y018497D02*
X003606Y018377D01*
X003666Y018377D01*
X003606Y018297D02*
X003606Y018067D01*
X003666Y018067D01*
X003606Y017987D02*
X003606Y017757D01*
X003666Y017757D01*
X003606Y017677D02*
X003606Y017447D01*
X003666Y017447D01*
X003606Y017367D02*
X003606Y017137D01*
X003666Y017137D01*
X003606Y017057D02*
X003606Y016937D01*
X003726Y016937D01*
X003726Y016997D01*
X003806Y016937D02*
X004036Y016937D01*
X004036Y016997D01*
X004116Y016937D02*
X004346Y016937D01*
X004346Y016997D01*
X004426Y016937D02*
X004656Y016937D01*
X004656Y016997D01*
X004736Y016937D02*
X004966Y016937D01*
X004966Y016997D01*
X005046Y016937D02*
X005166Y016937D01*
X005166Y017057D01*
X005106Y017057D01*
X005166Y017137D02*
X005166Y017367D01*
X005106Y017367D01*
X005166Y017447D02*
X005166Y017677D01*
X005106Y017677D01*
X005166Y017757D02*
X005166Y017987D01*
X005106Y017987D01*
X005166Y018067D02*
X005166Y018297D01*
X005106Y018297D01*
X005166Y018377D02*
X005166Y018497D01*
X005046Y018497D01*
X005046Y018437D01*
X005026Y018927D02*
X005116Y018927D01*
X005116Y019247D01*
X005026Y019247D01*
X005026Y018927D01*
X004926Y018927D02*
X004926Y019247D01*
X004836Y019247D01*
X004836Y018927D01*
X004926Y018927D01*
X005226Y018927D02*
X005226Y019247D01*
X005316Y019247D01*
X005316Y018927D01*
X005226Y018927D01*
X005426Y018927D02*
X005516Y018927D01*
X005516Y019247D01*
X005426Y019247D01*
X005426Y018927D01*
X005596Y018847D02*
X005596Y018757D01*
X005916Y018757D01*
X005916Y018847D01*
X005596Y018847D01*
X005596Y018647D02*
X005916Y018647D01*
X005916Y018557D01*
X005596Y018557D01*
X005596Y018647D01*
X005596Y018447D02*
X005916Y018447D01*
X005916Y018357D01*
X005596Y018357D01*
X005596Y018447D01*
X005596Y018257D02*
X005916Y018257D01*
X005916Y018167D01*
X005596Y018167D01*
X005596Y018257D01*
X005596Y018057D02*
X005916Y018057D01*
X005916Y017967D01*
X005596Y017967D01*
X005596Y018057D01*
X005596Y017857D02*
X005916Y017857D01*
X005916Y017767D01*
X005596Y017767D01*
X005596Y017857D01*
X005596Y017667D02*
X005916Y017667D01*
X005916Y017577D01*
X005596Y017577D01*
X005596Y017667D01*
X005596Y017467D02*
X005916Y017467D01*
X005916Y017377D01*
X005596Y017377D01*
X005596Y017467D01*
X005596Y017267D02*
X005916Y017267D01*
X005916Y017177D01*
X005596Y017177D01*
X005596Y017267D01*
X005596Y017077D02*
X005916Y017077D01*
X005916Y016987D01*
X005596Y016987D01*
X005596Y017077D01*
X005596Y016877D02*
X005916Y016877D01*
X005916Y016787D01*
X005596Y016787D01*
X005596Y016877D01*
X005596Y016677D02*
X005916Y016677D01*
X005916Y016587D01*
X005596Y016587D01*
X005596Y016677D01*
X005516Y016507D02*
X005426Y016507D01*
X005426Y016187D01*
X005516Y016187D01*
X005516Y016507D01*
X005316Y016507D02*
X005316Y016187D01*
X005226Y016187D01*
X005226Y016507D01*
X005316Y016507D01*
X005116Y016507D02*
X005116Y016187D01*
X005026Y016187D01*
X005026Y016507D01*
X005116Y016507D01*
X004926Y016507D02*
X004926Y016187D01*
X004836Y016187D01*
X004836Y016507D01*
X004926Y016507D01*
X004726Y016507D02*
X004726Y016187D01*
X004636Y016187D01*
X004636Y016507D01*
X004726Y016507D01*
X004526Y016507D02*
X004526Y016187D01*
X004436Y016187D01*
X004436Y016507D01*
X004526Y016507D01*
X004336Y016507D02*
X004336Y016187D01*
X004246Y016187D01*
X004246Y016507D01*
X004336Y016507D01*
X004136Y016507D02*
X004136Y016187D01*
X004046Y016187D01*
X004046Y016507D01*
X004136Y016507D01*
X003936Y016507D02*
X003936Y016187D01*
X003846Y016187D01*
X003846Y016507D01*
X003936Y016507D01*
X003746Y016507D02*
X003746Y016187D01*
X003656Y016187D01*
X003656Y016507D01*
X003746Y016507D01*
X004636Y018927D02*
X004726Y018927D01*
X004726Y019247D01*
X004636Y019247D01*
X004636Y018927D01*
D15*
X004858Y025571D03*
X004858Y026595D03*
X004484Y026595D03*
X004110Y026595D03*
X004110Y025571D03*
D16*
X003980Y020165D03*
X003547Y020165D03*
D17*
X003657Y022835D03*
X002949Y022835D03*
X005311Y022835D03*
X006020Y022835D03*
X005335Y028622D03*
X004626Y028622D03*
D18*
X003602Y028622D03*
X002776Y028622D03*
X002890Y023622D03*
X003717Y023622D03*
X005252Y023622D03*
X006079Y023622D03*
M02*
